<svg width="300" height="300" viewBox="0 0 300 300" fill="none" xmlns="http://www.w3.org/2000/svg">
<path d="M46.9895 201.4C55.0395 168.42 67.6795 136.75 84.5295 107.49C85.1795 106.36 85.8795 104.33 86.4895 103.07L72.4995 119.32C60.6195 133.23 49.7695 148.86 37.2995 162.72C34.9495 165.33 30.9195 169.89 27.6695 172.41C25.6295 173.98 25.2295 173.16 23.9795 173.64C21.3795 174.65 22.0395 175.73 18.1995 174.9C1.00948 171.17 0.219483 157.44 2.79948 142.34C5.18948 128.34 11.4195 113.67 16.9895 100.86C17.3695 99.99 19.6695 94.75 19.8895 94.47C19.9595 94.38 20.5895 94.84 20.8695 94.42C21.0095 94.2 20.7195 93.51 20.9595 92.91C23.9195 85.43 29.1195 78.01 33.4095 71.49C34.3695 70.03 34.7895 69.91 35.0895 69.48C35.6695 68.66 35.2195 66.84 37.0995 67.06C36.0095 65.48 37.2595 65.8 37.6595 65.11C38.1795 64.23 38.7495 62.5 39.3895 61.89C39.7495 61.54 40.2595 61.9 40.3295 61.83C41.5195 60.46 42.9895 56.86 44.3995 55.37C45.0295 54.71 45.5295 53.97 46.5695 54.09L45.7495 53.48C46.9795 52.76 47.3095 51.3 48.0295 50.4C48.9995 49.18 51.3895 46.42 52.7195 46.09C51.8895 44.97 52.7995 45.23 53.1095 44.71C53.6895 43.72 55.8395 40.71 56.6495 40.07C57.0795 39.73 57.6395 40.15 57.6695 40.1C57.8095 39.86 57.6295 39.02 58.0795 38.24C58.5695 37.4 59.9595 36.85 60.4395 36.28C63.0495 33.17 65.9095 29.77 68.6695 26.81C70.5295 24.82 70.2895 24.05 72.9195 22.98C73.2795 22.83 73.5695 22.2 74.0295 22.08C75.3695 21.71 83.7595 25.66 85.2295 26.78C90.0695 30.46 86.5595 32.65 83.9595 36.17C80.9995 40.18 77.1795 43.97 74.5095 48.11C74.0595 48.8 72.9295 48.55 73.7495 49.59C71.9695 49.23 72.6795 50.46 72.1195 51.36C70.9695 53.23 67.5595 56.45 65.9495 58.55C60.8295 65.25 55.4295 72.98 50.9295 80.06C49.2995 82.63 50.0095 82.25 47.4595 84.2C47.1395 84.44 45.0795 90.03 44.2595 91.5C34.4295 109.02 25.2195 126.78 19.3095 146.37C18.3295 149.62 15.8395 158.37 15.8695 161.37C15.8895 162.84 16.8795 164.41 16.5395 166.03C17.6095 166.13 19.5795 165.94 20.3895 165.23C20.7695 164.89 20.5495 164.31 20.9395 163.96C22.3895 162.64 24.2195 161.48 25.5795 160.07C26.7595 158.85 27.3295 156.32 29.2795 156.78C28.6395 155.96 29.4495 155.23 29.9495 154.55C32.9695 150.45 36.8095 146.84 39.1695 142.58L39.9795 143.4C39.3595 141.88 40.8295 140.41 41.6995 139.16C42.8295 137.54 44.2595 136.37 45.3295 134.97C46.6695 133.2 48.3395 129.73 49.9795 128.29C50.5595 127.78 50.9395 128.15 51.4895 127.98C50.2895 126.31 53.1595 124.88 53.9695 123.88C56.2995 121.03 58.3495 117.92 60.5495 115.01V115.83L61.3695 115.21L60.5495 115.01C61.5195 113.74 63.2295 112.87 63.4695 110.93L64.2395 111.31C65.9195 108.01 68.8695 104.39 71.2695 101.34C78.8295 91.77 88.0395 82.51 95.2095 72.74C97.3695 72.42 97.1995 70.95 98.7095 69.33C99.0595 68.95 99.9395 68.84 100.329 68.38C100.769 67.85 101.609 65.31 102.219 64.92C102.669 64.63 105.209 64.1 105.949 64.14C108.419 64.28 110.729 66.09 112.849 67.04C113.419 67.3 114.209 67.05 115.229 67.51C116.369 68.02 121.479 71.54 122.189 72.48C126.469 78.17 121.839 81.03 120.839 86.65H119.849C117.079 94.91 111.189 102.41 107.799 109.8C103.199 119.83 97.5495 130.39 92.7695 140.84C90.7095 145.34 88.8495 149.97 86.8695 154.5L85.2495 154.09L86.4795 154.91L77.8195 176.49C76.3995 181.93 74.0495 187.09 72.3695 192.44C67.0195 209.51 63.2695 227.22 61.3795 245.02C62.4695 245.24 62.0895 244.75 62.3995 244.21C64.1095 241.27 65.2095 238.33 66.7695 235.48C68.2295 232.82 69.6895 231.86 70.4395 228.86C70.4895 228.67 72.6495 226.45 72.2695 225.67H73.2995C73.3195 221.96 76.9595 218.28 78.7995 214.99C80.8795 211.25 82.7595 206.79 84.8995 203.32C85.3295 202.62 86.0495 201.74 86.4695 201.1C88.6995 197.73 90.3495 193.39 92.4695 189.91C93.1195 188.84 94.7695 187.54 94.7095 186.18L96.3495 186.59L95.4995 185.93L95.9495 183.72L97.1795 184.54C95.8595 182.43 98.1795 181.41 99.0195 179.99C100.309 177.83 102.029 174.49 102.779 171.78C105.299 169.41 107.199 166.46 108.319 163.15L109.509 163.36C108.599 162.12 109.909 161.81 110.189 161.4C110.349 161.17 109.719 160.07 111.579 160.27L111.159 158.84L112.339 158.57C112.259 156.62 113.599 155.93 114.389 154.65C115.179 153.37 115.839 151.58 116.749 150.42C117.449 149.53 119.269 148.41 119.359 148.27C119.529 148.01 118.889 147.31 119.169 146.7C119.349 146.3 120.119 145.93 120.399 145.43C124.969 137.56 130.549 129.62 135.679 122.04C136.219 121.24 137.889 119.62 138.119 119.1C138.659 117.93 138.909 117.14 139.969 115.63C142.069 112.62 144.429 110.06 145.939 106.77C147.389 107.41 149.539 107.1 150.869 107.57C152.459 108.13 158.159 111.41 159.509 112.53C162.389 114.92 163.629 118.03 163.379 121.73C162.919 128.34 160.669 135.43 158.669 141.75C154.739 154.18 150.359 166.64 146.739 179.6C144.139 188.9 141.419 198.9 139.319 208.38C139.169 209.04 139.969 209.58 139.949 210.27C139.939 210.79 139.279 211.34 139.169 211.97C138.369 216.23 137.869 222.45 138.009 226.84C138.099 229.54 138.939 232.06 139.179 234.71C140.059 236.27 144.769 232.12 145.589 231.3C148.359 228.55 151.399 223.84 153.959 220.67C159.469 213.84 164.339 207.8 169.979 201.09C175.179 194.9 180.519 187.46 187.589 183.42C188.449 182.93 191.939 181.86 192.769 182.11C192.899 182.15 193.749 183.42 195.109 183.12C195.559 184.43 198.219 184.5 199.629 184.56L199.219 185.79C203.549 184.88 209.319 189.19 208.689 193.83L209.499 193.62L209.559 197.53L210.329 197.93C208.609 199.41 209.649 200.82 209.529 202C209.499 202.28 208.739 202.22 208.669 202.53C208.499 203.32 209.029 204.17 208.949 204.88C207.309 219.41 203.469 233.44 202.489 248.17C202.379 249.87 202.069 253.15 202.129 254.69C202.169 255.63 202.769 256.73 202.499 257.82C203.069 257.9 203.529 257.75 204.039 257.51C207.349 255.92 210.619 252.72 213.539 250.87C219.969 246.81 227.559 242.39 234.999 240.33C239.719 239.02 244.279 238.22 249.009 239.47C256.889 241.55 266.829 250.82 272.209 257.04C272.859 257.8 273.229 259.33 273.329 259.41C273.629 259.65 274.579 259.31 275.239 259.58C275.349 259.63 275.389 260.14 275.639 260.27C280.71 263.04 286.699 267.06 292.779 266.75C293.639 266.7 294.899 264.53 297.689 265.21C299.509 266.71 296.649 270.43 295.459 271.57C293.189 273.73 286.49 275.72 283.389 275.52C282.53 275.46 282.079 274.13 280.889 275.52C280.56 274.39 278.71 274.96 277.319 274.56C269.199 272.23 265.049 268.46 258.569 263.58C254.559 260.56 251.439 257.21 246.239 256.28C244.179 255.91 243.369 256.98 241.609 256.6L241.349 257.85C238.989 257.42 237.839 259.59 235.979 260.67C235.039 261.22 232.289 261.98 231.419 262.87C228.269 266.1 224.999 267.47 221.069 270C217.139 272.53 214.719 275.06 210.109 276.55C208.899 276.94 200.389 278.32 199.089 277.96C198.789 277.88 198.849 277.3 198.229 277.09C197.389 276.81 195.299 276.84 194.299 276.54C192.479 275.99 185.749 272.77 184.529 271.7C183.949 271.19 183.159 269.35 182.699 268.59L181.939 268.95L181.879 267.33C181.489 267.24 180.919 267.47 180.679 267.04C179.509 264.92 178.299 260.48 177.739 258.09C176.079 251.01 176.239 243.45 176.529 236.18C176.619 233.97 176.369 231.91 176.599 229.66C176.969 225.99 177.869 222.04 178.239 218.34L177.009 218.63C176.969 219.05 176.849 219.43 176.609 219.77C171.119 227.39 164.549 234.46 157.829 241.13C153.579 245.34 149.069 250.73 142.889 251.91C140.129 252.43 136.019 252.08 133.399 251.06C132.349 250.65 131.199 249.24 131.059 249.21C128.889 248.79 126.919 247.85 124.959 246.33C124.529 246 120.789 242.27 120.629 242.01C120.169 241.26 120.729 239.44 119.419 238.71L119.829 239.74C117.749 239.69 118.989 237.53 117.409 236.66L118.179 235.64C115.719 234.56 115.729 230.47 115.289 228C113.559 218.23 114.349 207.64 115.469 197.34L117.699 187.27L116.939 186.87C117.589 185.6 118.489 183.28 118.879 181.82C119.949 177.85 120.649 173.74 121.869 169.79C119.179 173.33 117.309 177.44 115.009 181.22C112.709 185 110.009 188.59 107.559 192.71C103.459 199.59 99.5595 206.37 95.8395 213.12C88.7495 225.99 78.0995 251.63 66.0395 259.01C63.8595 260.35 62.0995 261.24 59.5295 260.92C56.5395 260.55 55.4295 259.79 53.0295 258.44C52.6095 258.2 51.1995 258.16 50.7995 257.72C50.2395 257.11 50.9595 255.77 49.0395 256.6L49.4095 255.84C47.6595 255.66 47.5895 254.3 46.9795 253.63C45.7495 252.29 45.3995 252.53 44.7495 250.41C41.7995 240.84 43.3295 224.66 44.8095 214.78C44.9195 214.05 43.8795 213.23 45.3495 213.39L44.5395 212.8L46.9995 201.88L47.4095 201.67C47.2595 201.63 47.1195 201.46 46.9995 201.46L46.9895 201.4ZM65.2995 44.63V45.04C65.5695 44.9 65.5695 44.77 65.2995 44.63ZM65.2995 58.62V59.03C65.5695 58.89 65.5695 58.76 65.2995 58.62ZM45.1395 64.79V65.2C45.4095 65.06 45.4095 64.93 45.1395 64.79ZM54.1895 66.44V66.85C54.4595 66.71 54.4595 66.58 54.1895 66.44ZM55.4295 68.09V68.5C55.6995 68.36 55.6995 68.23 55.4295 68.09ZM108.919 70.97V71.38C109.189 71.24 109.189 71.11 108.919 70.97ZM82.7895 89.48H81.9695V90.3H82.7895V89.48ZM83.4095 89.48V89.89C83.6795 89.75 83.6795 89.62 83.4095 89.48ZM43.0795 91.95V92.36C43.3495 92.22 43.3495 92.09 43.0795 91.95ZM92.0495 92.77V93.18C92.3195 93.04 92.3195 92.91 92.0495 92.77ZM85.4695 94.83V95.24C85.7395 95.1 85.7395 94.97 85.4695 94.83ZM91.6395 94.83V95.24C91.9095 95.1 91.9095 94.97 91.6395 94.83ZM87.9295 96.48V96.89C88.1995 96.75 88.1995 96.62 87.9295 96.48ZM113.449 96.89V97.3C113.719 97.16 113.719 97.03 113.449 96.89ZM76.8195 98.54V98.95C77.0895 98.81 77.0895 98.68 76.8195 98.54ZM74.7695 99.77V100.18C75.0395 100.04 75.0395 99.91 74.7695 99.77ZM36.0895 100.18V100.59C36.3595 100.45 36.3595 100.32 36.0895 100.18ZM84.6395 100.59V101C84.9095 100.86 84.9095 100.73 84.6395 100.59ZM22.0995 101.42V101.83C22.3695 101.69 22.3695 101.56 22.0995 101.42ZM82.7895 101.42H81.9695L82.5895 102.24L82.7895 101.42ZM83.4095 101.83V102.24C83.6795 102.1 83.6795 101.97 83.4095 101.83ZM81.7595 103.47V103.88C82.0295 103.74 82.0295 103.61 81.7595 103.47ZM78.8795 103.88V104.29C79.1495 104.15 79.1495 104.02 78.8795 103.88ZM70.4495 105.53V104.71L69.6295 105.33L70.4495 105.53ZM35.6795 105.12V105.53C35.9495 105.39 35.9495 105.26 35.6795 105.12ZM79.7095 105.94V106.35C79.9795 106.21 79.9795 106.08 79.7095 105.94ZM100.889 107.59V106.77H100.489V107.59H100.889ZM106.859 107.18V107.59C107.129 107.45 107.129 107.32 106.859 107.18ZM85.6695 109.23V108.41H85.2695V109.23H85.6695ZM24.5695 108.82V109.23C24.8395 109.09 24.8395 108.96 24.5695 108.82ZM105.629 108.82V109.23C105.899 109.09 105.899 108.96 105.629 108.82ZM77.6495 110.06V110.47C77.9195 110.33 77.9195 110.2 77.6495 110.06ZM74.7595 111.71C74.3495 112 74.9795 112.28 75.1795 112.52C75.5895 112.25 74.9895 111.98 74.7595 111.71ZM86.2895 115.41V115.82C86.5595 115.68 86.5595 115.55 86.2895 115.41ZM104.179 116.23V115.41H103.779V116.23H104.179ZM28.6795 115.82V116.23C28.9495 116.09 28.9495 115.96 28.6795 115.82ZM101.719 117.05L102.939 117.26L102.319 116.64H101.709V117.04L101.719 117.05ZM67.3595 118.7V119.11C67.6295 118.97 67.6295 118.84 67.3595 118.7ZM68.7995 120.76H67.9795V121.16H68.7995V120.76ZM155.409 125.69V126.1C155.679 125.96 155.679 125.83 155.409 125.69ZM97.8095 126.1V126.51C98.0795 126.37 98.0795 126.24 97.8095 126.1ZM77.6495 126.51V126.92C77.9195 126.78 77.9195 126.65 77.6495 126.51ZM14.6895 126.93V127.34C14.9595 127.2 14.9595 127.07 14.6895 126.93ZM15.1095 128.16V128.57C15.3795 128.43 15.3795 128.3 15.1095 128.16ZM18.5995 128.99H17.7795V129.39H18.5995V128.99ZM83.1995 129.4H82.3795V129.8H83.1995V129.4ZM81.3495 129.81V130.22C81.6195 130.08 81.6195 129.95 81.3495 129.81ZM81.7595 131.04V131.45C82.0295 131.31 82.0295 131.18 81.7595 131.04ZM80.1195 131.45V131.86C80.3895 131.72 80.3895 131.59 80.1195 131.45ZM85.0495 132.69V133.1C85.3195 132.96 85.3195 132.83 85.0495 132.69ZM94.9295 133.92V134.33C95.1995 134.19 95.1995 134.06 94.9295 133.92ZM73.1195 134.33V134.74C73.3895 134.6 73.3895 134.47 73.1195 134.33ZM83.8195 134.33V134.74C84.0895 134.6 84.0895 134.47 83.8195 134.33ZM80.5295 138.45V138.86C80.7995 138.72 80.7995 138.59 80.5295 138.45ZM41.0295 141.33V141.74C41.2995 141.6 41.2995 141.47 41.0295 141.33ZM39.3795 145.44V145.85C39.6495 145.71 39.6495 145.58 39.3795 145.44ZM7.69948 145.85V146.26C7.96948 146.12 7.96948 145.99 7.69948 145.85ZM18.3995 146.27L17.7895 146.88L17.9795 147.07C18.2095 146.81 18.8095 146.53 18.3995 146.26V146.27ZM39.3795 146.68V147.09C39.6495 146.95 39.6495 146.82 39.3795 146.68ZM41.4395 148.73V149.14C41.7095 149 41.7095 148.87 41.4395 148.73ZM46.3795 148.73V149.14C46.6495 149 46.6495 148.87 46.3795 148.73ZM46.3795 149.97V150.38C46.6495 150.24 46.6495 150.11 46.3795 149.97ZM36.9095 151.2V151.61C37.1795 151.47 37.1795 151.34 36.9095 151.2ZM44.9295 152.02V151.2H44.5295V152.02H44.9295ZM43.0795 151.61V152.02C43.3495 151.88 43.3495 151.75 43.0795 151.61ZM43.4995 152.85V153.26C43.7695 153.12 43.7695 152.99 43.4995 152.85ZM43.4995 153.67V154.08C43.7695 153.94 43.7695 153.81 43.4995 153.67ZM63.0395 155.73V154.91L62.2195 155.53L63.0395 155.73ZM124.969 158.61V159.02C125.239 158.88 125.239 158.75 124.969 158.61ZM34.0295 159.43V159.84C34.2995 159.7 34.2995 159.57 34.0295 159.43ZM126.819 159.85H125.999V160.67L126.819 159.85ZM37.3195 161.08V161.49C37.5895 161.35 37.5895 161.22 37.3195 161.08ZM14.6895 162.72V163.13C14.9595 162.99 14.9595 162.86 14.6895 162.72ZM7.89948 164.78V163.96H7.49948V164.78H7.89948ZM122.699 169.3L122.499 168.48L121.879 169.3H122.699ZM77.2395 171.78V172.19C77.5095 172.05 77.5095 171.92 77.2395 171.78ZM117.149 172.19V172.6C117.419 172.46 117.419 172.33 117.149 172.19ZM76.8195 177.95V178.36C77.0895 178.22 77.0895 178.09 76.8195 177.95ZM192.449 182.89V183.3C192.719 183.16 192.719 183.03 192.449 182.89ZM193.879 183.3H193.059V183.7H193.879V183.3ZM70.8595 184.95H70.0395V185.35H70.8595V184.95ZM188.329 185.35V185.76C188.599 185.62 188.599 185.49 188.329 185.35ZM189.569 185.77V186.18C189.839 186.04 189.839 185.91 189.569 185.77ZM95.7495 187.41V187.82C96.0195 187.68 96.0195 187.55 95.7495 187.41ZM123.319 191.11V191.52C123.589 191.38 123.589 191.25 123.319 191.11ZM98.6295 191.53V191.94C98.8995 191.8 98.8995 191.67 98.6295 191.53ZM99.4595 192.35V192.76C99.7295 192.62 99.7295 192.49 99.4595 192.35ZM94.5195 193.17V193.58C94.7895 193.44 94.7895 193.31 94.5195 193.17ZM208.079 194.82V195.23C208.349 195.09 208.349 194.96 208.079 194.82ZM173.929 198.93V199.34C174.199 199.2 174.199 199.07 173.929 198.93ZM205.199 198.93V199.34C205.469 199.2 205.469 199.07 205.199 198.93ZM174.749 201.81V202.22C175.019 202.08 175.019 201.95 174.749 201.81ZM117.559 206.34V206.75C117.829 206.61 117.829 206.48 117.559 206.34ZM90.8095 207.98V208.39C91.0795 208.25 91.0795 208.12 90.8095 207.98ZM83.8195 209.22V209.63C84.0895 209.49 84.0895 209.36 83.8195 209.22ZM166.519 209.63V210.04C166.789 209.9 166.789 209.77 166.519 209.63ZM87.9295 210.04V210.45C88.1995 210.31 88.1995 210.18 87.9295 210.04ZM120.439 210.86V211.27C120.709 211.13 120.709 211 120.439 210.86ZM203.559 211.28V211.69C203.829 211.55 203.829 211.42 203.559 211.28ZM95.3395 212.1V212.51C95.6095 212.37 95.6095 212.24 95.3395 212.1ZM84.4295 214.16H83.6095V214.56H84.4295V214.16ZM90.3995 216.21V216.62C90.6695 216.48 90.6695 216.35 90.3995 216.21ZM81.9695 217.04H81.1495V217.86L81.9695 217.04ZM80.5295 217.86V218.27C80.7995 218.13 80.7995 218 80.5295 217.86ZM85.4695 218.68V219.09C85.7395 218.95 85.7395 218.82 85.4695 218.68ZM88.1395 220.33H87.3195V220.73H88.1395V220.33ZM89.9895 221.97V222.38C90.2595 222.24 90.2595 222.11 89.9895 221.97ZM87.1095 222.39V222.8C87.3795 222.66 87.3795 222.53 87.1095 222.39ZM88.7595 222.8V223.21C89.0295 223.07 89.0295 222.94 88.7595 222.8ZM149.239 227.73V228.14C149.509 228 149.509 227.87 149.239 227.73ZM203.559 228.56V228.97C203.829 228.83 203.829 228.7 203.559 228.56ZM140.599 236.79V237.2C140.869 237.06 140.869 236.93 140.599 236.79ZM120.029 237.2V237.61C120.299 237.47 120.299 237.34 120.029 237.2ZM142.449 237.2H141.629V237.6H142.449V237.2ZM144.509 239.67H143.689V240.07H144.509V239.67ZM136.489 242.96V243.37C136.759 243.23 136.759 243.1 136.489 242.96ZM59.1295 244.19V244.6C59.3995 244.46 59.3995 244.33 59.1295 244.19ZM259.099 245.84V246.25C259.369 246.11 259.369 245.98 259.099 245.84ZM54.3995 249.13V248.31H53.9995V249.13H54.3995ZM69.0095 248.31V248.72C69.2795 248.58 69.2795 248.45 69.0095 248.31ZM68.5995 249.13V249.54C68.8695 249.4 68.8695 249.27 68.5995 249.13ZM222.069 250.78V251.19C222.339 251.05 222.339 250.92 222.069 250.78ZM138.539 251.19V251.6C138.809 251.46 138.809 251.33 138.539 251.19ZM266.089 254.9C265.679 255.19 266.309 255.47 266.509 255.71C266.919 255.44 266.319 255.17 266.089 254.9ZM256.629 258.59V259C256.899 258.86 256.899 258.73 256.629 258.59ZM59.1295 259.01V259.42C59.3995 259.28 59.3995 259.15 59.1295 259.01ZM270.409 262.3V261.48H270.009V262.3H270.409ZM277.619 261.89V262.3C277.889 262.16 277.889 262.03 277.619 261.89ZM184.219 263.53V263.94C184.489 263.8 184.489 263.67 184.219 263.53ZM273.919 263.94V264.35C274.189 264.21 274.189 264.08 273.919 263.94ZM281.319 264.36V264.77C281.589 264.63 281.589 264.5 281.319 264.36ZM189.569 265.59V266C189.839 265.86 189.839 265.73 189.569 265.59ZM266.919 266.41V266.82C267.189 266.68 267.189 266.55 266.919 266.41ZM208.899 271.76V272.17C209.169 272.03 209.169 271.9 208.899 271.76ZM205.199 272.17V272.58C205.469 272.44 205.469 272.31 205.199 272.17ZM196.149 275.88V276.29C196.419 276.15 196.419 276.02 196.149 275.88Z" fill="#DFD4C3"/>
</svg>
