<?xml version="1.0" encoding="UTF-8"?>
<svg id="Layer_1" data-name="Layer 1" xmlns="http://www.w3.org/2000/svg" viewBox="0 0 300 300">
  <defs>
    <style>
      .cls-1 {
        fill: #887a66;
      }
    </style>
  </defs>
  <path class="cls-1" d="M148.81,38.98c-.11-.16-.64.06-.62-.26l.71-.17c0-2.21-.14-4.42-.18-6.63-.13-6.58.32-13.82.44-20.22.02-1.02-.4-2.9-.23-3.98.28-1.78,1.41-1.88,2.61-2.72,2.95.35,2.32,4.2,2.32,6.26.05,14.79.52,31.13-1.09,45.98-.24,2.2-1.55,5.93-3.45,2.46l-.53-20.71ZM151.22,9.3v.36c.23-.12.23-.24,0-.36ZM153.54,23.93h-.71v.35h.71v-.35ZM151.58,25.7v.36c.23-.12.23-.24,0-.36ZM151.04,39.26v-.71h-.35v.71h.35ZM151.94,39.62v.36c.23-.12.23-.24,0-.36ZM150.87,39.97v.36c.23-.12.23-.24,0-.36ZM151.94,40.69v.36c.23-.12.23-.24,0-.36ZM149.8,58.16v.36c.23-.12.23-.24,0-.36Z"/>
  <path class="cls-1" d="M211.58,31.88c1.35,1.06.17,4.74-.61,6.04-2.27,3.82-5.04,7.69-7.36,11.47-.18.29-.16.61-.13.93l-.71-.36c-.06,2.49-2.24,4.02-3.52,5.94-.78,1.17-1.62,2.3-2.41,3.48-1.36,2.03-4.42,8.02-5.82,9.34-.43.41-.87.53-1.45.51l.71.53-.74,1.61-.87-.34.19,1.05c-1.34.27-2.81.9-2.44-1.15.1-.57,1.74-4.21,2.12-5.03,1.31-2.83,3.48-5.22,4.26-8.05l.65.17c-.14-1.2,1.28-2.58,1.95-3.81.41-.76,1.25-3.33,1.39-3.45.22-.19.88.02.99-.07s-.29-.7-.15-1.07c.49-1.35,2.48-3.11,3.14-4.27.15-.26-.18-.79.19-1.28s1-.16,1.04-.22c1-1.26.94-4.39,2.91-4.21l-.71-.53c1.31-.45.87-1.17,1.28-1.92.93-1.73,2.04-3.14,3-4.58.24-.35.28-1.06.38-1.15.11-.09,2.32.13,2.72.44ZM209.01,36.76v.36c.23-.12.23-.24,0-.36ZM206.33,37.48h-.71v.35h.71v-.35ZM201.87,47.11v.36c.23-.12.23-.24,0-.36ZM198.66,54.95v.36c.23-.12.23-.24,0-.36ZM190.64,67.8l-1.42.17.88.53.54-.71ZM188.85,70.29v-.71h-.35v.71h.35Z"/>
  <path class="cls-1" d="M56.94,75.21c.11.06,1.18.29,2.19.86,6.72,3.77,12.15,7.77,18.86,11.72,3.62,2.57,7.02,6.08,11,7.84l-.35.69c2.36-.09,2.17,2.98,4.27,2.15v1.06c-2.3.86-2.87.32-4.86-.84-4.46-2.59-9.06-5.31-13.58-7.99s-9.8-5.21-14.44-7.95c-1.63-.96-3.95-3.2-5.42-3.93-1.25-.63-3.35-.48-3.43-2.63-.03-.63.62-2.37,1.18-2.58.33-.12,3.25,0,3.49.1.69.29.96,1.42,1.11,1.51ZM62.59,79.57h-.71s.54.71.54.71l.17-.71ZM61.16,81.35c.24-.45-.57-1.24-.71-1.07-.24.45.57,1.24.71,1.07ZM64.19,81.35v.36c.23-.12.23-.24,0-.36ZM62.77,82.42v.36c.23-.12.23-.24,0-.36ZM76.68,90.26v.36c.23-.12.23-.24,0-.36ZM88.8,97.76v.36c.23-.12.23-.24,0-.36Z"/>
  <path class="cls-1" d="M93.77,35.2c2.58,3.76,5.12,7.88,7.44,11.61.99,1.58,1.8,3.65,2.74,5.03.41.6,2.85,1.74,1.08,2.22.19.61,2.01-.04,1.08,1.44l.7-.19c-.75,1.59,2.07,3.09,2.66,4.29.26.53.13,1.24.4,1.74.35.68,1.24,1.42,1.41,1.83.19.46-.23,1.01-.19,1.05.13.1.84-.24,1.09.23.56,1.04.99,3.35,1.44,4.57.39,1.04,1.35.83.86,2.51-.44,1.52-1.94.12-2.71-.71-.22-.24,0-.69-.09-.81-5.99-8.52-12.52-17.61-18.27-26.81-.95-1.51-3.01-2.62-2.65-5.02l-1.06.36c.34-1.19-.67-1.65-.97-2.41-1.34-3.4,2.27-5.56,4.35-2.57.37.54.37,1.16.69,1.63ZM95.94,43.54v.36c.23-.12.23-.24,0-.36ZM96.29,44.61v.36c.23-.12.23-.24,0-.36ZM97.9,44.61c-.55-.55-1.14,1.01-1.07,1.06.44.36,1.41-.72,1.07-1.06ZM100.04,50.67v-.71h-.35v.71h.35ZM102.36,51.74v.36c.23-.12.23-.24,0-.36Z"/>
  <path class="cls-1" d="M247.98,84.32c1.34,1.2.87,2.42.22,3.84-1.63.44-2.96,1.53-4.47,2.23-1.12.52-2.47.72-3.49,1.15-.65.27-1.3,1.1-1.92,1.31-.57.2-1.2-.17-1.32-.09-.04.02.39.63.03.89-.79.58-4.6,1.71-5.92,2.32-6.34,2.96-15.46,7.99-22.06,8.91-.25.03-.31,1.16-1.31.72-.22-1.4,1.48-1.86,2.35-2.64.17-.15,2.01-2.49,1.93-1.45l.35.88v-1.78c1.55.73,1.32-.59,1.89-.97.64-.43,3-1.66,4-2.24,3.61-2.1,7.53-3.4,11.22-5.38l-.34-.68c.89.06,1.68-.23,2.49-.54,4.26-1.67,8.45-4.5,12.74-6.16.77-.3,2.97-.86,3.59-.31ZM245.21,88.12c-.33-1.01-1.01-.56-1.78-.35v.35s1.78,0,1.78,0ZM241.64,89.19v-.71h-.35v.71h.35ZM242.54,88.84v.36c.23-.12.23-.24,0-.36ZM237.9,90.62v.36c.23-.12.23-.24,0-.36ZM229.69,94.9v.36c.23-.12.23-.24,0-.36ZM231.12,94.9v.36c.23-.12.23-.24,0-.36ZM223.09,95.62h-.71s0,1.07,0,1.07c.52-.12.82-.58.71-1.07ZM218.64,100.25v.36c.23-.12.23-.24,0-.36Z"/>
  <path class="cls-1" d="M68.79,115.84c.03.12.49.07.51.28.02.27-.39.55-.12,1.23,1.13,2.83,3.66.92,5.65,1.53,1.11.34,1.31,1.74.25,2.24-1.43.67-4.98.07-6.42,2.14l.71.35c-1.56,1.99-.61,4.44-.8,6.7-.07.77-.75,1.44-.27,2.4-.38-.05-.89.1-1.21.02-.62-.15-1.66-8.27-2.39-9.44-.92-1.45-2.83-.96-3.8-1.38-.11-.05-.14-.51-.33-.61-.86-.46-1.83.04-1.54-1.25.33-1.46,2.67-.67,4.19-1.16.67-.22,1.66-.92,2.03-1.54.22-.36.76-3.1.8-3.63.1-1.17-.26-2.21-.17-3.19.1-1.2.85-3.69,1.88-1.68.55,1.07.57,5.24,1.05,7ZM68.29,118.8v-.71h-.35v.71h.35ZM64.55,121.3v.36c.23-.12.23-.24,0-.36ZM65.62,121.3v.36c.23-.12.23-.24,0-.36ZM68.47,122.01v.36c.23-.12.23-.24,0-.36ZM65.62,122.37v.36c.23-.12.23-.24,0-.36Z"/>
  <path class="cls-1" d="M136.06,47.1h-1.42s1.07.36,1.07.36c-.18.86-1.02.38-1.69.59-.6.19-1.63.86-2.05.85-.11,0-.29-1.19-1.25-.73.21,1.35-.22,1.14-1.43,1.07,1.09,2.08-.79,3.36-.9,5.32-.04.7.6,1.08.26,2.01-.17.48-1.25,1.3-1.65,1.22-1.46-.3-.39-4.1-.56-4.76-.13-.51-.15-.3-.37-1.45-.13-.7-.69-2.37-1.24-2.72-.36-.23-.84.03-.86,0-.12-.21.09-.84-.06-.98-.24-.24-2.82.05-3.73-.74-2.31-2.01,2.4-1.69,3.5-1.89,3.63-.67,2.31-5.17,2.91-7.79.1-.46.4-1.55,1.09-1.4,1.09.24,1.01,4.17,1.31,5.5.54,2.46,1.73,3.34,4.05,4.16.95.34,2.98-.24,3.02,1.4ZM132.68,46.39v.36c.23-.12.23-.24,0-.36ZM124.47,47.82v.36c.23-.12.23-.24,0-.36Z"/>
  <path class="cls-1" d="M203.47,122.37c.42.3.31,5.14,1.13,5.65.25.16,6.55.51,4.22,2.38-.1.08-1.46.07-2.12.33-2.5,1-2.34,2.07-1.63,4.48.36,1.23,1.66,1,.02,2.48-.87-.49-1.95-1.22-1.27-2.33-1.21.4-.68-1.47-2.11-1.8-.41-.1-3.42,1.94-4.18,2.29-1.73.79-1.1-1.07-.56-2,.34-.57.86-.66,1.13-1.1,2.8-4.56-4.6-2.84-3.37-7.19.85.42,4.96,1.6,5.63,1.44,1.07-.26.66-2.32.7-2.44.01-.03.42-.08.58-.36.23-.41,1.05-2.39,1.82-1.85ZM202.59,123.44v.36c.23-.12.23-.24,0-.36ZM202.05,127.71v-.71h-.35v.71h.35ZM199.91,129.15h-.71v.35h.71v-.35ZM202.76,131.64v-.71h-.35v.71h.35ZM204.73,130.93v.36c.23-.12.23-.24,0-.36ZM199.02,132.71v.36c.23-.12.23-.24,0-.36Z"/>
  <path class="cls-1" d="M226.3,73.86l-.7-.18c.43.72,1.03.19,1.77.33.84.16,4.99,1.12,5,1.81-3.17,2.29-5.66-.69-6.56,4.17-.35,1.91-.4,4.15-.93,6.17-.13.49,0,1.11-.71,1.25l-1.75-10.11c-1.93-.8-4.15-.58-5.74-2.2,1.33-1.34,5.07-.36,5.91-2.09.59-1.23,1.04-6.65,1.58-7,.16-.11.83-.03,1.08.16.37.27.77,6.54,1.05,7.69ZM225.95,77.42c.12-.52-.15-.75-.53-1.06l.19,1.06h.35ZM225.23,78.49v-.71s-.71.54-.71.54l.71.17ZM225.23,78.85h-.71v.35h.71v-.35ZM224.7,79.56v.36c.23-.12.23-.24,0-.36ZM225.23,81.7v-.71h-.35v.71h.35ZM224.34,82.06v.36c.23-.12.23-.24,0-.36Z"/>
  <path class="cls-1" d="M98.58,129.55c.09.09-.06.67.12.91.21.28.96.43.97.65,0,.12-.58.44-.72.72-.18.34-.33,1.09-.42,1.16-1.21,1.02-4.55-.84-2.62-2.79.46-.47,2.25-1.03,2.67-.65Z"/>
  <path class="cls-1" d="M235.5,122.09c1.42.8.6,4.55-1.62,3.6s-.29-4.67,1.62-3.6Z"/>
  <path class="cls-1" d="M91.44,71.76c.07.08.27,2.01.25,2.12-.27,1.58-2.22-.01-1.29,1.76-1.75-.2-2.73-2.53-1.59-3.94.28-.35,2.37-.22,2.63.06Z"/>
  <path class="cls-1" d="M132.14,285.73c-.08.09.18.7-.17.71-.26-.28-.69-.38-.9-.71.35-.02.72.01,1.07,0Z"/>
  <path class="cls-1" d="M219.53,224.73s-.34-.04-.36,0c.05-.02.04-.44.36-.36-.03.12.04.26,0,.36Z"/>
  <path class="cls-1" d="M140.7,275.38l-.36-.36.36.36Z"/>
  <path class="cls-1" d="M139.28,140.91s-.35.04-.35-.18l.35-.18s-.04.34,0,.36Z"/>
  <path class="cls-1" d="M120.01,282.16c-.24.03-.68-.34-1.08-.16-.31.14-.56.77-.88.78-.12,0-1.96-.56-1.79-.97-1.01.61-1.01.8-1.43,1.78l-1.96-2.13-.15.68-1.99-.32,1.07,1.06h-2.49c-.38-.95.72-.58.72-.92,0-.26-.43-.78-.37-.86.47-.73,5.86-.42,6.95-.72l-.17-1.07,1.07.71-.17-.71,1.09-.32c.33.93.88.01,1.41,1.38l-.16-.67,2.5-.17-.38.85,2.14.36.35-.9c-.21-.11-1.05.41-.7-.34.48-1.05,1.99.88,1.42-.36-.36-.78-7.58-3.69-8.91-4.11l1.42-1.07c-2.01,1.17-1.97-.25-2.55-.63-.11-.07-.61.26-.97.08-.93-.46-4.21-2.17-4.82-2.69-.94-.8-.03-1.86-2.35-1.4l.36-1.06c-1.95-.26-5.64-2.44-5-4.64l-.36.71-1.06-.71-.36.71c.16-1.04-1.05-.8-1.38-1.11-.09-.09-.11-2.15-.42-2.45-.04-.04-.66.45-1.05.2-.11-.07-1.54-1.54-1.79-1.81-7.09-7.58-13.92-18.6-17.03-28.29-2.3-7.17-3.86-16.51-3.67-24.87.02-.96.49-1.92.41-2.86-.06-.76-.89-.42-.76-.69,1.33-2.76.71-4.23,1.1-7.1,1.54-11.09,6.98-23.48,13.36-32.65,2.32-3.33,5.99-6.3,7.29-10.37.63-.15.24.62.35.71.27.2,2.01-1.19,2.39-1.55.84-.79,1.85-1.53,2.83-2.51.19-.19.04-.72.34-.95.93-.7,2.22-.22,2.27-.33.12-.25-.17-1,.06-1.37.09-.15,1.42-.49,1.87-.83,6.38-4.87,14.08-8.42,21.53-10.91.87-.29,5.28-.94,5.43-1.18.76-1.21-.73-.95-.97-1.13-.12-.09-1.09-1.95-1.54-2.5-.38-.46-1.96-2.01-2.13-2.33-.61-1.15.31-.49-.88-1.88-3.34-3.89-7.12-8.11-9.93-12.38-.12-.19-.66-.25-.77-.45-.19-.32.27-.93.18-1.06-.12-.17-1.5-.23-1.73-.42-.04-.04.26-.52-.02-.86-.23-.28-.76-.38-.98-.65-1.21-1.48-2-3.28-3.52-4.52l.54-1.96c-.66-.34-.53.93-.9.91-1.62-.08-1.63-1.77-2.15-2.49-.79-1.08-1.84-1.59-2.17-3.12-.47-2.23,1.48-2.91,2.71-4.23,1.53-1.62,3.31-2.92,4.55-4.18.15-.15.87-2.12,1.53-2.93,2.2-2.69,6.03-6.04,8.56-8.56,1.2-1.19,2.84-3.73,4.53-4.03,1.45-.26,2.59.18,3.9.17.92,0,.82-1.11,2.25.46-.47-.63,1.96-.93,2.33-.92,4.97.09,10.43.42,15.33.37.78,0,4.04.26,4.24.2.84-.25-.69-.54,1.25-.22,3.23.54,7.33-.48,10.27-.06.58.08.87.63,1.36.64.26,0,.11-.65.34-.67.7-.06,2.13.42,2.85.48,1.4.11,2.49-.79,3.92.56.13.12,2.08,2.69,2.16,2.85.18.33-.12.75-.08.89.04.15,1.59.62,2.51,1.62,4.03,4.37,6.91,8.53,11.29,12.64,2.2,2.07,3.54,2.74,1.67,6.11-.63,1.13-2.66,2.51-3.23,3.36-.81,1.22.11,2.55-2,2.11l-.18-.36c.57,2.3-.55,1.92-1.48,2.97-2.59,2.94-4.36,6.74-7.25,9.68-.32.33-.56,1.09-.9,1.26s.09-.9-.53-.71c.8,1.63-.38,1.68-1.08,2.67-.63.89-3.09,4.87-3.54,5.3-.34.32-.9.16-1.01.29-.2.24-.31,1.67-1.14,2.55-.3.32-.81.18-.97.34-.28.28-1.76,3.54-1.52,3.81,1.86.65,3.83,1.06,5.69,1.7.87.3,3.02,1.53,3.62,1.68.81.2,1.92-.16,2.03-.1.06.03.28.73.87,1.12s1.8.52,2.6.91c6.31,3.05,12.87,6.57,17.88,11.59.2.2.13.78.45,1.1.56.56,1.63.75,3,2.22,8.12,8.7,11.73,15.39,16.52,26.16.33.75,1.76,2.13,1.54,2.5-.05.09-.9-.89-.71.17,3.34,8.59,5.51,21.5,4.47,30.87-.08.71-.74,1.56-.76,2.31-.02,1.02.87.6.91,1.24-1.63-.83-.74.43-1.78,1.25-.11.29.7.07.73.37.07.74-.88,3.91-1.06,5.02-1.03,6.7-4.59,14.69-8.24,20.73-.51.84-.74,1.99-1.42,2.77l.9-.18c.77,1.25-1.15.53-1.82,1.04-.58.43-.22,1.18-.47,1.55-.36.53-1.29.63-1.71,1.08-.55.59-1.67,2.63-1.18,3.46-.58.15-.17-1.29-1.06-.7-.22.15-.84,1.56-.72,1.95l-1.07-.17.71.88c-.36.86-2.53,2.12-3.1,2.76-.11.13.48,1.51-1.18.63.33,1.93-.4,1.15-.94,1.54-.16.12-1.14.9-1.2.96.04-.03.4-.67.36-.71l-1.07-.36-.35.89c.39.52.56.61,1.06.18-.98.93-1.6,1.57-2.65,2.5-1.1.98-.87,2.74-3.06,2.14l.35,1.07-.9-.34c-.3.25.21.34-.05.71-.75,1.02-3.96,2.81-5.2,3.93-.65.59.16,1.13-1.33-.01.25.89-.52,1.19-1.18,1.65-.06.04-.98.57-1.05.6-1.32.5-2.87-.07-2.06,1.32-1.07-.65-1.89,1.2-2.42,1.41-.67.26-1.66-.02-2,.11-.23.09-1.74,1.26-2.44,1.52-.57.22-1.42.75-1.57.78-.61.13-.97-.95-.84.81-.71-.35-4.72.13-4.99.36-.06.05-.16.99.36.6,1.04-.28,5.28-.19,5.82-.58.21-.15.26-.48.25-.73h.35s.36.71.36.71l.17-.67c1.27,0,3.16-.68,5-.77l-1.06.73c-.56.3.32.53.5.52,1.22-.03,2.9-1.24,3.07-1.23.23.01.73.81.53,1.06-.1.12-.86-.28-.71.35,1.17.22,2.28-.36,3.39-.38.28,0,4.57.6,3.74-.32l-.89-.72c1.06.06,1.06,1.12,1.42,1.79l.89-1.42.02,1.61,1.41.35c-1.69,1.61-2.94,1.46-4.08-.46l-3.25.95-.69-1.02c-.02.36.09,1.27.2,1.51.16.36,1.04.3.69.62-.04.03-.51.11-.83.42-1.21,1.15-1.41,2.65-2.91.66.04.62-.82.64-.89.71.09-.77.03-.79-.71-.71-.11-.24-.06-.66-.35-.89l1.24-.18c-.53-1.72-1.76.47-3.25.7-1.91.3-1.54-.67-1.79-.71-.49-.08-.98.37-1.21.38-.06,0-.34,0-.36,0-.39-.04-.7-.26-1.07-.36-.16.44.34.88.35,1.07-.83-.23-1.37.2-1.25-1.08-1.74.3-3.29.9-4.81,1.79-.39-1.71.71-.57,1.06-1.42l-1.25-.73c-.86-.25-.91,1.97-1.24,1.43-.07-.11.15-.72-.21-.75-.4-.03-1.01.46-1.16.32-.1-.09.04-.71-.22-.64-.25.07-.54.55-1.07.58-1.23.07-2.92-1.14-4.46.31l1.79,1.96c.9-.09-.48-2.04-.36-2.13.66-.14,1,.5,1.58.55,2.41.22,3.69.26,6.08.8,1.3.3,1.34-.66,1.45-.66,2.11.02.67-.09,1.46-.34,1.57-.5,1.58.98,1.2,2.14l.71.35c-1.08.19-2.68-.61-3.03.71l-.9-1.42-1.24.7-.36-1.42-2.46.72-.21.71c1.36-.24.64,1.25,0,.71-.09-.07.07-.64,0-.71-.24-.21-2.14-.62-1.96.36-1.27-2.45-1.24-.16-1.76-.08-1.16.17-2.14-1.37-1.81,1.85h-1.6c-.04-.51-.01-1.15-.59-1.35-.46-.16-1.05,1.06-.86-.78-1.01,1.65-2.38,1.04-2.5-.71-.68.26-.85.96-1.42,1.43.08-1.55-2.24-.77-2.14-2.14-.69-.12-.15.76-.39,1.02-.19.21-1.43-.09-1.74.58l4.28.53c-1.63,1.33-2.69.69-2.81.79-.05.04-.06,1.23-.75.63-.04-.03-.05-.55-.38-.86-.21-.2-.64-.14-.7-.21l-.18.71-.54-.71h.71c-.06-.06-.72-1.51-.89-1.43-.57.28-1.29,2.93-1.96.35l.89-.7c-1.03-.04-3.07.4-3.9.35-.24-.02-.26-.68-.38-.72-1.21-.38-.76.47-.89.72.17.01.66-.65.72-.17l-.72,1.6c1.23.3.28-1.47,1.42-.18-2.15,1.85-4.94.04-7.48,1.25-.19-1.01.25-.58.79-.8,1.74-.71,3.08-.14,4.92-.27-.4-.64.1-.95.36-1.42-.94-.07-2.81-.09-2.32-1.06-1.1,1.65-2.41.38-3.58.51-.54.06-1.41,1.26-1.93.87-.15-.11.23-.83-.38-.67l-.18.71c-1.24-.09-.9-1.79-.19-2.35.24-.19.6.08.69.05.52-.14-.07-.49.02-.55.3-.2,2.16,1.41,2.85.18-.68-1.04-.85.18-1.59.19-.22,0-.12-.65-.41-.73-.78-.2-1.69.19-2.46.16-.14,0-2.55-.86-2.28.36.48,2.22,1.36-.58,2.48.2-.76,2.52-1.18,1.29-1.72,1.5-.05.02-.05.35-.2.48-.22.18-.54.13-.57.16l-1.25-1.06c-.11.15.15,1.02.18,1.06-.45.03-1.16.11-1.53,0-.4-.12-.01-1.2-1.32-.35-.25-2.09.35-2.29,2.13-1.78.19-1.14-.35-.54-.92-.69-1.22-.3-1.82-1.25-3.84-.74-.29.07-.21.72-.41.72-.55,0-.99-.72-1.79-.91-.72-.17-2.83.13-3.38.19.3-.3,1.35.59,1.43,1.07-.66.09-1.05.02-1.42-.54v-.53ZM145.34,75.64c-.39-.39-1.1.32-.71.71s1.1-.32.71-.71ZM173.51,75.64c-.39-.39-1.1.32-.71.71s1.1-.32.71-.71ZM142.13,76h-.71s0,.71,0,.71l.71-.71ZM164.42,76.35v.36c.23-.12.23-.24,0-.36ZM173.34,76.71v.36c.23-.12.23-.24,0-.36ZM159.43,77.43l-.53.53c0,.37.89-.21.53-.53ZM162.28,77.42v.36c.23-.12.23-.24,0-.36ZM132.5,77.78h-.71v.35h.71v-.35ZM156.93,78.14v.36c.23-.12.23-.24,0-.36ZM172.98,78.14v.36c.23-.12.23-.24,0-.36ZM126.08,78.5h-.71v.35h.71v-.35ZM146.76,79.21l-15.69-.72,1.43,15.34c1.32.29,1.38-.94,2.12-1.62,3.4-3.14,6.28-7.05,9.88-9.91l2.26-3.08ZM177.98,78.49v.36c.23-.12.23-.24,0-.36ZM172.44,79.57l-17.12-.71,15.87,16.05c.19-2.53.68-5.15.9-7.69.05-.59-.29-1.18-.24-1.71.17-2,1.24-3.77.59-5.94ZM174.41,78.85v.36c.23-.12.23-.24,0-.36ZM153.35,81.2c-.43-.42-1.44-2.17-2.12-1.99-.1.03-1.37,1.35-1.42,1.44-.29.54-.1,1.19-.21,1.41-.06.1-1.53.04-2.12.73-.14.65.6.22.71.36.63.76-1.6.37-1.71.42-.27.12-1.83,2.44-2.22,2.87-2.62,2.87-5.56,5.46-7.83,8.59-.26.35-.85.06-.72.6l32.46.36c.32-.26-5.2-5.35-5.72-5.87-.37-.38-1.01-1.55-1.26-1.61-.55-.12-1.73,1.73-2.12,0-.59,1.03-.41,1.14-1.6.72-.27-1.23.64-.2.89-.69.16-.32.18-.74.18-1.1.84.2,1.14.77,1.6,1.42l.54-.88c-2.52-2.16-4.96-4.45-7.33-6.75ZM175.84,79.21v.36c.23-.12.23-.24,0-.36ZM128.22,80.28l-2.84,2.31c-.77.36-1.34,2.57-1.44,2.68-.07.07-.89-.5-1.06-.37-.05.04-.1.88-.34,1.18-.33.42-1.67.74-1.03,1.64.11.16.8-.21.65.39l-1.42-.71c-.43.75-1.24,2-1.78,2.59-.87.95-2.98,2.56-3.92,3.68-.16.19-1.38,2.01-1.08,2.29.19.18,1.49-.19,1.98-.16,2.97.21,6.78.08,9.52-.09.67-.04,4.19-.2,4.38-.46-.24-5.1-1.99-9.83-1.62-14.98ZM176.32,81.04s-.7.27-1-.05l-1.37,13.83c.88,1.39,1.79-.07,2.05.09.03.02-.04.51.25.71,1.06.71,6.5.13,8.27.19,1.28.04,2.77.07,3.98.52.46-.58-1.58-2.17-1.9-2.59-.4-.54-.88-1.96-.96-2.04-.9-.92-.17,1.68-1.06.71-.11-.12.31-.69.17-1.08-.08-.2-2.47-2.85-2.83-3.22-.28-.29-1.84-1.83-1.96-1.9-.31-.19-1.32.06-1.64-.55-.13-.25.24-.95.12-1.53-.23-1.1-1.22-1.3-1.73-1.86-.34-.38-.25-1.04-.39-1.22ZM173.7,81.35v.36c.23-.12.23-.24,0-.36ZM179.4,82.06v.36c.23-.12.23-.24,0-.36ZM180.47,82.06v.36c.23-.12.23-.24,0-.36ZM181.54,82.42v.36c.23-.12.23-.24,0-.36ZM145.52,83.13v.36c.23-.12.23-.24,0-.36ZM182.26,83.84v.36c.23-.12.23-.24,0-.36ZM182.08,84.56h-.71s0,.71,0,.71l.71-.71ZM144.27,85.27h-.71s0,.71,0,.71l.71-.71ZM141.77,86.7v-.71h-.35v.71h.35ZM118.94,87.06h-.71s0,.71,0,.71l.71-.71ZM184.4,88.48v.36c.23-.12.23-.24,0-.36ZM187.43,89.91h-.71v.35h.71v-.35ZM114.49,90.63l-.53.53c0,.37.89-.21.53-.53ZM113.59,91.7h-.71v.35h.71v-.35ZM115.02,91.7h-.71v.35h.71v-.35ZM172.27,91.69v.36c.23-.12.23-.24,0-.36ZM188.68,91.69v.36c.23-.12.23-.24,0-.36ZM172.8,93.12v-.71s-.71.54-.71.54l.71.17ZM188.68,94.19v.36c.23-.12.23-.24,0-.36ZM112.17,94.55c-.7-.59-1.33,1.35-.53,1.78l.53-1.78ZM109.14,95.26v.36c.23-.12.23-.24,0-.36ZM187.61,96.69v.36c.23-.12.23-.24,0-.36ZM119.48,97.04v.36c.23-.12.23-.24,0-.36ZM190.46,97.04v.36c.23-.12.23-.24,0-.36ZM117.34,97.4v.36c.23-.12.23-.24,0-.36ZM181.72,97.4l-.71.17.71.54v-.71ZM164.24,99.18l.18-1.07-.4.75-30.08.17,17.29,42.6,1.56-2.36c1.01-3.62,2.91-6.7,3.96-10.31.29-.98-1.28.28-.7-.7.37-.64.88-.48,1.4-.2l12.86-29.06-1.07.18-.19-1.08c-.75.47-2.16.46-2.77.73-.39.18-.24.67-.27.69-.84.57-.4-1.3-1.78-.35ZM130.69,98.85l-16.56-.03c-2.03.67-.36,1.74-.32,1.87,1.17,3.42,4.64,6.16,6.81,8.96.58.75,1.34,2.38,2.09,3.06.47.43,1.28.47,1.64.89.4.47-.01.94.03,1.11.04.14.55-.1.82.14,1.51,1.32.86,2.17,1.2,2.64.23.32.89.24,1.27.6,1.37,1.27,2.09,3.13,3.26,4.61,2.73,3.47,6.54,7.23,9.4,10.2l6.8,6.94c.55-1.59-.59-1.69-.81-2.23-.45-1.09-.87-3.21-1.36-4.01-.32-.52-1.03-.2-1.02-.34.11-3.07-2.82-8.43-4.16-11.57-2.17-5.09-4.48-10.3-6.73-15.39l-2.35-7.45ZM170.84,98.47v.36c.23-.12.23-.24,0-.36ZM188.14,99.9c-.2.26-1.21-.95-2.02-.96-.85,0-2.25.49-2.97.96l.35-1.42h-3.92s.18,1.06.18,1.06c-1.42-.98-3.38-1.02-5.07-.96-.4.01-.76.49-1,.48-.28-.01-.97-1.04-1.24-.03-.18.68.47,1.57.38,2.09-.05.3-1.26,0-.38,1.29-1.75-.29-.84.72-1.08,1.89-.05.23-.69.39-.95.89-.77,1.51-1.18,3.18-2.25,4.54l1.06.88c-2.57-.76-1.22,3.85-3.21,4.29v.35c.82-.26.93.27,1.07.36-1.09.37-1.63.91-2.18,1.96-.07.13-.74,2.22-.67,2.32.7.95,2.14-.7,3.21-.71-.08,1.05.23.45.9,1.06-.07-.92-.08-1.07-.9-1.06.04-.5.34-3.02.29-3.17-.01-.04-.45-.27-.65-.4.24-.08.81.17,1.02-.06.12-.13,0-.64.18-.86.81-1,1.69-.54.94-2.28.67,0,1,1.34,1.1,1.4.1.06.73-.3,1.03-.33-.19-.42-.6-.34-.64-.41-.09-.19.31-.62.28-.66-.17-.26-2.18.05-1.78-1.07,1.38-.27,1.69,1,1.78,1.07.26.18,1.08.6,1.42.72-.27,1.06-.91.33-1.07.35.99,2.17-.3.97-.55,1.39-.35.61-.12,1.49-.17,2.17-.96-.26.06-1.26-1.06-1.08v-.35c.82.34,1.16-1.27.36-1.43l-1.78,3.56,1.42-1.07-.35,1.78c1.16-.1,2.8-.77,3.38-1.78l1.07,1.42c.47-.6,1.29-1.25,1.74-1.78.22-.25.36-.18.22-.71l-1.79-.36.36-1.07c-1.15,1.45-2.4-.65-.35-.36l-.36-1.07c.68.74,2.05-.44,2.13-.36s.19,1.72,1.07,1.96c.09.17-1.39.2-.71.89.88.89.82-2.48,1.97-1.08-.07-.84-.1-1.61.56-2.27.55-.54,1.07-.47,1.3-.67.34-.29.24-.96.53-1.25s.98-.23,1.28-.51c.35-.33.02-1.52.78-1.88-.31-.46-1.43,0-1.78-.18-.05-.02.48-.8-.18-1.07-.4-.15.21,1.41-.71,1.06-1.8-.68,1.82-2.95,2.31-2.49l-.71,1.78h1.77c-.33-1.8.94-.77,1.44-1.07.03-.02-.31-.43-.14-.71.51-.84,1.66-1.95,2.41-3.09.16-.25.7.17.58-.65h-.71c.26-.57,1.14-.38,1.37-.6.19-.19,0-.6.05-.65s1.47.05.71-.71-.67.65-.71.71ZM109.49,100.97v.36c.23-.12.23-.24,0-.36ZM190.99,101.68v-.71h-.35v.71h.35ZM189.56,102.03v-.71h-.35v.71h.35ZM110.74,103.1v-.71h-.35v.71h.35ZM190.28,103.82l-.71-.71v.71s.71,0,.71,0ZM111.99,103.82v.36c.23-.12.23-.24,0-.36ZM188.32,104.18v.36c.23-.12.23-.24,0-.36ZM113.06,104.53v.36c.23-.12.23-.24,0-.36ZM115.56,105.6v.36c.23-.12.23-.24,0-.36ZM186.54,105.96v.36c.23-.12.23-.24,0-.36ZM115.73,106.67h-.71s.54.71.54.71l.17-.71ZM184.22,108.82h-.71s0,.71,0,.71l.71-.71ZM182.61,109.17v.36c.23-.12.23-.24,0-.36ZM182.61,110.24v.36c.23-.12.23-.24,0-.36ZM119.09,111.15c-.14-.16-.19-.35-.15-.55h-.35c.15.79.17,1.68,1.07,1.42.3-.84-.29-.57-.57-.87ZM118.77,112.38v.36c.23-.12.23-.24,0-.36ZM120.37,112.74h-.71v.35h.71v-.35ZM180.83,112.74v.36c.23-.12.23-.24,0-.36ZM175.3,114.52v-.71h-.35v.71h.35ZM180.47,114.52v.36c.23-.12.23-.24,0-.36ZM138.56,115.23h-.71s.54.71.54.71l.17-.71ZM123.76,116.66v.36c.23-.12.23-.24,0-.36ZM178.69,116.66v.36c.23-.12.23-.24,0-.36ZM123.22,118.08v-.71h-.35v.71h.35ZM124.47,117.37v.36c.23-.12.23-.24,0-.36ZM179.05,117.37v.36c.23-.12.23-.24,0-.36ZM125.19,118.09v.36c.23-.12.23-.24,0-.36ZM177.62,118.09v.36c.23-.12.23-.24,0-.36ZM125.9,118.44v.36c.23-.12.23-.24,0-.36ZM125.19,118.8v.36c.23-.12.23-.24,0-.36ZM171.29,118.92c-.31-.18-1.49-.22-1.69-.11-.03.02.26.42.12.7-.13.25-1.99,2.51-.65,2.5.61,0,.04-1.09.36-1.07l1.95,1.07,1.44-2.67c-1.73.37-1.22-.24-1.52-.42ZM125.01,119.87h-.71v.35h.71v-.35ZM125.72,121.29v-1.07h-.35v1.07h.35ZM164.24,120.94v-.71h-.35v.71h.35ZM124.83,120.58v.36c.23-.12.23-.24,0-.36ZM127.15,120.59h-.71v.35h.71v-.35ZM165.31,121.29v-.71h-.35v.71h.35ZM168.16,120.59h-.71v.35h.71v-.35ZM175.84,120.94v.36c.23-.12.23-.24,0-.36ZM164.24,121.3c-2.01.2-1.69,2.44-2.25,3.73-.09.22-.46.24-.55.48-.45,1.17-.63,2.57-1.47,3.47.93.03,1.01,1.81,1.61,1.96,1.15.27,1.94-4.02-.18-3.74,1.2-.71,1.78-1.2,2.68-2.32,2.2,3.94,1.65.94,2.49,0,.41-.46,1.14-.28,1.63-.54.29-.15.11-1.2.69-1.42-.81-.66-.54.38-1.21.61-1.72.6-3.23-.42-3.43-2.21ZM127.5,121.66h-.71v.35h.71v-.35ZM166.92,121.65v.36c.23-.12.23-.24,0-.36ZM175.48,121.65v.36c.23-.12.23-.24,0-.36ZM167.81,122.72v-.71h-.35v.71h.35ZM126.61,122.72v.36c.23-.12.23-.24,0-.36ZM170.3,123.43v-.71h-.35v.71h.35ZM169.77,123.79v.36c.23-.12.23-.24,0-.36ZM164.06,125.93v.36c.23-.12.23-.24,0-.36ZM171.2,126.29v.36c.23-.12.23-.24,0-.36ZM132.32,127.36v.36c.23-.12.23-.24,0-.36ZM159.96,127.36l-.71.17.71.54v-.71ZM158.89,127.72h-.71v1.42h.71s0-1.42,0-1.42ZM163.71,127.72v.36c.23-.12.23-.24,0-.36ZM132.5,129.14c.23-.44-.56-1.24-.71-1.07l-.36,1.07h1.07ZM135,128.08l-.19,1.06c.38-.32.65-.54.53-1.06h-.35ZM133.92,129.14l-.71-.71v.71s.71,0,.71,0ZM144.27,129.14v-.71h-.35v.71h.35ZM167.45,128.43h-.71v.35h.71v-.35ZM169.77,128.43v.36c.23-.12.23-.24,0-.36ZM144.8,128.79v.36c.23-.12.23-.24,0-.36ZM164.6,129.86l-1.06-.19c.32.38.54.65,1.06.53v-.35ZM166.92,129.5v.36c.23-.12.23-.24,0-.36ZM163.17,130.93v-.71h-.35v.71h.35ZM168.52,130.93v-.71h-.35v.71h.35ZM166.2,130.57v.36c.23-.12.23-.24,0-.36ZM159.96,132.71c-.43-2.56-2.06.88-2.13,1.98-.03.49.4,1.18.35,1.23-.06.06-.85-.11-1.25.36-.34.39-.52,1.58-.53,2.15,1.34-.56,1.74-2.51,2.32-3.2.71-.84,2.47-.39,1.25-1.99l-1.43.2,1.43-.71ZM134.1,132v.36c.23-.12.23-.24,0-.36ZM138.38,132v.36c.23-.12.23-.24,0-.36ZM137.31,132.71v.36c.23-.12.23-.24,0-.36ZM134.46,134.49v.36c.23-.12.23-.24,0-.36ZM133.75,135.21v.36c.23-.12.23-.24,0-.36ZM159.43,135.21v.36c.23-.12.23-.24,0-.36ZM164.06,135.56v.36c.23-.12.23-.24,0-.36ZM165.49,135.92v.36c.23-.12.23-.24,0-.36ZM174.77,135.92v.36c.23-.12.23-.24,0-.36ZM136.24,136.63v.36c.23-.12.23-.24,0-.36ZM142.31,136.63v.36c.23-.12.23-.24,0-.36ZM169.95,136.64h-.71v.35h.71v-.35ZM158.71,136.99v.36c.23-.12.23-.24,0-.36ZM166.56,136.99v.36c.23-.12.23-.24,0-.36ZM214.54,175.16c-.28-.21-.43-.82-1.07-.72l1.06-1.24c-1.01-.35-2.87-.07-2.84-1.6h1.07s-1.4-.03-1.4-.03l-.38-.87.7-.34c-.75-.69-1.01-1.69-1.07-2.68l-.35.71c-1.95.16.18-4.48-2.49-2.5.02-.55-.66-2.97-.92-3.23-.35-.35-.89-.23-1.14-.42-.17-.13-.29-1.58-1-2.37-.93-1.02-2.15-1.07-2.23-1.18-.16-.2-.08-.82-.38-1.21-.59-.75-1.48,0-.74-1.58-2.04.83-1.64-2.5-3.55-2.31l.35-.9-1.42.35c-.16-.61.66-.18.73-.53.1-.58-.1-.91-.56-1.24l-.34.7c-1.75-.3-.93-1.02-1.8-2.13-.22.43.57,1.77-.53,1.06-.03-.02.05-.45-.27-.7-4.6-3.59-10.48-6.24-15-8.18-1.3-.56-3.98-.93-4.84-1.45-.43-.26-.12-.89-.27-1.03-.22-.21-1.89.13-2.46-.41-.07,1.69,1.43,1.05,1.71,1.17.06.03.08.55.51.72.64.26,3.37.83,3.47.98.04.06-.67,1.02.2,1.41.66.29.5-.72.71-.73.93-.04,1.87.85,1.25,1.8l.71-.71c1.14,2.13-1.64,1.83-1.78,3.56,2.34-.3,1.31,1,1.42,1.07.86.57,1.17-.75,1.25-.71.51.23.95,1.04,1.97.72l-.36,1.07h1.08c-1.4,3.26-3,.96-5.1-.08-.45-.22-1.06-.14-1.4-.31-.85-.41-1.75-1.97-3.49-1.39-.26,2.76,1.56,1.64,2.63,1.87.51.11,1.09,1.25,2.01.99l-.35.69c.26.34,3.29.75,3.56.95,3.18,2.24,5.33,4.58,9.11,5.99.48.18.51,1.3,1.59.93l-.71,1.96,1.77-.19v1.43c.26-.07.56-.29.83-.23,1.45.29,3.74,4.86,5.06,5.94.98.8,1.97-.38,1.61,1.79l.7-.19-.35.9,1.07-.35c-.66,1.3.85,1.56.72,2.86,1.71-.77.67-.11,1.03.54.15.27,1.32,1.98,1.43,2.08.46.39,1.03.18,1.1.24.15.13-.57.64-.66.97-.32,1.18,1.14,1.86,1.53,2.62.99,1.94,1.57,4.11,2.23,5.97.26.74.96,2.94,1.19,3.36.43.8,1.92.83,1.64,3.13-.35,2.98.14,3.94.51,6.97.08.69-.25,1.34-.17,1.98.17,1.29,2.39,1.85.52,2.63l1.43.54c-.09.79-1.12.54-1.39.76-.1.08.32,2.39.41,2.64s.65.09.64.36c0,.3-.86,1.92-.98,2.57-.45,2.39-.49,5.01-.77,7.4-.03.27.39.87.32.9-.18.08-.71-.14-.98.08-1.3,1.09.12,2.97-.31,4.24-.28.83-1,1.48-1.32,2.53-.61,1.96-.95,5.72-2.02,7.15-.24.31-1.06.59-1.06.8,0,.14.68.42.53.89-.45,1.33-2.54,2.93-3.17,4.02-.71,1.23-.62,3.22-2.37,3.49l.71.89c-1.42-.72-1.77,1.49-2.23,1.88-.26.23-.88,0-.97.08-.05.04.35.61.29.86-.11.44-.76.41-.92.65-.22.36-.37,1.97-1.34,2.41-.81.37-.24-1.66-1.43,0-.54.76,1.05-.06.89.71-.54.1-3.01,1.66-3.13,1.88-.2.37.06,1.03-.14,1.27-.11.14-2.73,1.22-3.06,1.59-.44.49-.14,1.81-2.23.97.62,1.52.1.81-.53,1.42-.38.36-1.36,1.52-1.62,1.64-.48.22-.76-.8-1.43-.56l.36,1.06c-1.76-.08-1.19,2.11-3.57,1.07.46,2.51-.16,1.3-1.34,1.65-.95.28-1.65,1.05-2.51,1.48-.97.48-1.96-.32-1.86,1.5-2.11-1.03-.92-.45-1.66,0-.49.31-2.54.59-2.62.71l.36.71c-1.12-.42-1.78.09-2.73.25-.34.06-.76-.26-.97-.24-.3.03-.4,1.03-1.27,1.26-.37.1-1.55-.77-2.16-.55l.71,1.42c-.96-.7-2.56.06-3.01-.03-.54-.11-.31-1.14-.91-1.04.98,1.89-1.11.23-.72,2.14l-.89-1.07c-.32,1.34-1.36-.14-2.31,1.07v-1.08s-1.26.02-1.26.02l.89.71c.08.77-1.61.08-1.71-.09-.19-.29.11-1.06-.24-.99-.33,1.3-.69.36-1.07.4-.63.07.34,2.14-1.43.32.35,1.34-1.52,1.02-1.42-.37l-.18,1.08c-.17.2-4.28-.91-5.13-.7-.42.1.03.85-.57.7v-1.42c-.66-.14-.23.6-.36.71-.63.54-.71-.48-.85-.58-.3-.21-1.47-.98-1.64-.84l.18,1.42c-1.1-1.16-3.98-.14-5.39-.84-.43-.21-.42-.8-.55-.89-.11-.07-.7.32-1.11.23-.67-.15-2.43-1.25-2.6-1.25-.32,0-.65.74-.88.6-.03-.02.13-.51-.27-.69-.69-.32-1.9-.03-2.49-.29-1.79-.76-3.79-1.6-5.7-2.51-1.3-.62-4-2.69-5.09-3.08-.41-.15-.93.26-1.08.16.74-.99-.5-.73-1.07-1.6l.71-.53c-2.21.7-1.4.04-2.15-.52-.58-.43-1.13-.88-1.67-1.28-.69-.51-1.68.03-.84-1.25-.95.19-.88-.64-1.11-.79-.28-.18-2.91.42-2.08-2.23-1.67.82-2.9-.87-2.67-2.49-.69,1.52-2.83-1.11-2.68-1.97l1.07-.36c-.66-1.07-.98.28-1.57.17-.43-.09-1.04-1.34-1.46-1.77-2.34-2.42-5.29-6.73-6.52-9.69-.1-.25.43-.86.28-1-.05-.05-.84.11-1.25-.36-.33-.38-.66-1.93-.93-2.57-.58-1.36-.43-1.12-.76-2.62-.04-.18-.65-.13-.65-.37,0-.32.4-.75.38-1.02s-.74-.26-1.01-.8c-.33-.67-.35-2.03-.68-2.9-2.69-7.16-3.49-16.47-2.52-24.07.27-2.11.18-2.82.29-4.7.05-.92,1.84-4.25,2.29-5.56.65-1.9.97-3.96,1.64-5.83l-.74-.22v-.35c1.94.88,2.7-3.37,3.5-4.88,1.57-2.93,3.29-5.04,5.22-7.62,1.38-1.84,2.69-3.54,4.34-5.46,6.62-7.69,17.14-14.37,26.94-17.11,1-.28,5.77-.57,6-.76.21-.18.9-1.84,1.41-2.16-.44-.71-1.03-.16-1.66-.43-.83-.35-1.52-1.48-2.27-2.05-1.13-.86-1.8.02-1.05-1.97h-1.07s.18,1.06.18,1.06l-1.6-.34c.2,1.97-.6.57-1.57.68-.24.03-.18.68-.46.74-.53.12-1.14-.11-1.67,0-.29.06-.34,1.42-2.38,0-.27-.39,2.52-1.79,2.68-1.77.43.04.29,1.14.88,1.06v-1.78s1.06.19,1.06.19c-.78-1.52-.1-.63.56-.58.13,0,.71-1.32,2.3-.67l-.71,1.07c1.8.28,1.48-1.58,1.43-2.85-2.35,1.23-5.03,1.23-7.5,1.96-.53.15-2.04.77-1.42,1.25-.24.17-2.51-1.71-2.5,1.07-.48.09-.79-1.75-1.42-1.07-.67.73,1.44.73.71,1.42-.08.07-.76-.41-1.23-.37-.54.04-1.12.85-1.26.73-.13-.12.29-.85-.35-.71-.13,1-1.39,1-1.08,2.14-1.07-.74-.36.25-1.06.35.61-1.12-2.01-.39-2.08-.28-.16.23-.05.77-.41,1.16-1.19,1.3-3.03.48-3.16.57-.1.07-.23.76-.56,1.06-1.36,1.28-2.98,2.37-4.45,3.41-.62.44.01,1.17-1.46.5l.36,1.07c-.92-.23-1.84.48-2.39,1.16-.29.35-.81,1.14-1.42,1.83-.44.5.41,1.31-1.9.94l.19.61c-5.46,4.75-10.23,12.58-14.01,19.62-.3.57-.29,1.46-.62,1.91-.26.36-.86-.07-.89-.03-.09.14.25.71.16,1.1-1.26,5.21-3.57,9.49-4.35,14.86-.26,1.78-.45,3.63-.45,5.44l-.7-.19c1.19,1.49-.28,3.67-.19,5.73.07,1.53.07,3.1.15,4.62.13,2.7,1.08,6.24.98,8.73-.03.71-.27.88-.59,1.44,2.24.3,1.08.71,1.2,1.91.1,1.06.95,5.38,1.52,6.21.38.56.82.41.84.45.12.25-.59.55-.6.87,0,.13.8,2.08.95,2.44.31.72,1.08,2.12,1.44,3,.64,1.57,4.51,9.96,5.05,10.38.23.17.94.04,1.21.39.15.19-.3.86-.05,1.43.1.22,2.56,3.18,3.04,3.79.25.32.92.42,1.01.58.26.47-.11,1.27.13,1.66.13.22,3.7,2.2,4.22,2.74.39.4.39,1.08.71,1.43.65.69,3.02,2.71,3.4,3.38.25.45-.25.77,0,1.06l.72-.71c-.06,1.36,1.39.26,1.57.38.19.12.6,1.75.84,2.02.93,1.04,3.32,1.64,4.33,2.27.87.54,2.59,2.23,3.82,2.94.45.26,1.78,1.17,2,1.23.57.17,1.68-.06,1.86.12.13.12-.17.81.25,1.04.39.21,2.4.92,3.06,1.17,1.11.42.64.17,1.73.73,1.7.87,4.61,1.98,6.4,1.29l-.18,1.06c1.37-.83,3.46,1.06,4.74,1.35.99.22,3.44-.22,4.5.13.45.15.89,2.22,1.83.29.26-.53-.2-.88-.19-1.05,0-.04.56-.52.36-.71-.28-.26-.67.35-.71.35-.74.03-1.13-.14-1.61-.71v.71c-1.14-.71-2.02-.88-3.38-.72l.71-.71c-2.3,1.28-1.36-.24-1.48-.32-.42-.25-2.08-.2-.83-1.82,1.24,1.44.67.1,1.12,0,.63-.16,1.9.32,2.26-.53.56-1.3-1.36-.35-1.07-1.96.92.13,2.02.61,2.96.37.45-.11.32-1.22.95-.91-.6,1.29.52,1.53-.8,2.55-.09.07-.35-.17-.53-.1-.15.06.06,1.01-1.51.23-.35.91,1.07.92,1.07,1.25,0,1.03-1.37.48-1.07,1.6h3.92c-.8-.97.59-1.64.6-2.32,0-.49-.79-.95-.6-1.6,1.06.25,5.08-.66,4.02.71-.04.05-.29-.04-.36.06-.06.08.51,1.26-.63,1.73l-.53-.71c.16,1.29-.51.21-.99.43-.07.03-.09.4-.24.49-.28.17-.71.13-.81.23-.65.66.38,2.52-.11,3.48,2.19.03,4.23.82,6.42.35l-.36-1.07,1.42.89-1.42-1.26.7-.51c.68.32-.02-.55-.18-.55-.54,0-.99.74-1.59.72.22.62,1.29.32.53,1.43-1.39-1.13-3.79-.99-4.1-2.86l1.07.35-.36-.71,2.11-.32.38.67-.35-3.2c1.57.75,1.48-.38,1.62-.39.79-.06,2.41,1.63,2.31.04.65.95,1.76.19,2.13.35.14.06-.17,3.83-.8,1.69-.13-.43.06-.67-.09-.97l-.8.53.27.53c-1.78-.48-2.09-.09-3.57.72.71,1.07,2.45.81,2.31,2.48l.89-.35c.14-.65-.6-.22-.71-.36-.4-.48,1.65-1.15,1.61.72l.18-2.14,1.06.71v-1.6c2.05.36-.68-1.18-.36-1.61.08-.11,2.57-.7,2.71-.71.92-.07,1.61.33,2.39.28.84-.05,1.63-1.2,2.04.07l-.71.18c1.08,1.2.57-.03.71-.18.05-.05,1.29-.43,1.43-.35l.17.71c.94-2.43,2.79-.75,4.31-1.35.71-.28.64-.93,1.09-1.08.86-.29,2.79-.17,3.84-.4l.22-1.09,1.06,1.07c-.49-2.43,3.37-1.3,3.54-1.44.11-.09.14-1.1.76-1.57.68-.52,2-.57,2.84-.55l-.18.7c2.5-1.64,1.2,1.84.54,3.22,1.14-.72.32.22,1.06.35-.25-1.57.07-1.72,1.25-2.49l.89,1.07c.16-1.59-.97-1.21-1.36-1.47-.1-.07-.1-2.08-.43-2.45.93-.09,2.68-.44,3.46-.85.55-.29,1.86-2.42,2.58-2.59.89-.21,2.06.35,2.66-.11.31-.24.14-.71.33-.97.93-1.3.36-.53.7-1.49.53-1.51,3.78-2.36,4.1-2.67.14-.14.78-1.88.86-1.95.3-.22.93,0,1.36-.27.28-.17.28-.74.42-.84.19-.14,1.47.66,1.9-.39,1.15,1.16-.35-.12-.16.86.52,2.74,1.2.52,1.88-.03,1.18-.95,2.9-1.31,2.73-3.33h-2.49s.36,1.06.36,1.06c-1.28.64-4.41,2.15-2.32-.7.74-1,.41.49.7.35.61-.3.16-.9.26-1.01.26-.27,1.21-.31,1.53-.78l.34.72,2.15-1.79-.36,1.42c.98-.94,2.88-1.97,2.68-3.38,1.7.63-.03-1.43-.35-1.25-.12.07-1.21,2.3-1.52,2.42-1.29.49-1.46-1-1.01-1.91.57-1.15,1.95-1.29,1.81-2.66,2.56,3.18,3.42,1.59,3.92-1.78.7-.12.18.88.36,1.07.15.15,1.59.08,1.74-.56.06-.61-.66-1.73-.65-2.13,0-.12,1.45-.77,1.04-1.94l1.42.71-.35-2.5c1.09-.15,2.17,1.84,1.33,2.43-.29.21-.87,0-.98.07-.79.54-.47,1.67-.54,2.2-.08.62-1.43.78-.89,2.09l-.71-.36c.33,1.75-.35,1.19-1.43,1.97l1.07-.18-.71,2.49,2.14-.72c-.71-1.84.39-1.41.64-1.84.41-.71-.17-.63.93-2.07.21-.28-.7-.96.93-.72l-1.07-1.06h2.14c-.12-1.19-1.02-.38-.35-2.14l.71.71c-.86-1.75.11-1.6.25-1.85.28-.55.8-3.92.9-4.12.08-.17,2.07-2.63,2.08-2.81.09-1.16.14-1.35.3-2.43.04-.28-.35-.8-.29-.88.09-.11.55.05.69-.02l.18.35c.21.04.16-.34.18-.35.22-.2.37-.07,0-.36.2-.89.31-.96-.34-1.77,1.6,0,.05-.99.06-1.27s.64-.54.77-.88c.42-1.08,1.09-3.63,1.28-4.53.27-1.26-.56-2.93.72-3.86-1.28-.2-.13-.91-.38-1.21-.13-.16-.66.15-.69-.21-.04-.33.62,0,.73-.41.47-1.82-.98-5,.36-6.73l-.72-.18c-.08-.08,1.58-1.6-.37-1.25l-.71,1.61-.71-.71c.37,1.14,1.02,1.5-.18,2.49-1.6-1.51.16-3.57-.89-5.34l2.14.36-1.07,1.06c1.63.83,2.56-.57,1.78-2.13l.71.71.36-1.06c-1.86.17-.68-.36-.82-1.2-.17-1.06-.22-3.38-.27-3.56-.07-.27-.63-.19-.89-.92-.47-1.28-.19-3.01-.63-4.11-.11-.29-.79-.29-.9-1.17-.08-.56.24-1.17.2-1.37-.08-.4-.77-.38-.9-.56-.08-.12-.05-2.47-.17-2.87-.28-.87-1.13-1.73-1.31-2.62-.14-.69.14-1.59,0-2.08-.1-.36-.9-.15-1.27-.57-.32-.36-.68-1.9-.9-2.5.3.2.89.66,1.07.18,0-.28-.79-.32-1.07-.54ZM135.71,137.35h-.71s0,1.06,0,1.06h.35s.36-1.06.36-1.06ZM166.02,138.77v-1.07h-.35v1.07h.35ZM167.81,138.41l-.71-.71v.71s.71,0,.71,0ZM136.77,138.77v-.71h-.35v.71h.35ZM164.95,138.77v-.71h-.35v.71h.35ZM174.94,138.06h-.71v.35h.71v-.35ZM142.66,138.42v.36c.23-.12.23-.24,0-.36ZM155.86,138.42v.36c.23-.12.23-.24,0-.36ZM160.67,139.13v-.71h-.35v.71h.35ZM168.88,138.42h-.71s0,.71,0,.71l.71-.71ZM135,139.84l.7-.53-.53-.53-.17,1.07ZM167.81,139.84c-.21-1.26-1.25-1.52-1.08-.54.05.28.55.3.72.54-.55.23-.8,1.42-1.07,2.14-.2.53-.42,1.06.54,1.43.33-1.11.65-.72,1.6-.35l.35-1.25c-.58.08-1.21.1-1.78.18,1.43-.65,1.11-.96,1.78-2.32-.25-.15-.73.1-1.06.18ZM119.84,139.13v.36c.23-.12.23-.24,0-.36ZM138.2,140.2c.57-.57-1.12-1.41-1.78-1.06-.27.19,1.47,1.37,1.78,1.06ZM142.84,140.91l.19-1.78c-.76.62-1.42,1.26-.19,1.78ZM158.53,139.84v-.71h-.35v.71h.35ZM164.4,139.68c-.19-.23-.18-.92-.52-.36,1.15,1.68-1.63.46-1.42,1.96l2.49-.72c.25-.82-.34-.61-.55-.87ZM170.31,139.49h-.71s0,.71,0,.71l.71-.71ZM132.14,140.56v-.71h-.35v.71h.35ZM139.28,140.56c-.09-.09.2-.74-.18-.71l-1.43,1.42-.88-1.06c-.68,1.5.08.83.49,1.45.44.67.48,1.88,1.65,1.76l.36-.54-.36-.88h1.43c-.13-.5-.71-.7-1.07-1.07.15.05.74.11.72-.18.02-.38-.62-.08-.72-.18ZM144.09,139.84v.36c.23-.12.23-.24,0-.36ZM160.5,139.84v.36c.23-.12.23-.24,0-.36ZM162.28,139.84v.36c.23-.12.23-.24,0-.36ZM166.03,140.55l-.71-.71v.71s.71,0,.71,0ZM146.76,140.2c-.07-.06-.49.02-.71,0l.71,1.06-1.07.36,1.96.35c-.16-.31-.82-1.71-.9-1.77ZM155.33,140.2c-.45-.24-1.24.57-1.07.71.45.24,1.24-.57,1.07-.71ZM170.84,140.2v.36c.23-.12.23-.24,0-.36ZM180.12,140.2v.36c.23-.12.23-.24,0-.36ZM157.64,140.56v.36c.23-.12.23-.24,0-.36ZM185.11,140.56v.36c.23-.12.23-.24,0-.36ZM172.09,140.92l-.71.17.71.54v-.71ZM118.05,141.27v.36c.23-.12.23-.24,0-.36ZM136.78,142.34l-1.07-1.07c-.12.67.42,1.19,1.07,1.07ZM142.84,141.27c-1.05-.38-1.15,1.68-1.07,1.78.26.3.64.4.56-.39-.08-.85.09-.73.5-1.38ZM169.77,141.27v.36c.23-.12.23-.24,0-.36ZM158.71,141.63v.36c.23-.12.23-.24,0-.36ZM143.19,142.7v-.71h-.35v.71h.35ZM173.16,142.35c-2.27-1.25-2.24.98-1.08.89l1.08-.89ZM145.69,142.34h-.71v.35h.71v-.35ZM165.31,143.05c-.43-1.1-1.91-.64-2.85-.7l.71.89-1.06-.18v1.07s2.13.36,2.13.36c.11-.68.19-1.52,1.08-1.43ZM176.01,143.05v-.71h-.35v.71h.35ZM139.81,142.7v.36c.23-.12.23-.24,0-.36ZM155.68,143.06l-1.06-.36.36,1.43.71-.54v-.53ZM156.75,144.12v-1.42h-.35v1.42h.35ZM157.82,143.77l-.17-1.07-.53.53.7.53ZM161.39,143.41c-.25-.23-3.6-.69-2.5.35.25.23,3.6.69,2.5-.35ZM171.02,143.42l-1.26-.02-.16,1.79,1.42-1.78ZM173.76,143.56c-.43-.33-1.06-.74-1.31.03-.03.08.87.56.9,1.25,1.24.26,2.39-1.22,1.14-.95-1.05.22-.33-.02-.74-.32ZM144.62,143.77l-2.14-.36c.96,1.1.7,2.6,2.5,2.13l-1.07-.71c-.18-.5,1.42-.3.71-1.06ZM145.7,143.41h-.71s0,.71,0,.71l.71-.71ZM148.9,143.41h-.71v.35h.71v-.35ZM168.88,144.48l-.17-1.07c-.38.32-.65.54-.53,1.07h.71ZM138.03,143.77v.36c.23-.12.23-.24,0-.36ZM178.15,144.84l-1.06.18.7-1.25c-.6-.15-.15.61-.57.7-1.05.23-2.58-.75-2.27,1.79,1.91-1.63,1.39-.07,2.85.35-.34-.87-.14-1.08.36-1.78ZM111.28,144.12v.36c.23-.12.23-.24,0-.36ZM145.87,144.12v.36c.23-.12.23-.24,0-.36ZM114.31,144.48h-.71v.35h.71v-.35ZM171.37,144.48l-.71.17.71.54v-.71ZM112.7,144.84v.36c.23-.12.23-.24,0-.36ZM139.99,145.91c.67.14.96-.46,1.42-.89l-1.42.18v.71ZM142.31,144.84v.36c.23-.12.23-.24,0-.36ZM147.12,144.84h-.71v.35h.71v-.35ZM148.91,144.84c-1.81.02-.7,2.3.71,1.42l-1.07-.35.36-1.06ZM168.17,145.55l1.06.18-.89-.89-.17.71ZM158.71,145.19v.36c.23-.12.23-.24,0-.36ZM159.78,145.19v.36c.23-.12.23-.24,0-.36ZM163.58,146.23c-.14-.09-.26-1-.58-1.03l-1.25.89c.76.18,2.9,1.17,3.03-.17-.26.26-.92.49-1.21.32ZM165.85,145.19v.36c.23-.12.23-.24,0-.36ZM174.41,145.19v.36c.23-.12.23-.24,0-.36ZM141.59,145.91v.36c.23-.12.23-.24,0-.36ZM172.09,146.98l.18-1.06c-2.16,1.99-4.42-.42-6.96.35,0,1.65,2.17,1.13,3.06,1.37,1.97.52,5.3,2.64,4.79-1.01l-1.06.35ZM139.63,146.98v-.71h-.35v.71h.35ZM107,146.62v.36c.23-.12.23-.24,0-.36ZM195.45,146.62v.36c.23-.12.23-.24,0-.36ZM147.66,146.98v.36c.23-.12.23-.24,0-.36ZM149.08,146.98v.36c.23-.12.23-.24,0-.36ZM107.53,148.05v-.71s-.71.54-.71.54l.71.17ZM105.93,148.05v.36c.23-.12.23-.24,0-.36ZM144.09,148.05v.36c.23-.12.23-.24,0-.36ZM146.59,148.05v.36c.23-.12.23-.24,0-.36ZM132.85,148.76h-.71s0,.71,0,.71l.71-.71ZM146.76,149.12h-.71s.54.71.54.71l.17-.71ZM150.15,149.47v.36c.23-.12.23-.24,0-.36ZM180.47,149.47v.36c.23-.12.23-.24,0-.36ZM133.92,149.83h-.71s0,.71,0,.71l.71-.71ZM134.46,150.19v.36c.23-.12.23-.24,0-.36ZM152.48,150.19c-.66-.15-1.01.51-1.59.55-3.56.29-7.14-.23-10.65.66-.43.11-.67.58-1.14.57-.35-1.44-.58-.13-1.59.18-4.02,1.23-7.42,1.33-10.98,2.93-.6.27-.98.93-1.63,1.23-.47.22-2.58.6-2.69.72-.17.17.03.75-.08.95-.05.08-1.21-.28-1.57.76-.62-1.79-.65.31-.94.67-.04.06-.82-.2-1.44.06-.36.15-.97,1.17-1.46,1.51-2.9,1.99-5.41,3.86-7.67,6.04-.57.55-.26,2.27-1.87,1.34.32,2.09-.46,1.14-1.03,1.46-.11.06-.07,1.48-.87,2.35-.39.43-1.82,1.04-1.97,1.26-.12.19.26.67-.02,1.19-1.12,2.08-2.78,4.17-3.57,5.8-1.75,3.64-3.62,7.69-4.32,11.65l-1.07-.17.73.58c-.43,1.98-.55,2.79-.02,4.77l-.36-1.42h-.35c-.04,2.02-.9,3.9-1.08,5.91-.44,4.86.31,9.59,1.06,14.29.22,1.38-.41,2.78.72,4.26l-.69.16v.35c.41-.04.62.08.82.44.84,1.53.96,4.41,1.51,5.95.34.94,2.06,4.81,2.55,5.64.32.54,1.76,1.47,1.81,1.58.07.13-.33.76-.15,1.38.05.16,1.4,2.69,1.49,2.83.25.38.9.47,1.06.72.18.28-.28.92-.18,1.06.07.1.94.14,1.33.48.6.52,1.55,2.67,2.12,3.42,1.63,2.18,4.85,4.59,7.1,6.81,1.43,1.42.79.43,2.21,1.32.93.58,3.09,3.1,3.37,3.25.47.27,1.27-.06,1.82.07.32.07.41.75.83,1.02,4.31,2.79,12.81,5.67,17.88,6.75.85.18,6.9.96,7.17.72.17-.14-.1-.69.23-.64.64,1.57,3.22.71,4.62.7.68,0,1.37.49,2.13.38.61-.09.96-.74,1.77-.72.73.02,1.59.74,2.16.73.21,0,.16-.74.88-.94,2.55-.72,5.63-.77,7.88-1.45,1.01-.31,2.2-1.08,3.38-1.22.47,1.77.78-.76,2.53-1.06.81-.14.19,1.07,1.24.72l-.36-1.06c.65-.1,4.07-.99,4.23-1.15s-.08-.77.27-1.03c.55-.41,2.66-.66,3-.9,9.17-6.45,15.8-12.85,21.43-22.72.71-1.25,2.2-2.46,2.12-4.33l1.06.16c.15-.6-.59-.15-.7-.57-.3-1.18.91-2.69,1.24-3.7.38-1.19.61-3.1,1.13-4.19.27-.57,1.15-.73,1.18-.98.06-.52-1.04-.98-1.03-1.05.04-.45.52-1.23.59-1.9.44-4.24.98-8.82.71-13.09-.21-3.32-1.29-7.15-.98-10.37l-.68.17c-.44-2.14-.97-4.64-1.7-6.68-3.15-8.8-8.03-14.73-14.24-20.91-.15-.15-.05-.63-.24-.82-.2-.2-.98-.09-1.18-.82l-1.21.35.71-.53c-1.69-2.27-4.65-2.84-6.42-5l1.07-.53c-2.82.72-4.86-1.98-7.49-2.5l1.78-1.06c-1.51.3-3.25.84-4.67-.18-.39-.28.07-.86.03-.89-.24-.14-1.64.1-2.26-.01-1.15-.21-5.54-1.99-7.22-2.47s-3.94-.17-5.65-.72l-.56.71c-.04-.35.22-.88-.23-1.09-.74-.35-4.43-.37-5.3.03l.18-.72ZM103.07,150.54v.36c.23-.12.23-.24,0-.36ZM174.94,150.55h-.71v.35h.71v-.35ZM176.55,150.54v.36c.23-.12.23-.24,0-.36ZM125.72,151.97v-.71h-.35v.71h.35ZM170.84,151.61v.36c.23-.12.23-.24,0-.36ZM201.7,151.62c-.12.52.15.75.53,1.06l-.19-1.06h-.35ZM168.88,152.33h-.71v.35h.71v-.35ZM99.32,153.75v-.71h-.35v.71h.35ZM176.55,153.04v.36c.23-.12.23-.24,0-.36ZM100.22,153.4v.36c.23-.12.23-.24,0-.36ZM101.29,153.4v.36c.23-.12.23-.24,0-.36ZM175.66,153.4h-.71v.35h.71v-.35ZM177.44,154.82l-.71-.71v.71s.71,0,.71,0ZM177.98,154.11v.36c.23-.12.23-.24,0-.36ZM123.76,154.47v.36c.23-.12.23-.24,0-.36ZM175.12,154.47v.36c.23-.12.23-.24,0-.36ZM179.76,154.47v.36c.23-.12.23-.24,0-.36ZM182.26,154.47v.36c.23-.12.23-.24,0-.36ZM122.86,155.54v-.71h-.35v.71h.35ZM200.62,155.54v-.71h-.35v.71h.35ZM183.5,156.25v-.71h-.35v.71h.35ZM204.37,155.54v.36c.23-.12.23-.24,0-.36ZM122.33,155.89v.36c.23-.12.23-.24,0-.36ZM94.69,156.25l-.19,1.06c.38-.32.65-.54.53-1.06h-.35ZM180.47,156.25v.36c.23-.12.23-.24,0-.36ZM204.37,156.25v.36c.23-.12.23-.24,0-.36ZM181.19,156.61v.36c.23-.12.23-.24,0-.36ZM203.66,156.61v.36c.23-.12.23-.24,0-.36ZM120.19,156.96v.36c.23-.12.23-.24,0-.36ZM116.8,158.03v-.71h-.35v.71h.35ZM181.72,158.39c-.29-.74-.98-1.2-1.78-1.06-.33.16,1.53,1.27,1.78,1.06ZM182.79,157.33h-1.07v.35h1.07v-.35ZM204.37,157.32v.36c.23-.12.23-.24,0-.36ZM205.97,157.33h-.71v.35h.71v-.35ZM206.87,157.32v.36c.23-.12.23-.24,0-.36ZM184.93,158.39v-.71h-.35v.71h.35ZM186.18,158.39v.36c.23-.12.23-.24,0-.36ZM207.58,158.39v.36c.23-.12.23-.24,0-.36ZM208.83,159.1v-.71s-.71.54-.71.54l.71.17ZM117.7,158.75v.36c.23-.12.23-.24,0-.36ZM184.4,159.46v.36c.23-.12.23-.24,0-.36ZM188.68,159.46v.36c.23-.12.23-.24,0-.36ZM187.07,160.89h-.71v.35h.71v-.35ZM93.26,162.67v-.71h-.35v.71h.35ZM109.85,161.96v.36c.23-.12.23-.24,0-.36ZM191.53,161.96v.36c.23-.12.23-.24,0-.36ZM208.29,161.96v.36c.23-.12.23-.24,0-.36ZM211.5,161.96v.36c.23-.12.23-.24,0-.36ZM109.85,162.67v.36c.23-.12.23-.24,0-.36ZM193.85,162.68c-.45-.24-1.24.57-1.07.71.45.24,1.24-.57,1.07-.71ZM189.03,163.39v.36c.23-.12.23-.24,0-.36ZM107.88,165.17v-1.07h-.35v1.07h.35ZM105.93,165.17v.36c.23-.12.23-.24,0-.36ZM90.59,165.53v.36c.23-.12.23-.24,0-.36ZM105.93,167.31v.36c.23-.12.23-.24,0-.36ZM209.72,167.31v.36c.23-.12.23-.24,0-.36ZM213.46,168.02v-.71h-.35v.71h.35ZM215.07,167.67v.36c.23-.12.23-.24,0-.36ZM87.38,168.02v.36c.23-.12.23-.24,0-.36ZM212.39,168.74h-.71v.35h.71v-.35ZM86.84,169.8v-.71h-.35v.71h.35ZM214,170.16v.36c.23-.12.23-.24,0-.36ZM101.64,171.23v.36c.23-.12.23-.24,0-.36ZM85.41,171.59h-.71v.35h.71v-.35ZM85.59,173.02v.36c.23-.12.23-.24,0-.36ZM99.15,177.3v.36c.23-.12.23-.24,0-.36ZM218.1,179.43l-.71-.71v.71s.71,0,.71,0ZM205.08,179.08v.36c.23-.12.23-.24,0-.36ZM81.67,180.51v.36c.23-.12.23-.24,0-.36ZM98.08,180.86v.36c.23-.12.23-.24,0-.36ZM220.24,182.65h-.71v.35h.71v-.35ZM94.87,183.36v.36c.23-.12.23-.24,0-.36ZM79.53,185.14v.36c.23-.12.23-.24,0-.36ZM79.89,187.28v.36c.23-.12.23-.24,0-.36ZM223.45,188.35v-.71h-.35v.71h.35ZM95.22,188.35v.36c.23-.12.23-.24,0-.36ZM222.02,189.78c-.39-.39-1.1.32-.71.71s1.1-.32.71-.71ZM222.56,189.78v.36c.23-.12.23-.24,0-.36ZM93.97,191.2l-.17-.71-.54.71h.71ZM221.85,191.21v.36c.23-.12.23-.24,0-.36ZM223.99,195.84v.36c.23-.12.23-.24,0-.36ZM79.17,196.91v.36c.23-.12.23-.24,0-.36ZM223.27,196.91v.36c.23-.12.23-.24,0-.36ZM77.03,198.7v.36c.23-.12.23-.24,0-.36ZM78.1,199.41v.36c.23-.12.23-.24,0-.36ZM77.39,199.77v.36c.23-.12.23-.24,0-.36ZM210.97,202.62c-.39-.39-1.1.32-.71.71s1.1-.32.71-.71ZM78.28,202.98h-1.07s0,.71,0,.71c.49.11.95-.19,1.07-.71ZM222.92,204.05v.36c.23-.12.23-.24,0-.36ZM78.99,206.19h-1.07v.35h1.07v-.35ZM91.3,206.54v.36c.23-.12.23-.24,0-.36ZM224.34,209.75v.36c.23-.12.23-.24,0-.36ZM224.34,210.82v.36c.23-.12.23-.24,0-.36ZM77.39,211.54v.36c.23-.12.23-.24,0-.36ZM222.92,211.54v.36c.23-.12.23-.24,0-.36ZM225.06,211.54v.36c.23-.12.23-.24,0-.36ZM212.39,212.61v-.71h-.35v.71h.35ZM224.16,212.96v-.71h-.35v.71h.35ZM209.01,212.61v.36c.23-.12.23-.24,0-.36ZM78.46,214.04l-.53.53c0,.37.89-.21.53-.53ZM91.12,214.04h-.71v.35h.71v-.35ZM91.66,215.1v.36c.23-.12.23-.24,0-.36ZM78.82,215.82v.36c.23-.12.23-.24,0-.36ZM78.46,216.53v.36c.23-.12.23-.24,0-.36ZM222.56,218.67v.36c.23-.12.23-.24,0-.36ZM77.21,219.03h-.71v.35h.71v-.35ZM224.7,219.38v.36c.23-.12.23-.24,0-.36ZM79.89,220.45v.36c.23-.12.23-.24,0-.36ZM207.94,222.59v.36c.23-.12.23-.24,0-.36ZM223.63,223.66v.36c.23-.12.23-.24,0-.36ZM79.53,224.73v.36c.23-.12.23-.24,0-.36ZM222.2,225.81v.36c.23-.12.23-.24,0-.36ZM80.42,229.02h-.71v.35h.71v-.35ZM97.36,230.09v.36c.23-.12.23-.24,0-.36ZM218.64,230.8v.36c.23-.12.23-.24,0-.36ZM97.01,232.23v.36c.23-.12.23-.24,0-.36ZM217.39,234.37l-1.42-.36v.71s1.42,0,1.42,0v-.35ZM204.19,234.72h-.71s.54.71.54.71l.17-.71ZM203.48,236.51c-1.15-.15-1.22,1.24-.53,1.78l-.16-1.27.69-.51ZM211.5,236.51v.36c.23-.12.23-.24,0-.36ZM99.15,237.58v.36c.23-.12.23-.24,0-.36ZM100.75,238.29c-.52-.12-.75.15-1.06.53l1.06-.19v-.35ZM101.11,239.72h-.71s.36,1.07.36,1.07h.35s0-1.07,0-1.07ZM86.31,240.43v.36c.23-.12.23-.24,0-.36ZM100.57,241.14v.36c.23-.12.23-.24,0-.36ZM213.29,241.5v.36c.23-.12.23-.24,0-.36ZM214.89,242.21l-.71-.71v.71s.71,0,.71,0ZM84.17,241.86v.36c.23-.12.23-.24,0-.36ZM86.13,243.28l-.71-.71v.71s.71,0,.71,0ZM101.29,242.57v.36c.23-.12.23-.24,0-.36ZM198.48,242.57h-.71s.54.71.54.71l.17-.71ZM217.21,242.57v.36c.23-.12.23-.24,0-.36ZM199.38,243.28v.36c.23-.12.23-.24,0-.36ZM87.73,243.64v.36c.23-.12.23-.24,0-.36ZM85.95,244v.36c.23-.12.23-.24,0-.36ZM208.83,244h-.71v.35h.71v-.35ZM89.16,244.71v.36c.23-.12.23-.24,0-.36ZM206.69,248.28c.59.03,1.19-.02,1.78,0l-.37-1.96c2.94-.73-.15-1.85-.7-.89-.05.09.39.62.37.86-.03.35-.38-.49-.38,1.05,0,.29-.74.14-.7.94-.15,0-.43-.34-.68-.34l-.93,2.13c-1.09.32-.83-.68-.89-.72-.28-.21-.94-.06-.71.52.17.42,2.02,1.75,2.13,1.61-.78-1.22.93-1.81,1.78-2.68-.15-.44-.67.17-.71-.53ZM210.25,245.07h-.71v.35h.71v-.35ZM214.89,245.07h-.71v.35h.71v-.35ZM103.43,245.42v.36c.23-.12.23-.24,0-.36ZM89.16,246.14v.36c.23-.12.23-.24,0-.36ZM206.15,246.49v.36c.23-.12.23-.24,0-.36ZM205.08,246.85v.36c.23-.12.23-.24,0-.36ZM105.21,247.21v.36c.23-.12.23-.24,0-.36ZM212.75,247.92v-.71h-.35v.71h.35ZM89.69,248.63v-.71h-.35v.71h.35ZM203.66,248.28v.36c.23-.12.23-.24,0-.36ZM109.14,248.63v.36c.23-.12.23-.24,0-.36ZM205.08,248.63v.36c.23-.12.23-.24,0-.36ZM91.12,248.99h-.71v.35h.71v-.35ZM194.92,248.99h-.71s0,.71,0,.71l.71-.71ZM211.5,248.99v.36c.23-.12.23-.24,0-.36ZM212.57,248.99v.36c.23-.12.23-.24,0-.36ZM91.48,250.42h-.71v.35h.71v-.35ZM93.08,250.42v.36c.23-.12.23-.24,0-.36ZM109.49,250.42v.36c.23-.12.23-.24,0-.36ZM194.03,250.42v.36c.23-.12.23-.24,0-.36ZM93.97,251.48v-.71h-.35v.71h.35ZM190.82,251.13v.36c.23-.12.23-.24,0-.36ZM204.9,251.49c-1.52-.39-1.28.47-2,1.03-1.41,1.11-.77.77-1.71,1.86-.75.87-1.9.32-.93,2.1l-1.78-.35c.88,2.27-.25,1.04-1.22,1.75-.08.06-.65.77-1.14,1.22-.74.68-2.76,3.1-3.43,3.39-.38.16-.87-.43-.99-.29.34,2.27-.63,1.03-1.37,1.48-.14.08-.54,1.21-.42,1.37,3.23-.5,1.48-.59,2.1-1.62.61-1.01,1.73-.57,2.09-.95.32-.34.23-1.01.82-1.51,1.12-.94,3.39-1.16,3.54-1.28.11-.08-.4-.73-.05-1.26.3-.45,1.05-.65,1.34-1,.48-.57.83-1.39,1.32-1.89.93-.94,3.6-2.02,2.72-3.33l1.07-.71ZM205.97,253.27v-.71h-.35v.71h.35ZM192.06,259.69c.07-.1-.21-.64.23-1.09.51-.52,1.79-.61,2.45-1.04,1.16-.75,1.46-2.53,2.97-2.55-.43-.5.84-1.94-.13-2.09-1.09-.18-2.35,4.02-4.25,3.54-.56-.14-.31-1.14-.91-1.04l-.36,1.42.7-.71.72.89c-1.11.89-2.31,1.35-3.03,2.67l-.89-.71c.33,1.44-.7.9-1.23,1.41-.1.09-1.18,2.66-.56,2.51.04-.94.96-1.2,1.76-1.24-.8-1.36.09-.67.45-.92.46-.31.19-.72.47-.7.12,0,.16,1.61,1.61-.35l.18.71.54-.71h-.71ZM114.3,253.98v-.71h-.35v.71h.35ZM113.42,253.63v.36c.23-.12.23-.24,0-.36ZM188.5,253.63c-.05-.05-.49.02-.71,0l-.18,1.06c.34-.35,1.5-.46.89-1.06ZM96.47,254.69l-.17-.71-.54.71h.71ZM185.64,254.69v-.71h-.35v.71h.35ZM199.73,253.98v.36c.23-.12.23-.24,0-.36ZM189.03,254.34v.36c.23-.12.23-.24,0-.36ZM96.29,255.05v.36c.23-.12.23-.24,0-.36ZM185.11,255.05v.36c.23-.12.23-.24,0-.36ZM194.2,255.76v-.71s-.71.54-.71.54l.71.17ZM115.56,255.41v.36c.23-.12.23-.24,0-.36ZM95.58,255.77v.36c.23-.12.23-.24,0-.36ZM96.83,256.48l-.17-.71-.54.71h.71ZM116.63,255.77v.36c.23-.12.23-.24,0-.36ZM184.22,255.77h-.71v.35h.71v-.35ZM205.44,255.77l-.53.53c0,.37.89-.21.53-.53ZM98.08,256.12v.36c.23-.12.23-.24,0-.36ZM119.66,256.13h-.71v.35h.71v-.35ZM184.04,256.84v.36c.23-.12.23-.24,0-.36ZM197.41,257.55l-.71-.71v.71s.71,0,.71,0ZM197.95,256.84v.36c.23-.12.23-.24,0-.36ZM200.98,257.2h-.71v.35h.71v-.35ZM121.62,257.55v.36c.23-.12.23-.24,0-.36ZM181.54,257.55v.36c.23-.12.23-.24,0-.36ZM184.57,258.26v-.71h-.35v.71h.35ZM204.01,257.55v.36c.23-.12.23-.24,0-.36ZM120.91,258.26v.36c.23-.12.23-.24,0-.36ZM100.57,258.62v.36c.23-.12.23-.24,0-.36ZM121.98,258.62v.36c.23-.12.23-.24,0-.36ZM200.62,258.62h-.71v.35h.71v-.35ZM204.55,258.62h-.71v.35h.71v-.35ZM182.97,258.98v.36c.23-.12.23-.24,0-.36ZM195.27,258.98h-.71v.35h.71v-.35ZM124.83,259.33v.36c.23-.12.23-.24,0-.36ZM199.38,259.33v.36c.23-.12.23-.24,0-.36ZM204.37,259.33v.36c.23-.12.23-.24,0-.36ZM193.67,259.69v.36c.23-.12.23-.24,0-.36ZM102,260.05c-.35.25.19.49.36.7.35-.23-.17-.47-.36-.7ZM126.79,261.11v-.71h-.35v.71h.35ZM176.19,260.4v.36c.23-.12.23-.24,0-.36ZM174.41,260.76v.36c.23-.12.23-.24,0-.36ZM176.2,261.48l-.53.53c0,.37.89-.21.53-.53ZM185.28,262.19v-.71h-.35v.71h.35ZM102.71,261.83v.36c.23-.12.23-.24,0-.36ZM174.94,261.83c-.45-.24-1.24.57-1.07.71.45.24,1.24-.57,1.07-.71ZM101.64,262.19v.36c.23-.12.23-.24,0-.36ZM100.57,262.54v.36c.23-.12.23-.24,0-.36ZM185.29,263.25l-.18-.71c-.34.28-1.94,2.2-1.61,2.49,1.89.11,2.63-.57,2.85-2.49-.5-.19-.32,1.45-1.07.71ZM136.6,262.9v.36c.23-.12.23-.24,0-.36ZM106.82,263.97l-.71-.71v.71s.71,0,.71,0ZM137.31,263.26v.36c.23-.12.23-.24,0-.36ZM186.89,263.26v.36c.23-.12.23-.24,0-.36ZM139.1,263.61v.36c.23-.12.23-.24,0-.36ZM162.46,263.62h-.71s0,.71,0,.71l.71-.71ZM163.53,263.62h-.71v.35h.71v-.35ZM171.2,263.61v.36c.23-.12.23-.24,0-.36ZM192.6,263.61v.36c.23-.12.23-.24,0-.36ZM139.45,264.33c-.35.25.19.49.36.7.35-.23-.17-.47-.36-.7ZM163.89,264.33h-.71s0,.71,0,.71l.71-.71ZM166.38,264.33c-.49-.11-.95.19-1.07.71h1.07s0-.71,0-.71ZM192.96,264.33v.36c.23-.12.23-.24,0-.36ZM105.93,264.68v.36c.23-.12.23-.24,0-.36ZM151.76,264.69h-.71v.35h.71v-.35ZM170.66,264.69h-.71v.35h.71v-.35ZM181.19,264.68v.36c.23-.12.23-.24,0-.36ZM183.15,264.69c-2.16-.13-1.71,2.13,0,.53v-.53ZM189.57,264.69c-.36-.36-1.43.7-1.07,1.07s1.43-.7,1.07-1.07ZM142.66,265.04v.36c.23-.12.23-.24,0-.36ZM149.26,265.04h-.71v.35h.71v-.35ZM150.69,265.04h-.71s-.35.89-.35.89l.17.17.9-1.06ZM164.6,265.04h-.71v.35h.71v-.35ZM175.65,266.47l.19-1.42c-.56.38-.62.76-.53,1.42h.35ZM176.91,265.04v.36c.23-.12.23-.24,0-.36ZM107.53,266.11l-.17-.71-.54.71h.71ZM108.43,265.4l-.53.53c0,.37.89-.21.53-.53ZM152.47,266.11v-.71h-.35v.71h.35ZM158.53,265.4h-.71v.35h.71v-.35ZM178.33,265.4v.36c.23-.12.23-.24,0-.36ZM140.52,265.75v.36c.23-.12.23-.24,0-.36ZM188.14,266.82c-.51-2.12-.48-.11-1.78-.35l1.78.35ZM155.5,266.11v.36c.23-.12.23-.24,0-.36ZM158,266.11v.36c.23-.12.23-.24,0-.36ZM176.55,266.11v.36c.23-.12.23-.24,0-.36ZM183.68,266.11v.36c.23-.12.23-.24,0-.36ZM184.93,267.89l-2.12.02c-.16.45-.21.97-.38,1.41-.83.2-1.62.47-2.5.35l-.35-.71-.36,1.78,3-.68c.37-.15.14-.57.21-.75,1.94-.46,1.5-.49,2.5-1.43.64-.61,1.51.35.35-1.78-.91,0-.28,1.71-.35,1.78ZM190.28,266.82v-.71h-.35v.71h.35ZM192.42,266.82v-.71h-.35v.71h.35ZM145.34,266.47h-.71s0,.71,0,.71l.71-.71ZM160.14,266.47v.36c.23-.12.23-.24,0-.36ZM182.26,266.47v.36c.23-.12.23-.24,0-.36ZM193.31,266.47v.36c.23-.12.23-.24,0-.36ZM162.64,266.82v.36c.23-.12.23-.24,0-.36ZM183.86,266.83h-.71v.35h.71v-.35ZM152.29,267.19c-.35.25.19.49.36.7.35-.23-.17-.47-.36-.7ZM154.08,267.18v.36c.23-.12.23-.24,0-.36ZM159.6,267.54l-1.06-.36v.71s1.06,0,1.06,0v-.35ZM160.85,267.18v.36c.23-.12.23-.24,0-.36ZM175.48,267.18v.36c.23-.12.23-.24,0-.36ZM111.09,268.25v-.71h-.35v.71h.35ZM172.09,268.25v-.71h-.35v.71h.35ZM176.55,267.54l-.53.53c0,.37.89-.21.53-.53ZM175.3,267.9c-.39-.39-1.1.32-.71.71s1.1-.32.71-.71ZM109.14,268.25v.36c.23-.12.23-.24,0-.36ZM173.31,269.17c-.21-.19-.09-.66-.33-.56l-1.25.72,1.06.89-.71,1.25,1.09-.91-.38-1.04,1.07.17c.12-.51-.28-.26-.56-.5ZM186.89,268.61v.36c.23-.12.23-.24,0-.36ZM113.06,268.96v.36c.23-.12.23-.24,0-.36ZM114.13,268.96v.36c.23-.12.23-.24,0-.36ZM190.28,268.97h-.71v.35h.71v-.35ZM188.14,270.03v-.71h-.35v.71h.35ZM112.52,270.39v-.71h-.35v.71h.35ZM113.59,269.68h-.71s.54.71.54.71l.17-.71ZM178.33,269.68v.36c.23-.12.23-.24,0-.36ZM186.71,270.39l-.71-.71v.71s.71,0,.71,0ZM187.25,269.68v.36c.23-.12.23-.24,0-.36ZM190.99,269.68c-.39-.39-1.1.32-.71.71s1.1-.32.71-.71ZM161.92,270.03v.36c.23-.12.23-.24,0-.36ZM192.06,270.04h-.71v.35h.71v-.35ZM142.12,271.1v-.71h-.35v.71h.35ZM166.03,272.17c.76.11,2.59-.62,2.14-1.78-.54,0-.52.84-.79,1-.82.48-1.13-.63-1.35.79-.31-.05-.94-.88-1.07-.71.1,1.19.82,2.37,1.07.71ZM187.25,270.75v.36c.23-.12.23-.24,0-.36ZM190.82,270.75v.36c.23-.12.23-.24,0-.36ZM115.2,271.1v.36c.23-.12.23-.24,0-.36ZM149.08,271.1v.36c.23-.12.23-.24,0-.36ZM153.01,271.1v.36c.23-.12.23-.24,0-.36ZM175.12,271.1v.36c.23-.12.23-.24,0-.36ZM178.15,271.81c-.1-.41-.23-.64-.71-.51-.28.08-1.79.51-1.78.69l1.06.89c.01-.88.6-1.13,1.43-1.07ZM162.81,271.46h-.71s0,1.42,0,1.42c.71-.19.8-.76.71-1.42ZM163.18,272.53c.14.17.94-.62.71-1.07-.14-.17-.94.62-.71,1.07ZM187.61,271.46v.36c.23-.12.23-.24,0-.36ZM120.55,271.82v.36c.23-.12.23-.24,0-.36ZM153.36,271.82v.36c.23-.12.23-.24,0-.36ZM158.89,271.82c-.33-.36-1.01.62-1.25.61-.27,0-1.34-1.47-1.08.5.14,1.04,1.97,1.12,2.68,1.74.29-.99-.92-.9-1.06-1.08-.47-.58,1.4-1.03.71-1.77ZM164.42,271.82v.36c.23-.12.23-.24,0-.36ZM183.68,271.82v.36c.23-.12.23-.24,0-.36ZM122.69,272.17v.36c.23-.12.23-.24,0-.36ZM146.59,272.17v.36c.23-.12.23-.24,0-.36ZM155.68,272.18h-.71s.54.71.54.71l.17-.71ZM182.97,272.17v.36c.23-.12.23-.24,0-.36ZM173.34,272.53v.36c.23-.12.23-.24,0-.36ZM153.01,272.89v.36c.23-.12.23-.24,0-.36ZM154.97,272.89h-.71s-.35.89-.35.89l.17.17.9-1.06ZM168.7,272.89v.36c.23-.12.23-.24,0-.36ZM123.05,273.24v.36c.23-.12.23-.24,0-.36ZM171.02,273.25h-1.07v.35h1.07v-.35ZM174.23,273.25h-.71v.35h.71v-.35ZM165.85,273.6v.36c.23-.12.23-.24,0-.36ZM177.8,273.6h-1.07v.35h1.07v-.35ZM125.54,273.96v.36c.23-.12.23-.24,0-.36ZM164.06,273.96v.36c.23-.12.23-.24,0-.36ZM165.13,273.96v.36c.23-.12.23-.24,0-.36ZM121.44,275.03v-.71h-.35v.71h.35ZM154.08,274.31v.36c.23-.12.23-.24,0-.36ZM171.73,274.32h-.71v.35h.71v-.35ZM124.83,274.67v.36c.23-.12.23-.24,0-.36ZM144.45,274.67v.36c.23-.12.23-.24,0-.36ZM152.47,274.67l-1.07.17c.32.38.54.65,1.07.53v-.71ZM165.31,275.38v-.71h-.35v.71h.35ZM166.03,275.74c.2.2,1.06-.3,1.06-.53,0-.99-1.6,0-1.06.53ZM168.34,274.67v.36c.23-.12.23-.24,0-.36ZM158,275.03v.36c.23-.12.23-.24,0-.36ZM163.88,275.74v-.71h-.35v.71h.35ZM125.01,275.39h-.71v.35h.71v-.35ZM163.17,276.09l-.71-.71v.71s.71,0,.71,0ZM165.31,275.74l-1.06-.19c.32.38.54.65,1.06.53v-.35ZM153.54,275.74h-.71s0,.71,0,.71l.71-.71ZM156.75,276.81l-.55-1.06-1.94.71c.37,1.13,1.67.1,2.49.35ZM160.68,276.45l-.71-.71v.71s.71,0,.71,0ZM182.61,275.74v.36c.23-.12.23-.24,0-.36ZM124.12,276.1v.36c.23-.12.23-.24,0-.36ZM159.07,276.1v.36c.23-.12.23-.24,0-.36ZM169.41,276.1v.36c.23-.12.23-.24,0-.36ZM143.55,277.17h-.71v.35h.71v-.35ZM170.13,277.17v.36c.23-.12.23-.24,0-.36ZM150.69,277.53h-.71v.35h.71v-.35ZM153.54,278.24v-.71h-.35v.71h.35ZM167.81,278.24v-.71h-.35v.71h.35ZM149.08,277.88v.36c.23-.12.23-.24,0-.36ZM131.43,280.02c-2.19.48-3.96-.44-6.05-.9.96,2.41.7,1.19,1.65.98.41-.09,1.59.52,2.42.59.3.02,1.98-.09,1.98-.67ZM132.32,278.95v.36c.23-.12.23-.24,0-.36ZM133.03,278.95v.36c.23-.12.23-.24,0-.36ZM161.39,278.95h-.71v.35h.71v-.35ZM144.45,279.31v.36c.23-.12.23-.24,0-.36ZM149.08,279.31v.36c.23-.12.23-.24,0-.36ZM181.72,279.31h-1.42v.35h1.42v-.35ZM145.52,279.66v.36c.23-.12.23-.24,0-.36ZM118.05,280.02v.36c.23-.12.23-.24,0-.36ZM167.09,280.02h-.71v.35h.71v-.35ZM119.3,281.09v-.71h-.35v.71h.35ZM143.73,280.38v.36c.23-.12.23-.24,0-.36ZM169.77,280.38v.36c.23-.12.23-.24,0-.36ZM171.02,280.38h-.71v.35h.71v-.35ZM181.01,281.8l-.71-.71v.71s.71,0,.71,0ZM143.38,281.8v.36c.23-.12.23-.24,0-.36ZM150.51,281.8v.36c.23-.12.23-.24,0-.36ZM176.19,281.8v.36c.23-.12.23-.24,0-.36ZM141.06,282.16c-.39-.39-1.1.32-.71.71s1.1-.32.71-.71ZM141.59,282.16v.36c.23-.12.23-.24,0-.36ZM142.66,282.16v.36c.23-.12.23-.24,0-.36ZM145.69,282.16h-.71v.35h.71v-.35ZM161.75,282.52l-.19,1.06c.38-.32.65-.54.53-1.06h-.35ZM181.19,282.52v.36c.23-.12.23-.24,0-.36ZM131.78,283.24l-1.06-.36v.71s1.06,0,1.06,0v-.35ZM160.67,283.59v-.71h-.35v.71h.35ZM158.89,283.23h-.71v.35h.71v-.35ZM139.45,283.59v.36c.23-.12.23-.24,0-.36ZM166.56,284.3v.36c.23-.12.23-.24,0-.36ZM156.04,285.37v-.71h-.35v.71h.35ZM167.27,285.01v.36c.23-.12.23-.24,0-.36ZM172.98,285.37v.36c.23-.12.23-.24,0-.36ZM158,285.73v.36c.23-.12.23-.24,0-.36ZM162.1,286.44v-.71s-1.07.36-1.07.36v.35s1.07,0,1.07,0ZM162.1,287.16h-.71v.35h.71v-.35Z"/>
  <path class="cls-1" d="M214.54,175.51s-.34.05-.35-.18l.35-.18v.36Z"/>
  <path class="cls-1" d="M167.1,141.98c-.06.03-.37.92-.71,0,.23-.02.49.03.71,0Z"/>
  <path class="cls-1" d="M183.5,283.59c.15.31.33.7.71.71-.21.23,0,.89-.89,1.29-.08.04-1.65.16-1.74.13-.18-.04-.28-1.07-2.01-.36.61-.28,1.72-1.65,1.84-1.71.09-.05,1.45,0,2.09-.07Z"/>
  <path class="cls-1" d="M167.81,139.84c.03.2.11.73-.18.72-.38,0-.07-.56-.18-.72.09-.04.24.03.36,0Z"/>
  <path class="cls-1" d="M178.15,282.87c.14.12.19,1.26,1.06,1.08.35.63-1.13,1.62-1.77,1.26-.99-.53-.32-1.13-.36-1.62.3.08.57.52,1.07.35l-.36-1.07c.12.03.3-.05.36,0Z"/>
  <path class="cls-1" d="M67.31,163.65c-1.21-1.12,1.4-4.06,2.8-2.26s-1.23,3.71-2.8,2.26Z"/>
  <path class="cls-1" d="M176.35,45.69c0,.66.78,1.73.67,2.26-.02.11-1.43,1.67-1.54,1.65-2.48-.51-1.6-4.27.87-3.91Z"/>
  <path class="cls-1" d="M126.43,283.59c.81,1-.81,1.05-.96,1.15-.54.38-.8,2.21-1.54.63,2.07-.39-.78-1.68-1.61-.36-3.15-2.29,3.72-1.9,4.11-1.42ZM124.83,283.94v.36c.23-.12.23-.24,0-.36Z"/>
  <path class="cls-1" d="M99.9,117.04c2-.36,1.2,4.97-.75,2.45-.68-.88-.1-2.3.75-2.45Z"/>
  <path class="cls-1" d="M171.02,52.1c-.14,4.77-4.46.9-2.14-.2.55-.26,1.48.34,2.14.2Z"/>
  <path class="cls-1" d="M221.31,278.96c-.64.82-2.69.82-.53,1.77l-.36.71c-4.09-1.38-2.93-3.39.89-2.48Z"/>
  <path class="cls-1" d="M197.77,282.16l-.17,1.07c.61.1,1.48.31,2.05,0,.44-.24.06-.83.62-.71l1.07,1.96c-1.34.09-2.61-.4-3.91.17l.71-1.07-1.42-.18,1.07-1.25Z"/>
  <path class="cls-1" d="M201.69,279.66c.56,1.04-1.11,1.22-1.07,2.14-.99-1.79-1.33-.24-2.49-1.25.02-.99.55-.61.98-.67.26-.04,2.52-.33,2.58-.21Z"/>
  <path class="cls-1" d="M188.55,26.73c-.9-1.57,2.26-1.83,2.36-.49.11,1.45-1.9,1.29-2.36.49Z"/>
  <path class="cls-1" d="M108.6,278.6l-1.07.71c.99-.12,2.13-.81,2.14.71-1.26-.15-2.92.46-3.92-.53l1.43-.18-.36-.71h1.78Z"/>
  <path class="cls-1" d="M192.01,282.91c.07.04.53,1.13.77,1.39-.83,0-2.4.88-2.85-.18-.48-1.14,1.96-1.28,2.08-1.21Z"/>
  <path class="cls-1" d="M97.19,278.6c-.73,1.42-1.83,1.45-3.21,1.06.17-1.85,2.09-1.03,3.21-1.06Z"/>
  <path class="cls-1" d="M227.1,136.73c.29-.39,1.13-.53,1.31.12.81,2.94-2.67,1.73-1.31-.12Z"/>
  <path class="cls-1" d="M96.89,84.14c.17.2.8-.18.65.42l-1.73-.04c-.94-1.39.47-3.14,1.18-1.39.12.3-.26.83-.11,1.02Z"/>
  <path class="cls-1" d="M205.62,280.38c-.05,1.04-.66,2.03-1.78,1.78-.05-.5.12-1.09,0-1.56-.1-.42-.88,0-.72-.58l2.49.36Z"/>
  <path class="cls-1" d="M116.09,283.95c.15.6-.52.21-.67.39-.26.31.19.77.18.99-.04,1.69-2.08-.06-1.65-.66l2.14-.72Z"/>
  <path class="cls-1" d="M169.95,290.36v-1.07s2.84.17,2.84.17c-.69.95-1.88.6-2.84.89Z"/>
  <path class="cls-1" d="M195.99,287.15c-.22.08-3.99.18-2.85-.71.12-.09,2.88-.03,2.85.71Z"/>
  <path class="cls-1" d="M181.3,287.8c.08-.03.16-1.12,1.49-.64l-1.97,1.28c-.57-.47-2.21-.21-1.95-1.28.89-.43,1.89.87,2.43.64Z"/>
  <path class="cls-1" d="M209.18,279.67c-.55.75,1.21,1.3.71,1.78-.1.09-1.79-1.11-2.49-.72l1.43-.36.35-.71Z"/>
  <path class="cls-1" d="M120.01,284.3c-.41.04-2.11.27-2.14-.35.99-.38,2.01-1.18,2.14.35.4-.04.7-.25,1.07-.36.43,1.23-1.04,2.73-1.23,1.08-.04-.39.17-.65.16-.72Z"/>
  <path class="cls-1" d="M62.23,126.29c-.39-.35,1.11-1.24.89-1.78,1.33.64-.47,2.15-.89,1.78Z"/>
  <path class="cls-1" d="M158.18,289.66s.13.75-.17.7l-2.32-1.06c.4.08,2.34.19,2.49.36Z"/>
  <path class="cls-1" d="M101.1,276.46c.12.1.79,1.79-.17,1.42-.53-.2-.62-.89-.54-1.42.22.02.64-.06.71,0Z"/>
  <path class="cls-1" d="M214.89,283.23c.62.61-1.23,1.25-1.42,1.07-.62-.61,1.23-1.25,1.42-1.07Z"/>
  <rect class="cls-1" x="133.57" y="287.51" width="1.42" height=".71"/>
  <path class="cls-1" d="M138.2,290.37c.51.48-.65,1.3-1.42.71,0-.6,1.17-.95,1.42-.71Z"/>
  <polygon class="cls-1" points="189.21 286.44 189.21 287.15 187.43 286.79 187.43 286.45 189.21 286.44"/>
  <path class="cls-1" d="M127.86,287.87v.35s-.89.35-.89.35c-1.18-1.21-.39-1.25.89-.7Z"/>
  <rect class="cls-1" x="125.72" y="282.88" width="2.14" height=".35" transform="translate(-.64 .29) rotate(-.13)"/>
  <path class="cls-1" d="M119.3,284.66c.12.53-.16.74-.54,1.07-.16.07-.27-.95-.89-.72v-.35s1.42,0,1.42,0Z"/>
  <path class="cls-1" d="M185.64,277.53v.35c-.74,0-1.32.57-1.78-.18l1.78-.17Z"/>
  <polygon class="cls-1" points="163.53 293.93 162.82 293.39 163.35 292.51 163.53 293.93"/>
  <polygon class="cls-1" points="150.33 289.65 148.56 290.19 149.8 288.94 150.33 289.65"/>
  <rect class="cls-1" x="163.53" y="287.16" width=".71" height="1.07"/>
  <path class="cls-1" d="M114.66,278.23h-1.42s0-.35,0-.35c.76-.17,1.11-.61,1.42.35Z"/>
  <path class="cls-1" d="M91.12,282.16v.71s-1.07,0-1.07,0c.12-.52.58-.82,1.07-.71Z"/>
  <path class="cls-1" d="M191.35,275.39v.71s-1.07,0-1.07,0c.12-.52.58-.82,1.07-.71Z"/>
  <path class="cls-1" d="M160.68,290.72c-.65.12-1.18-.39-1.07-1.07l1.07,1.07Z"/>
  <path class="cls-1" d="M90.05,281.09c-.12.52-.58.82-1.07.71v-.71s1.07,0,1.07,0Z"/>
  <polygon class="cls-1" points="206.33 279.67 206.33 281.09 205.98 281.09 205.62 279.67 206.33 279.67"/>
  <path class="cls-1" d="M197.77,279.31v.71s-1.07,0-1.07,0c.12-.52.58-.82,1.07-.71Z"/>
  <polygon class="cls-1" points="126.08 287.87 126.07 288.58 125.01 288.22 125.01 287.87 126.08 287.87"/>
  <path class="cls-1" d="M103.37,282.09c.05.1.41.06.58.08.15,1.68-1.44-.51-1.06-1.07.8.11.34.74.48,1Z"/>
  <polygon class="cls-1" points="133.21 287.52 132.68 288.22 132.14 287.69 133.21 287.52"/>
  <path class="cls-1" d="M194.56,282.16c.39.39-.32,1.1-.71.71s.32-1.1.71-.71Z"/>
  <path class="cls-1" d="M112.88,280.02c-.45.24-1.24-.57-1.07-.71.45-.24,1.24.57,1.07.71Z"/>
  <path class="cls-1" d="M153.19,290.01c-.24-.45.57-1.24.71-1.07.24.45-.57,1.24-.71,1.07Z"/>
  <polygon class="cls-1" points="191.71 287.15 191.88 286.09 192.41 286.62 191.71 287.15"/>
  <path class="cls-1" d="M101.11,280.02c.39.39-.32,1.1-.71.71s.32-1.1.71-.71Z"/>
  <rect class="cls-1" x="189.57" y="282.16" width="1.07" height=".35"/>
  <polygon class="cls-1" points="209.9 285.73 209.72 286.44 209.19 285.73 209.9 285.73"/>
  <polygon class="cls-1" points="223.81 235.43 223.1 235.43 222.75 234.54 222.91 234.37 223.81 235.43"/>
  <polygon class="cls-1" points="160.32 287.51 160.14 288.22 159.61 287.52 160.32 287.51"/>
  <polygon class="cls-1" points="206.33 275.02 205.62 275.03 205.62 274.31 206.33 275.02"/>
  <polygon class="cls-1" points="69.73 115.59 69.72 114.88 70.62 114.53 70.78 114.69 69.73 115.59"/>
  <polygon class="cls-1" points="105.39 282.87 104.68 282.87 104.68 282.16 105.39 282.87"/>
  <polygon class="cls-1" points="154.61 292.51 154.44 293.22 153.9 292.51 154.61 292.51"/>
  <polygon class="cls-1" points="203.12 281.45 202.41 282.16 202.41 281.45 203.12 281.45"/>
  <polygon class="cls-1" points="84.7 283.59 83.99 283.58 84.53 282.88 84.7 283.59"/>
  <polygon class="cls-1" points="196.7 276.1 196.52 276.81 195.99 276.1 196.7 276.1"/>
  <polygon class="cls-1" points="154.97 8.58 154.26 8.58 154.26 7.87 154.97 8.58"/>
  <rect class="cls-1" x="147.84" y="294.29" width=".35" height=".71"/>
  <rect class="cls-1" x="171.02" y="293.22" width=".35" height=".71"/>
  <rect class="cls-1" x="126.79" y="292.87" width=".71" height=".35"/>
  <rect class="cls-1" x="156.76" y="291.79" width=".35" height=".71"/>
  <rect class="cls-1" x="122.16" y="290.73" width=".71" height=".35"/>
  <rect class="cls-1" x="168.88" y="289.3" width=".71" height=".35"/>
  <rect class="cls-1" x="157.83" y="287.51" width=".35" height=".71"/>
  <rect class="cls-1" x="130" y="287.51" width=".35" height=".71"/>
  <rect class="cls-1" x="186.36" y="286.44" width=".35" height=".71"/>
  <rect class="cls-1" x="169.24" y="286.45" width=".71" height=".35"/>
  <rect class="cls-1" x="206.34" y="283.23" width=".35" height=".71"/>
  <rect class="cls-1" x="209.19" y="282.88" width=".35" height=".71"/>
  <rect class="cls-1" x="192.42" y="282.88" width=".71" height=".35"/>
  <rect class="cls-1" x="95.05" y="282.16" width=".71" height=".35"/>
  <rect class="cls-1" x="91.84" y="282.16" width=".71" height=".35"/>
  <rect class="cls-1" x="197.42" y="281.09" width=".71" height=".35"/>
  <rect class="cls-1" x="107.18" y="281.09" width=".71" height=".35"/>
  <rect class="cls-1" x="197.06" y="280.38" width=".71" height=".35"/>
  <rect class="cls-1" x="99.33" y="280.38" width=".71" height=".35"/>
  <rect class="cls-1" x="96.12" y="280.38" width=".71" height=".35"/>
  <path class="cls-1" d="M112.88,122.73v.35c-.52.12-.75-.15-1.06-.53l1.06.19Z"/>
  <path class="cls-1" d="M211.86,271.46c.23.12.23.24,0,.36v-.36Z"/>
  <path class="cls-1" d="M218.99,271.82c.23.12.23.24,0,.36v-.36Z"/>
  <path class="cls-1" d="M115.56,277.52c.23.12.23.24,0,.36v-.36Z"/>
  <path class="cls-1" d="M186.54,277.52c.23.12.23.24,0,.36v-.36Z"/>
  <path class="cls-1" d="M188.32,278.59c.23.12.23.24,0,.36v-.36Z"/>
  <path class="cls-1" d="M190.1,278.59c.23.12.23.24,0,.36v-.36Z"/>
  <path class="cls-1" d="M223.27,87.41c.23.12.23.24,0,.36v-.36Z"/>
  <path class="cls-1" d="M99.86,279.31c.23.12.23.24,0,.36v-.36Z"/>
  <path class="cls-1" d="M110.21,279.66c.23.12.23.24,0,.36v-.36Z"/>
  <path class="cls-1" d="M242.18,84.56c.23.12.23.24,0,.36v-.36Z"/>
  <path class="cls-1" d="M102.36,280.02c.23.12.23.24,0,.36v-.36Z"/>
  <path class="cls-1" d="M113.42,280.02c.23.12.23.24,0,.36v-.36Z"/>
  <path class="cls-1" d="M95.58,280.38c.23.12.23.24,0,.36v-.36Z"/>
  <path class="cls-1" d="M179.05,282.87c.23.12.23.24,0,.36v-.36Z"/>
  <path class="cls-1" d="M105.21,284.3c.23.12.23.24,0,.36v-.36Z"/>
  <path class="cls-1" d="M185.47,285.02c.36.32-.54.91-.53.53l.53-.53Z"/>
  <path class="cls-1" d="M97.36,285.37c.23.12.23.24,0,.36v-.36Z"/>
  <path class="cls-1" d="M92.01,72.07c.23.12.23.24,0,.36v-.36Z"/>
  <path class="cls-1" d="M134.46,48.53c.23.12.23.24,0,.36v-.36Z"/>
  <path class="cls-1" d="M158.71,289.65c.23.12.23.24,0,.36v-.36Z"/>
  <path class="cls-1" d="M211.5,29.27c.23.12.23.24,0,.36v-.36Z"/>
  <path class="cls-1" d="M166.21,290.02c.36.32-.54.91-.53.53l.53-.53Z"/>
  <path class="cls-1" d="M190.1,290.01c.23.12.23.24,0,.36v-.36Z"/>
  <path class="cls-1" d="M188.68,24.28c.23.12.23.24,0,.36v-.36Z"/>
  <path class="cls-1" d="M191.17,290.36c.23.12.23.24,0,.36v-.36Z"/>
  <path class="cls-1" d="M97.9,188.71c.17.14-.62.94-1.07.71-.17-.14.62-.94,1.07-.71Z"/>
  <path class="cls-1" d="M204.37,199.77c.23.12.23.24,0,.36v-.36Z"/>
  <path class="cls-1" d="M219.9,208.68l.71-.18c.18.74-.95.76-1.05.92-.16.27,1.17.98-1.1,1.57l1.08.18c-.86,1.12.27,3.63.21,4.1-.04.36-.57.78-.75,1.25-.29.79-.23,2.66-1.42,2.13-.38-.17-.93-1.54-.92-1.92,0-.21.62-.21.83-.65.38-.78,1.22-2.9,1.15-3.65-.01-.15-.81-2.72-.88-2.85-.14-.27-.85.26-1.08-.37,1.28-.38.87-1.25,1.07-1.6.05-.09,1.76.85,1.42-.35h.35s.37,1.42.37,1.42Z"/>
  <path class="cls-1" d="M89.05,235.35c.94,1.92,2.56,3.92,3.86,5.7.73,1,.75,2.94,2.13,2.59.14.65-.59.22-.71.36-.17.2.99.83.71,1.42-.36-.57-1.95-.57-2.08-.77-.18-.27-.02-.99-.39-1.58-.34-.53-1.18-.64-1.46-1.15-.51-.91.68-1.79-1.07-1.5l.71-.53c-1.73-.85-1.25-2.63-2-3.65s-1.76-.69-.67-2.59c1.63.54.77,1.3.97,1.69ZM88.45,234.72v.36c.23-.12.23-.24,0-.36Z"/>
  <path class="cls-1" d="M213.06,226.95c.09.14-.17,2.51.41,3.14l-2.14.36c1.19,2.21-.39,2.17-1.61,3.56l-.17-3.54c1.38-.08,2.64-1.1,1.78-2.51l1.07.35-.7-1.97c.23-.1,1.33.55,1.37.61Z"/>
  <path class="cls-1" d="M185.29,149.83l-.71,1.06c1.55-.77,1.48.38,1.62.38.3.01,1.06-.54,1.23-.38.09.08.6,1.77.78,2.27.55,1.5-2.51.94-1.66-.45-.45.46-1.1-.5-1.24-.38l-.19.71c-.66-.72-2.04-1.99-1.28-2.99l1.45-.21Z"/>
  <path class="cls-1" d="M83.99,190.14c0-.23-.73-1.14-.18-1.43,1.93-.16,1.07.17.89,1.43h-.71Z"/>
  <path class="cls-1" d="M84.7,190.14c-.29,2.03-.36,2.87-1.05,4.91-.31.91-.08,2.44-.17,3.48-.03.36.52.62-.39.53-2.46-1.9.48-4.39.74-6.4.05-.41.15-2.2.15-2.52l.53.35.18-.35Z"/>
  <path class="cls-1" d="M181.36,144.84h-.71s0-.71,0-.71c1.02-.34.61.63.71.71.19.15,2-.11,2.5,0l-.17.71h-.89c.95.15,1.89.46,2.49,1.25-1.17,1.24-1.53,1.22-3.2,1.24l.35-1.42h-1.78s.71-1.79.71-1.79ZM181.54,145.55v.36c.23-.12.23-.24,0-.36Z"/>
  <path class="cls-1" d="M193.04,151.35c.4.32.39,1.27.02,1.61-1.66,1.54-3.94-1.31-3.49-3.13,1.81-.44,1.7.54,2.54,1.22.24.19.72.14.93.3Z"/>
  <path class="cls-1" d="M203.45,167.64l-1.75.38.36-1.06c-1.8-.14-2.86-.45-2.5-2.5,1.85-.13,4.21,1.11,3.89,3.18Z"/>
  <path class="cls-1" d="M84.66,220.06c-.09.14-1.01-.21-.67.76l1.07-.35c-.49.83.48,1.51.38,2.29-.02.17-1.34.12-.2,1.98-.18-.44-1.84-1.74-1.89-1.86-.21-.43.25-1.04.05-1.62-.16-.46-.85-.42-.85-.63,0-.56.86-1.82,1.27-2.3l.85,1.74ZM84.17,221.88v.36c.23-.12.23-.24,0-.36Z"/>
  <path class="cls-1" d="M135.35,143.77c.21.51.59.57,1.06.53l-2.62,1.58c-1.38-.66.15-1.97-1.65-1.03l-.36-1.78c.15-.17.93.37,1.23.38.23,0,.23-1.17.55-.73.04.06.02,1.1.9.63.32-.17-.06-.91.89-.63.07.31-.09.85,0,1.07h-.71s.54.71.54.71l.18-.71ZM134.28,144.48h-.71v.35h.71v-.35Z"/>
  <path class="cls-1" d="M198.34,156.4c.07.03,1.18.74,1.23.8,1.26,1.57-1.3,1.52-2.51,1.91-.08-.08-.21-1.81-.38-2.24s-1-.02-.7-.97c.94.11,1.45.09,2.35.5Z"/>
  <path class="cls-1" d="M130.7,270.03c.06.06.35,1.5.21,1.79-.27.59-1.35.52-1.8.97l-1.95-1.87c1.38.26.88-1.06,1.07-1.25.28-.29,1.26.42,1.62.53.23.07.76-.26.85-.17Z"/>
  <path class="cls-1" d="M121.73,267.28c.19.27,0,.91.07.98.11.11.8-.33,1.18-.25.7.14,1.78,1.05,2.74.96l-.36,1.78c-1.19-.76-2.28.09-2.37-1.3-.03-.41.26-.78.23-1.19l-1.06,1.42-.21-.72-.86.37v-1.07c-.89-.45-.63.73-.91.74-1.79.1-.6-2.15-2.3-1.1-.16-.93.14-.64.77-.81.74-.21,2.6-.5,3.08.2ZM119.84,267.54v.36c.23-.12.23-.24,0-.36Z"/>
  <path class="cls-1" d="M194.13,156.7c.08.03.65,1.09,1.15,1.16l-.71.35c-.06.33,1.51,1.21,1.06,1.61-.24.21-4.72-1.64-2.88-3.05.45-.23.9-.26,1.37-.06Z"/>
  <path class="cls-1" d="M133.1,267.64c.06.02.06.42.4.59.6.31,1.48-.38,1.5,1.45-1.41.66-2.46-.47-3.92-.36l1.07-1.06-1.42-.35c.66-.09,1.76-.45,2.38-.26Z"/>
  <path class="cls-1" d="M188.14,148.05s-.27.43-.13.71c.32.64,1.34.88,1.2,1.78-1.36-.7-4.01.59-3.56-1.42l.7.19-.35-1.26h2.14ZM187.43,148.76h-.71v.35h.71v-.35Z"/>
  <path class="cls-1" d="M87.56,224.74s.48-.34.63-.27c.07.03,1.08,1.1,1.09,1.18.07.34-.32.76-.31,1.02,0,.09,1.72.83.18,1.27-1.45.42-1.1-1.39-1.43-2.12-.52-1.14-2.14-.83-.17-2.15v1.07Z"/>
  <path class="cls-1" d="M98.61,243.99c-.11.13-.85-.29-.71.36l1.26-.02-.36,1.8c-.89-1.44-2.67-1.84-2.32-3.92.37-.42,2.26,1.64,2.14,1.78ZM97.36,243.64v.36c.23-.12.23-.24,0-.36Z"/>
  <path class="cls-1" d="M215.96,211.9c.08.07.63,1.49,1.08,1.78l-1.07-.35c.35,1.22.65,2.47-.71,3.21l-.72-1.06,1.07-.18c-1.01-.41-.69-4.27.35-3.39Z"/>
  <path class="cls-1" d="M215.26,195.13l-1.78-1.96,1.6-1.6c.86,0,1.13,4.06.18,3.56Z"/>
  <path class="cls-1" d="M86.48,216.53c-.67.61-.71-.49-.81-.78-.17-.51-.78-3.33-.61-3.5,1.41-1.43,1.92,3.82,1.42,4.28ZM85.95,212.96v.36c.23-.12.23-.24,0-.36Z"/>
  <path class="cls-1" d="M203.79,161.29c.46.74-.02,1.78-1.13,1.68-1.66-.15-1.65-3.01-.62-2.62.11.04,1.69.85,1.74.94ZM203.12,162.67v-.71h-.35v.71h.35Z"/>
  <path class="cls-1" d="M212.75,180.51s.35.02.36,0c-.03,0,.04.26-.36,0Z"/>
  <path class="cls-1" d="M212.75,180.51c-.14-.09-1.34-1.04-1.37-1.12-.04-.07.15-1.48.84-1.38.88.13,1.03,1.64,2.32,1.43-.24.27-.68,1.31-.77,1.37-.15.1-.48-.27-.65-.3.15-.33-.51-.33-.36,0Z"/>
  <path class="cls-1" d="M215.61,228.65c.04.06.32-.01.45.11,1.64,1.47-.07.53-.45.78-.75.5.9,1.95-1.61,1.96l1.25-2.84-1.07-.72,2.14-.72c.28.61-.87,1.2-.71,1.42Z"/>
  <path class="cls-1" d="M103.43,254.19c.72.7.83,2.05-.35,1.57-.15-.06-1.87-2.07-1.97-2.48,1.5-.27,1.52.14,2.32.92Z"/>
  <path class="cls-1" d="M88.27,189.07c-.31.69-.75,1.33-1,2.06-.26.76-.02,2.46-1.14,2.22.12-.64-.08-2.3.12-2.77.03-.07.44-.12.6-.33.49-.68-.04-1.49,1.42-1.17Z"/>
  <path class="cls-1" d="M208.47,237.58c.04-.36.83-2.41,1.43-1.78.09.09-.5,1.74-1.43,1.78-.03.23.74.81,0,1.26-1.79-.56-.79.61-1.08.88-.91.86-1.6-1.02-.62-2.06.52-.55,1.26-.06,1.7-.08Z"/>
  <path class="cls-1" d="M122.87,145.19c-.04-.22.01-.48,0-.71h1.07s0,.53,0,.53c-.16.29-.46.37-.71.54.06-.4-.31-.32-.36-.36Z"/>
  <path class="cls-1" d="M122.87,145.19c.04.26.04.39.36.36-.59.39-.79.02-.99.12-.31.14-.33.71-1.7.94-1,.17.32-.99-.87-.34-.34-1.37,1.96-1.07,2.05-1.15.36-.32-.4-1.15,1.15.08Z"/>
  <path class="cls-1" d="M89.53,183.93c-.05.12-.4.11-.51.39-.05.13-.1,2.77-.57,2.61-.92-.3.35-2.39.11-3.06.32-.78,1.32-.39.42-1.93,2.12-.02,1.09.79.55,1.99Z"/>
  <path class="cls-1" d="M102.18,250.06c.18.18.65-.66.89-.66.6,0,1.86,2.36.72,2.08-1.29-.32-.78-1.28-.9-1.42-.04-.04-.78.47-1.08.22s-.21-.94-.44-1.19c-.25-.26-2.82-.85-.51-1.17.6-.08-.24-.71-.1-1.07,1.05.57,1.29,2.13,1.43,3.21Z"/>
  <path class="cls-1" d="M127.77,266.56c.2.21.19.99.45,1.33-1.31.62-1.82-.85-3.21-.71.64-.72,2.02-1.39,2.76-.62Z"/>
  <path class="cls-1" d="M82.56,206.54c-.35.27-1.29-.54-1.37-.94-.13-.66,1.02-1.52,1.02-2.26.81.07.48,3.1.35,3.2Z"/>
  <path class="cls-1" d="M130.36,145.2l-.19,1.08c-.7.35-1.23.18-1.78-.36v.71s-1.24-.36-1.24-.36c.56-1.38,1.97-1.09,3.21-1.06Z"/>
  <path class="cls-1" d="M84.71,188.35c0-1.18-.03-2.45,1.03-3.14l.93-2.92-.28,2.92-1.68,3.14Z"/>
  <path class="cls-1" d="M209.34,177.5c.21.27.75.04.57,1.02-.28,1.54-.61.6-1.26.2-.25-.15-.56.33-.55-.52,0-.56.33-1.06.38-1.61.2-.15.68.69.86.92Z"/>
  <path class="cls-1" d="M216.68,202.98l.71-.36c.09.79.03.89-.74.57-2.82-1.15,1.21-5.01.03-.21Z"/>
  <path class="cls-1" d="M206.99,172c.11.1.97,2.36,1.12,2.8h-1.78s1.07-1.42,1.07-1.42l-1.74-.04c.29-.62-.16-.88-.4-1.39.46.07,1.47-.18,1.73.05Z"/>
  <path class="cls-1" d="M189.54,153.8c.37.28-.37.86,1.82.31-1.01.58-.27,2.05-.36,2.13-.12.11-.62-.25-.89-.19-.44.1-.68.69-1.25.54l-.36-1.78c.24.41,1.76,1.9,1.4.56-.36-1.36-1.42-1-1.4-1.09.04-.24.7-.74,1.03-.49Z"/>
  <path class="cls-1" d="M120.91,263.26l1.59,1.25c-1.6.19-3.47,1.13-1.59-1.25Z"/>
  <path class="cls-1" d="M97.9,248.99l-.89-.72-.35.72c-1.85-1.73,1.38-2.33,1.24,0Z"/>
  <path class="cls-1" d="M216.67,203.69c.17.15-.24,1.11-.45,1.33-1.42,1.48-1.91-2,.45-1.33Z"/>
  <path class="cls-1" d="M107.17,259.33c.04.08.46.6.71,1.07.94-.15.62.53,1.08.87.4.3,1.15-.06,1.06.55-1.53.66-1.61-.43-2.14-1.42-1.08.17-1.16,1.09-1.07-1.07h.36Z"/>
  <path class="cls-1" d="M107.17,259.33l-.18-.35c-.22,0-.16.34-.18.35-.19.1-.62.4-.69.35l-.74-1.24c.7-.58,1.51-.67,1.98.21.22.4-.21.65-.2.68Z"/>
  <path class="cls-1" d="M92.55,179.08c-.75.74-2.16-.68-1.42-1.42.58-.58,2,.85,1.42,1.42Z"/>
  <path class="cls-1" d="M217.99,222.85c-.03.07-1.05,1.14-1.31.81-.64-.83.6-1.76,1.25-2.14.4.19.18.98.06,1.33Z"/>
  <path class="cls-1" d="M210.61,172.66c-1.25,0-1.42-1.22-1.06-2.14l1.06,2.14Z"/>
  <path class="cls-1" d="M213.11,185.85c-1.88.15-1.6-1.13-.53-2.13.07.83-.04,1.42.53,2.13Z"/>
  <path class="cls-1" d="M114.66,261.47c.05-.05-.23-1.13.89-.71,1.64.61-.12.99-.17,1.07.23-.19-.49-.55-.71-.36Z"/>
  <path class="cls-1" d="M114.66,261.47c-.23.19.49.55.71.36-.1.14.11.97,0,1.07-.25.22-1.24-.08-1.42-.54-.43-1.11.66-.84.71-.89Z"/>
  <path class="cls-1" d="M95.4,166.95c.25.22-.44,1.06-.61,1.36-.25.44.22.99-.81.78l.42-1.97,1-.17Z"/>
  <polygon class="cls-1" points="210.96 182.29 211.32 183.71 209.9 183.35 210.26 182.29 210.96 182.29"/>
  <path class="cls-1" d="M214.28,219.28c.32.16.63.14.97.11l-.9,1.77-.53-1.96c.21-1.37.34.02.46.08Z"/>
  <path class="cls-1" d="M123.94,147.33c.86-2.03,2.46-.38,1.23-.01-.35.1-.84-.02-1.23.01Z"/>
  <path class="cls-1" d="M103.6,157.33c.15.59-.59.14-.72.61-.28,1.06.64,1.36-1.42,1.17.47-.68,1.21-1.78,2.14-1.78Z"/>
  <polygon class="cls-1" points="196.7 154.47 196.7 154.82 194.92 155.54 194.92 154.47 196.7 154.47"/>
  <polygon class="cls-1" points="197.6 160.18 197.24 161.97 196.88 162.31 196.35 161.78 197.6 160.18"/>
  <path class="cls-1" d="M218.46,220.45c-.09.09-2.49.76-1.79-.35l1.78-.36c-.02.22.05.65,0,.71Z"/>
  <path class="cls-1" d="M98.97,162.32c.42.38-.89,1.43-1.42,1.25.23-.56.62-1.97,1.42-1.25Z"/>
  <polygon class="cls-1" points="110.39 155.89 110.03 155 110.56 154.48 111.1 155.35 110.39 155.89"/>
  <path class="cls-1" d="M132.46,272.58s.24.83.4,1.02c-.68.15-.96-.46-1.42-.89.03-.33.9-.22,1.03-.13Z"/>
  <polygon class="cls-1" points="85.77 205.83 85.77 206.36 85.06 206.9 84.71 205.47 85.77 205.83"/>
  <path class="cls-1" d="M82.91,214.03c.08.07.1.84.34,1.19s.86.04.73.59c-1.45.39-2.28-2.86-1.07-1.78Z"/>
  <path class="cls-1" d="M118.95,262.19l1.06.89-.53.53c-.55-.38-.62-.77-.53-1.42Z"/>
  <polygon class="cls-1" points="204.54 165.88 203.49 164.99 204.02 164.46 204.54 165.88"/>
  <path class="cls-1" d="M90.41,230.09c.05.06-.02.49,0,.71h-2.14c.13-.95,1.68-1.25,2.14-.71Z"/>
  <path class="cls-1" d="M214.89,234.36s-.84.35-.89.35c-1.65-.14.76-1.22.89-1.06.03.04.03.68,0,.71Z"/>
  <polygon class="cls-1" points="83.63 216.17 83.63 217.24 82.21 216.35 83.63 216.17"/>
  <path class="cls-1" d="M110.03,255.77c-.26.58-.78,1.18-1.43,1.06.26-.58.78-1.18,1.43-1.06Z"/>
  <path class="cls-1" d="M210.97,175.51c-.58-.26-1.18-.78-1.06-1.43.58.26,1.18.78,1.06,1.43Z"/>
  <path class="cls-1" d="M87.2,197.63h-.71c-.12-.53.16-.74.53-1.07l.17,1.07Z"/>
  <path class="cls-1" d="M85.06,209.4c-.12.52-.58.82-1.07.71v-.71s1.07,0,1.07,0Z"/>
  <rect class="cls-1" x="98.06" y="249.15" width=".75" height=".75" transform="translate(-147.61 142.69) rotate(-45)"/>
  <path class="cls-1" d="M115.74,267.54v-1.42s.35,0,.35,0c.17.76.61,1.11-.35,1.42Z"/>
  <path class="cls-1" d="M194.56,153.4h-.71s0-1.07,0-1.07c.52.12.82.58.71,1.07Z"/>
  <path class="cls-1" d="M118.59,263.61c-.17,0-.37.06-.53,0-.98-.39.05-2.03.53,0Z"/>
  <path class="cls-1" d="M97.18,246.14l-.17,1.07c-.38-.32-.65-.54-.53-1.07h.71Z"/>
  <path class="cls-1" d="M194.2,154.11v.71s-1.07,0-1.07,0c.12-.52.58-.82,1.07-.71Z"/>
  <path class="cls-1" d="M94.69,238.29c.05.05-.02.23,0,.35-.64.1-1.25-.02-1.42-.71.28-.04,1.34.28,1.42.36Z"/>
  <path class="cls-1" d="M208.11,168.74c-.14.17-.94-.62-.71-1.07.14-.17.94.62.71,1.07Z"/>
  <path class="cls-1" d="M203.83,170.16c.39.39-.32,1.1-.71.71s.32-1.1.71-.71Z"/>
  <polygon class="cls-1" points="211.68 173.37 210.61 173.2 211.15 172.67 211.68 173.37"/>
  <path class="cls-1" d="M205.97,163.74c.39.39-.32,1.1-.71.71s.32-1.1.71-.71Z"/>
  <polygon class="cls-1" points="86.48 227.59 86.48 228.3 85.42 227.94 85.42 227.59 86.48 227.59"/>
  <path class="cls-1" d="M211.32,179.79c.39.39-.32,1.1-.71.71s.32-1.1.71-.71Z"/>
  <polygon class="cls-1" points="214.18 224.38 214.36 223.31 214.89 223.84 214.18 224.38"/>
  <polygon class="cls-1" points="105.39 159.11 104.85 159.81 104.32 159.28 105.39 159.11"/>
  <path class="cls-1" d="M113.6,149.83c-.24-.45.57-1.24.71-1.07.24.45-.57,1.24-.71,1.07Z"/>
  <polygon class="cls-1" points="85.77 199.77 85.6 200.48 85.06 199.77 85.77 199.77"/>
  <polygon class="cls-1" points="86.13 194.77 85.42 194.06 86.31 193.71 86.13 194.77"/>
  <polygon class="cls-1" points="140.7 271.1 139.99 271.1 140.53 270.39 140.7 271.1"/>
  <polygon class="cls-1" points="219.53 191.92 219.35 192.63 218.82 191.92 219.53 191.92"/>
  <polygon class="cls-1" points="215.61 206.9 214.89 206.9 214.9 206.19 215.61 206.9"/>
  <polygon class="cls-1" points="214.89 209.39 214.18 209.4 214.18 208.68 214.89 209.39"/>
  <polygon class="cls-1" points="215.6 189.06 214.54 188.35 215.07 187.64 215.6 189.06"/>
  <polygon class="cls-1" points="216.68 226.87 215.96 226.87 215.97 226.16 216.68 226.87"/>
  <polygon class="cls-1" points="87.55 180.51 87.38 181.22 86.84 180.51 87.55 180.51"/>
  <polygon class="cls-1" points="148.91 269.67 148.19 269.68 148.2 268.96 148.91 269.67"/>
  <polygon class="cls-1" points="213.11 231.51 212.4 231.51 212.4 230.8 213.11 231.51"/>
  <rect class="cls-1" x="212.75" y="233.3" width="1.07" height=".35"/>
  <polygon class="cls-1" points="140.34 272.89 140.17 273.6 139.63 272.89 140.34 272.89"/>
  <polygon class="cls-1" points="101.47 163.75 100.76 164.46 100.75 163.74 101.47 163.75"/>
  <polygon class="cls-1" points="97.18 164.45 96.47 164.45 97.01 163.74 97.18 164.45"/>
  <polygon class="cls-1" points="124.29 266.11 124.29 266.46 122.87 266.82 122.87 266.11 124.29 266.11"/>
  <polygon class="cls-1" points="117.52 151.61 116.81 151.61 116.81 150.9 117.52 151.61"/>
  <rect class="cls-1" x="138.21" y="145.2" width=".71" height=".35"/>
  <path class="cls-1" d="M138.2,146.62h-.35s-.72-1.06-.72-1.06c.65-.12,1.18.39,1.06,1.06Z"/>
  <rect class="cls-1" x="125.37" y="147.69" width=".35" height=".71"/>
  <rect class="cls-1" x="108.96" y="152.33" width=".35" height=".71"/>
  <rect class="cls-1" x="130.72" y="143.06" width=".35" height=".71"/>
  <rect class="cls-1" x="191.35" y="155.54" width=".71" height=".35"/>
  <rect class="cls-1" x="199.2" y="162.32" width=".71" height=".35"/>
  <rect class="cls-1" x="123.94" y="264.33" width=".71" height=".35"/>
  <rect class="cls-1" x="112.53" y="259.69" width=".35" height=".71"/>
  <rect class="cls-1" x="204.55" y="170.52" width=".35" height=".71"/>
  <rect class="cls-1" x="205.62" y="170.52" width=".35" height=".71"/>
  <rect class="cls-1" x="95.4" y="251.85" width=".71" height=".35"/>
  <rect class="cls-1" x="200.98" y="250.06" width=".71" height=".35"/>
  <rect class="cls-1" x="206.34" y="240.79" width=".35" height=".71"/>
  <rect class="cls-1" x="86.13" y="229.38" width=".71" height=".35"/>
  <rect class="cls-1" x="215.25" y="226.52" width=".35" height=".71"/>
  <rect class="cls-1" x="216.68" y="221.17" width=".35" height=".71"/>
  <rect class="cls-1" x="213.47" y="216.53" width=".35" height=".71"/>
  <rect class="cls-1" x="216.32" y="196.56" width=".35" height=".71"/>
  <path class="cls-1" d="M215.96,187.64l-.35-.18.35-.18s-.04.34,0,.36Z"/>
  <path class="cls-1" d="M215.96,187.28c-1.51-1.67-1.62-3.15-1.42-5.35.8.04.36.96.42,1.01.66.6,3.57.51,1,2.55,1.66.09.17,3.05,2.14,2.5-.68.98.17,1.39.36,1.97.06.2-.73.14-.74.35-.01.46.97,2.14.74,3.03l1.06-.18c-1.33,1.06-.29,1.31.36,2.31-1.43-.15-.95,1.71-.17,2.14s.34-1.19.89-.53c-.53,1.05-1.64,1.14-1.43,2.67-2.91-.87-1.11-1.62-1.09-3.03,0-.18-.43-3.16-.5-3.5-.39-1.92-1.49-3.65-1.62-5.59.15.05.74.1.72-.18l-.72-.18ZM216.14,185.86v.36c.23-.12.23-.24,0-.36Z"/>
  <rect class="cls-1" x="82.57" y="211.18" width=".35" height=".71"/>
  <path class="cls-1" d="M85.59,204.76c.23.12.23.24,0,.36v-.36Z"/>
  <path class="cls-1" d="M216.5,205.47c.23.12.23.24,0,.36v-.36Z"/>
  <path class="cls-1" d="M216.14,206.19c.23.12.23.24,0,.36v-.36Z"/>
  <path class="cls-1" d="M215.78,207.97c.23.12.23.24,0,.36v-.36Z"/>
  <path class="cls-1" d="M216.85,210.11c.23.12.23.24,0,.36v-.36Z"/>
  <path class="cls-1" d="M82.03,215.1c.23.12.23.24,0,.36v-.36Z"/>
  <path class="cls-1" d="M85.95,217.24c.23.12.23.24,0,.36v-.36Z"/>
  <path class="cls-1" d="M213.29,222.59c.23.12.23.24,0,.36v-.36Z"/>
  <path class="cls-1" d="M213.29,223.66c.23.12.23.24,0,.36v-.36Z"/>
  <path class="cls-1" d="M214,224.73c.23.12.23.24,0,.36v-.36Z"/>
  <path class="cls-1" d="M84.52,225.81c.23.12.23.24,0,.36v-.36Z"/>
  <path class="cls-1" d="M87.73,229.73c.23.12.23.24,0,.36v-.36Z"/>
  <path class="cls-1" d="M214.72,232.59c.36.32-.54.91-.53.53l.53-.53Z"/>
  <path class="cls-1" d="M211.15,233.3c.23.12.23.24,0,.36v-.36Z"/>
  <path class="cls-1" d="M209.72,239c.23.12.23.24,0,.36v-.36Z"/>
  <path class="cls-1" d="M205.8,240.07c.23.12.23.24,0,.36v-.36Z"/>
  <path class="cls-1" d="M204.01,241.5c.23.12.23.24,0,.36v-.36Z"/>
  <path class="cls-1" d="M211.86,183c.23.12.23.24,0,.36v-.36Z"/>
  <path class="cls-1" d="M87.02,181.58c.23.12.23.24,0,.36v-.36Z"/>
  <path class="cls-1" d="M216.14,179.08c.23.12.23.24,0,.36v-.36Z"/>
  <path class="cls-1" d="M97.36,249.7c.23.12.23.24,0,.36v-.36Z"/>
  <path class="cls-1" d="M210.79,178.37c.23.12.23.24,0,.36v-.36Z"/>
  <path class="cls-1" d="M196.52,250.77c.23.12.23.24,0,.36v-.36Z"/>
  <path class="cls-1" d="M107.71,251.84c.23.12.23.24,0,.36v-.36Z"/>
  <path class="cls-1" d="M93.44,175.16c.23.12.23.24,0,.36v-.36Z"/>
  <path class="cls-1" d="M212.93,173.37c.23.12.23.24,0,.36v-.36Z"/>
  <path class="cls-1" d="M106.64,254.7c.23.12.23.24,0,.36v-.36Z"/>
  <path class="cls-1" d="M112.7,256.84c.23.12.23.24,0,.36v-.36Z"/>
  <path class="cls-1" d="M96.65,169.45c.23.12.23.24,0,.36v-.36Z"/>
  <path class="cls-1" d="M205.44,166.95c.23.12.23.24,0,.36v-.36Z"/>
  <path class="cls-1" d="M109.49,262.54c.23.12.23.24,0,.36v-.36Z"/>
  <path class="cls-1" d="M113.42,263.61c.23.12.23.24,0,.36v-.36Z"/>
  <path class="cls-1" d="M200.8,161.96c.23.12.23.24,0,.36v-.36Z"/>
  <path class="cls-1" d="M115.91,265.4c.23.12.23.24,0,.36v-.36Z"/>
  <path class="cls-1" d="M204.01,159.82c.23.12.23.24,0,.36v-.36Z"/>
  <path class="cls-1" d="M168.7,266.47c.23.12.23.24,0,.36v-.36Z"/>
  <path class="cls-1" d="M144.09,268.61c.23.12.23.24,0,.36v-.36Z"/>
  <path class="cls-1" d="M100.93,158.75c.23.12.23.24,0,.36v-.36Z"/>
  <path class="cls-1" d="M201.16,158.03c.23.12.23.24,0,.36v-.36Z"/>
  <path class="cls-1" d="M140.52,269.68c.23.12.23.24,0,.36v-.36Z"/>
  <path class="cls-1" d="M132.32,271.82c.23.12.23.24,0,.36v-.36Z"/>
  <path class="cls-1" d="M145.16,272.17c.23.12.23.24,0,.36v-.36Z"/>
  <path class="cls-1" d="M143.02,275.38c.23.12.23.24,0,.36v-.36Z"/>
  <path class="cls-1" d="M124.47,143.41c.23.12.23.24,0,.36v-.36Z"/>
  <path class="cls-1" d="M185.47,147.69c.23.12.23.24,0,.36v-.36Z"/>
  <path class="cls-1" d="M132.32,145.91c.23.12.23.24,0,.36v-.36Z"/>
  <path class="cls-1" d="M112.35,265.04c.23.12.23.24,0,.36v-.36Z"/>
  <path class="cls-1" d="M154.23,131.97c-.08.12-1.74.42-2.11.74l-.18-1.42-.89,1.07-.36-1.78c1.29.89.82-.6,2.14-.36.12-.1-2.12-2.05,1.43-.89l-.03,2.65ZM152.83,130.57h-.71v.35h.71v-.35Z"/>
  <path class="cls-1" d="M156.39,124.15c.3.29,0,1.67-.72,1.6l1.07-.18c.04,1.68-1.22,1.65-2.5,1.78l-.71-.71c-.15-.6.5-.21.66-.41s-.28-.69-.11-1.02c.22-.44,1.83-1.52,2.3-1.06Z"/>
  <path class="cls-1" d="M161.79,107.43c1.43-.83,2.61,2.43.8,2.75s-1.59-2.29-.8-2.75Z"/>
  <path class="cls-1" d="M157.37,116.43c.07.04.06.58.31.59.42.01,1.46-.97.99.99-.5,2.1-2.92.54-2.53-.46.09-.23.6-.13.59-.34-.03-.45-.8-1.62.65-.77ZM157.29,118.09v.36c.23-.12.23-.24,0-.36Z"/>
  <path class="cls-1" d="M155.28,119.92c.24.24-.07,2.23.04,2.81-.91-.09-1.12-.87-2.14-.36l.17-1.79h.9s-.34-.89-.34-.89c.27-.04,1.32.18,1.37.23ZM154.43,121.3v.36c.23-.12.23-.24,0-.36Z"/>
  <path class="cls-1" d="M152.27,126.15c.11.14.54.14.57.33.22,1.57-3.68,2.14-3.05.17l1.61.71c-.48-.79-.21-1.32,0-2.14.19-.15.68.69.86.93ZM151.58,126.29v.36c.23-.12.23-.24,0-.36Z"/>
  <path class="cls-1" d="M150.68,133.78l.21-.73,1.58.38c-1.28,1.95-4.88.89-2.67-1.07.41.4.1,1.33.88,1.42Z"/>
  <path class="cls-1" d="M152.97,116.9c.13.23.7.01.57.3-.07.16-1.13.87-1.25.9-.24.04-.14-.52-.25-.57-.18-.08-.96.14-.98-.32-.02-.54.65-1.45,1.24-1.6.45.32.43.87.67,1.3Z"/>
  <path class="cls-1" d="M156.75,112.74l-.35,1.43.71.17-.89.9-.71-1.07-.53.71c-.27-1.81.07-1.94,1.78-2.14Z"/>
  <path class="cls-1" d="M151.05,122.73c-.77.95.96.61.18,1.78-.02-.58-3.11-1.37-2.32-2.14.25-.24,1.46.99,2.14.36Z"/>
  <path class="cls-1" d="M161.74,103.82c.25,1.78-1.38,1.6-2.14.53,1.21-1.33.82-.26,2.14-.53Z"/>
  <path class="cls-1" d="M153.54,103.82h1.43c.26,1.18-1.12.3-.35,1.43-1.62.2-1.09-.49-1.29-1.24-.13-.5-.93-1.11.22-1.08v.89Z"/>
  <path class="cls-1" d="M158.89,108.81h-1.79s0-1.07,0-1.07l1.07-.35-1.78-.18c1.25-1.32,2.25.54,2.49,1.6Z"/>
  <path class="cls-1" d="M152.83,113.1c-.9,1.21-2.58.87-1.78-.72l1.78.72Z"/>
  <path class="cls-1" d="M160.67,112.02c1.02,1.12-2.51,2.21-1.39.39.04-.06,1.28-.52,1.39-.39Z"/>
  <path class="cls-1" d="M154.61,108.46l.36,1.42c-.43.42-2.44-1.41-.36-1.42Z"/>
  <path class="cls-1" d="M151.04,102.39l-.53,1.42c-.94-.86-.86-1.71.53-1.42Z"/>
  <polygon class="cls-1" points="164.24 101.68 162.1 101.33 164.24 100.61 164.24 101.68"/>
  <path class="cls-1" d="M164.98,105.94c.13.15.83-.26.68.37l-1.42.36,1.06-1.78c.08.32-.42.93-.33,1.05Z"/>
  <path class="cls-1" d="M148.9,115.23h-.35c-.14-1.42-.79-1.28.71-1.78l-.36,1.78Z"/>
  <polygon class="cls-1" points="142.84 110.24 143.02 108.81 143.9 109.7 143.37 110.24 142.84 110.24"/>
  <path class="cls-1" d="M146.76,122.01v1.07c-.69-.37-1.3-.2-1.07-1.07h1.07Z"/>
  <path class="cls-1" d="M152.11,136.99h-.71c-.09-.66-.01-1.04.53-1.42l.17,1.42Z"/>
  <path class="cls-1" d="M158.89,120.94c.37.35-.67,1.63-1.06.53-.27-.75.93-.65,1.06-.53Z"/>
  <path class="cls-1" d="M144.98,114.16l-1.78-.17c.56-.79,1.44-.78,1.78.17Z"/>
  <path class="cls-1" d="M151.04,106.68c.83.96-.86.45-1.42.35-.02-.77,1.19-.62,1.42-.35Z"/>
  <path class="cls-1" d="M161.39,113.81c-.26.58-.78,1.18-1.43,1.06.26-.58.78-1.18,1.43-1.06Z"/>
  <path class="cls-1" d="M149.62,130.93c.11.49-.19.95-.71,1.07v-1.07s.71,0,.71,0Z"/>
  <path class="cls-1" d="M159.25,100.61h-1.07s0-.71,0-.71c.49-.11.95.19,1.07.71Z"/>
  <path class="cls-1" d="M154.61,110.24l-.17,1.07c-.38-.32-.65-.54-.53-1.07h.71Z"/>
  <path class="cls-1" d="M146.41,105.25c.39.39-.32,1.1-.71.71s.32-1.1.71-.71Z"/>
  <polygon class="cls-1" points="166.74 103.82 166.74 104.17 165.67 104.53 165.67 103.82 166.74 103.82"/>
  <rect class="cls-1" x="146.77" y="127.36" width="1.07" height=".35"/>
  <polygon class="cls-1" points="146.77 125.93 146.05 125.93 146.06 125.22 146.77 125.93"/>
  <polygon class="cls-1" points="147.84 109.52 147.12 109.52 147.13 108.81 147.84 109.52"/>
  <polygon class="cls-1" points="138.56 103.46 138.39 104.17 137.85 103.47 138.56 103.46"/>
  <rect class="cls-1" x="157.11" y="100.26" width=".71" height=".35"/>
  <rect class="cls-1" x="164.96" y="106.67" width=".35" height=".71"/>
  <rect class="cls-1" x="149.98" y="107.75" width=".71" height=".35"/>
  <rect class="cls-1" x="147.48" y="110.24" width=".71" height=".35"/>
  <rect class="cls-1" x="161.39" y="112.38" width=".35" height=".71"/>
  <rect class="cls-1" x="151.05" y="137.35" width=".71" height=".35"/>
  <path class="cls-1" d="M147.48,125.58h.35l.19,1.06c-.38-.32-.65-.54-.53-1.06Z"/>
  <rect class="cls-1" x="146.41" y="126.29" width=".71" height=".35"/>
  <rect class="cls-1" x="149.98" y="131.29" width=".35" height=".71"/>
  <path class="cls-1" d="M149.8,121.65c.23.12.23.24,0,.36v-.36Z"/>
  <path class="cls-1" d="M144.09,118.8c.23.12.23.24,0,.36v-.36Z"/>
  <path class="cls-1" d="M161.21,116.66c.23.12.23.24,0,.36v-.36Z"/>
  <path class="cls-1" d="M141.95,114.16c.23.12.23.24,0,.36v-.36Z"/>
  <path class="cls-1" d="M158.36,113.09c.23.12.23.24,0,.36v-.36Z"/>
  <path class="cls-1" d="M151.94,111.67c.23.12.23.24,0,.36v-.36Z"/>
  <path class="cls-1" d="M151.94,106.67c.23.12.23.24,0,.36v-.36Z"/>
  <path class="cls-1" d="M163.71,104.18c.23.12.23.24,0,.36v-.36Z"/>
  <path class="cls-1" d="M167.27,102.39c.23.12.23.24,0,.36v-.36Z"/>
  <path class="cls-1" d="M149.08,102.39c.23.12.23.24,0,.36v-.36Z"/>
  <path class="cls-1" d="M160.5,99.18c.23.12.23.24,0,.36v-.36Z"/>
  <polygon class="cls-1" points="135.35 122.01 134.28 121.66 134.46 122.72 133.58 121.83 134.81 120.94 135.35 122.01"/>
  <path class="cls-1" d="M139.63,123.08c.72,1.08-1.43.08-.71.89.41.46,1.08.35,1.07.89-1.34.23-1.66-.11-1.78-1.42l1.43-.36Z"/>
  <path class="cls-1" d="M132.14,116.66c.49.59-.56.86-1.07,1.07v-1.43c.27.24,1.03.32,1.07.36Z"/>
  <path class="cls-1" d="M141.41,126.29v1.07c-1.31,0-1.31-1.06,0-1.07Z"/>
  <polygon class="cls-1" points="142.84 131.64 142.84 131.99 141.42 132.35 141.42 131.64 142.84 131.64"/>
  <path class="cls-1" d="M145.34,135.92c.39.39-.32,1.1-.71.71s.32-1.1.71-.71Z"/>
  <path class="cls-1" d="M128.93,109.88c.16-.21,1.11,1.05.89,1.42-.44-.45-1.04-.74-.89-1.42Z"/>
  <rect class="cls-1" x="141.06" y="130.22" width=".35" height="1.07"/>
  <polygon class="cls-1" points="142.84 129.86 142.67 130.57 142.13 129.86 142.84 129.86"/>
  <polygon class="cls-1" points="126.08 104.89 125.9 105.6 125.36 104.89 126.08 104.89"/>
  <rect class="cls-1" x="139.63" y="125.58" width=".71" height=".35"/>
  <path class="cls-1" d="M143.38,132c.23.12.23.24,0,.36v-.36Z"/>
  <path class="cls-1" d="M143.02,132.71c.23.12.23.24,0,.36v-.36Z"/>
  <path class="cls-1" d="M157.12,92.77c.59-.63,1.15-.08.71.35-.08.08-1.77.32-2.14.36l.17-2.49c.78.53,1.39.66,1.26,1.78Z"/>
  <path class="cls-1" d="M154.96,83.85l1.07,1.61-1.78.17-.71-.36c-.32-.47.96-1.74,1.42-1.42Z"/>
  <path class="cls-1" d="M153.54,82.42c-.07.79-.85.35-.99.46-1.04.84.07,2.12-2.58,1.32l.36-1.06c.75.38,1.22.51,1.81-.18.47-.54-.73-1.06,1.39-.54Z"/>
  <path class="cls-1" d="M154.25,89.91c-1.58-1.07-.57-1.49.72-1.78l-.72,1.78Z"/>
  <polygon class="cls-1" points="163.88 93.12 163.88 93.47 162.82 93.47 162.82 92.76 163.88 93.12"/>
  <polygon class="cls-1" points="141.06 91.69 141.59 90.99 142.48 91.87 141.06 91.69"/>
  <path class="cls-1" d="M149.97,87.77c.39.39-.32,1.1-.71.71s.32-1.1.71-.71Z"/>
  <rect class="cls-1" x="153.9" y="87.41" width=".35" height=".71"/>
  <rect class="cls-1" x="150.34" y="92.05" width=".35" height=".71"/>
  <path class="cls-1" d="M158,86.7c.23.12.23.24,0,.36v-.36Z"/>
  <path class="cls-1" d="M153.37,83.85c.36.32-.54.91-.53.53l.53-.53Z"/>
  <path class="cls-1" d="M151.94,80.99c.23.12.23.24,0,.36v-.36Z"/>
  <path class="cls-1" d="M175.66,110.24s.46-.18.55-.5c.12-.44-.05-1.26.26-1.56.07-.07,1.62-.85,1.69-.78l-.71,1.06c1.79.21.8,1.65.71,2.86l-1.78-.71-.54,1.42c.17-.56-.23-1.49-.17-1.78-.03.06-1.03.76-1.07.71-.14-.82.3-1.29.89-1.78.3,0,.22.98.18,1.07ZM177.44,108.82h-.71v.35h.71v-.35ZM177.79,110.59v-.71h-.35v.71h.35Z"/>
  <path class="cls-1" d="M173.52,107.39l-1.42,1.61c.7.01,1.47-.49,1.78.53-.96-.84-2.18,1.29-2.85.71-.8-.67.92-.61.71-1.06l-1.07-.71c1.05-.32,1.63-1.22,2.85-1.07Z"/>
  <path class="cls-1" d="M176.01,104.18l-.35,1.42.89-.71c.2,2.11-1.36,1.36-2.67,2.14v-1.43c2.59,1.04-.12-1.94,2.14-1.42Z"/>
  <path class="cls-1" d="M179.22,101.32l-.36-.36c.13.09.23.26.36.36Z"/>
  <path class="cls-1" d="M178.15,101.32c-.06.17.02.49,0,.71l1.07-.71c.16.12,1.12-.35.66.83-.19.48-.88,1.09-1.37,1.31.37-1.6-.91-.92-1.07-1.07-.85-.82.64-1.02.71-1.07Z"/>
  <path class="cls-1" d="M178.15,101.32c.13-.09.22-.27.36-.36.08.3-.35.32-.36.36Z"/>
  <path class="cls-1" d="M178.87,100.97h-.36c.07-.04.07-.35.18-.35s.11.31.18.35Z"/>
  <path class="cls-1" d="M184.19,101.65c-.65-.23-1.24,1.7-1.76,1.09-.26-.3.47-.9.54-1.25.06-.26-.3-.79-.19-.89.4-.33,1.71.26,1.4,1.04Z"/>
  <polygon class="cls-1" points="185.29 102.75 184.93 103.82 184.58 103.82 184.58 102.75 185.29 102.75"/>
  <polygon class="cls-1" points="175.66 100.61 175.65 101.68 175.3 101.68 174.94 100.61 175.66 100.61"/>
  <path class="cls-1" d="M172.09,106.32c.39.39-.32,1.1-.71.71s.32-1.1.71-.71Z"/>
  <polygon class="cls-1" points="178.15 99.19 177.44 99.9 177.44 99.18 178.15 99.19"/>
  <rect class="cls-1" x="174.59" y="111.31" width=".71" height=".35"/>
  <path class="cls-1" d="M176.55,112.02c.23.12.23.24,0,.36v-.36Z"/>
  <path class="cls-1" d="M180.47,104.53c.23.12.23.24,0,.36v-.36Z"/>
  <path class="cls-1" d="M181.9,101.68c.23.12.23.24,0,.36v-.36Z"/>
  <path class="cls-1" d="M164.6,81.35c.07.06.42,1.72.36,1.78-.94.93-1.53-2.86-.36-1.78Z"/>
  <path class="cls-1" d="M169.95,80.99h-.71s0-1.07,0-1.07c.52.12.82.58.71,1.07Z"/>
  <path class="cls-1" d="M161.03,82.06h-1.42s0-.35,0-.35c.76-.17,1.11-.61,1.42.35Z"/>
  <path class="cls-1" d="M168.34,81.35c.23.12.23.24,0,.36v-.36Z"/>
  <polygon class="cls-1" points="126.08 88.83 125.37 88.84 125.37 87.41 125.72 87.41 126.08 88.83"/>
  <path class="cls-1" d="M177.79,88.83c-.04.05-.5-.05-.58.08-.19.32.42,1.27-1.2,1l1.61-1.78c.3-.04.22.64.17.71Z"/>
  <path class="cls-1" d="M181.01,90.62l-.19-.71.37-.35.54.89-.72.18c.82,1.9-.36,1.12-1.06-.18l1.06.18Z"/>
  <path class="cls-1" d="M182.79,89.91c.39.39-.32,1.1-.71.71s.32-1.1.71-.71Z"/>
  <polygon class="cls-1" points="178.51 93.48 178.51 94.19 177.8 93.65 178.51 93.48"/>
  <polygon class="cls-1" points="182.43 93.83 181.72 93.66 182.43 93.12 182.43 93.83"/>
  <path class="cls-1" d="M176.91,92.4c.23.12.23.24,0,.36v-.36Z"/>
  <path class="cls-1" d="M181.9,90.98c.23.12.23.24,0,.36v-.36Z"/>
  <path class="cls-1" d="M177.62,85.63c.23.12.23.24,0,.36v-.36Z"/>
  <path class="cls-1" d="M176.91,84.2c.23.12.23.24,0,.36v-.36Z"/>
  <path class="cls-1" d="M161.74,129.5h-.71c-.12-.53.16-.74.53-1.07l.17,1.07Z"/>
  <polygon class="cls-1" points="163.53 124.15 162.82 124.86 162.82 124.15 163.53 124.15"/>
  <path class="cls-1" d="M164.06,123.79c.23.12.23.24,0,.36v-.36Z"/>
  <path class="cls-1" d="M167.09,116.66c.39.39-.32,1.1-.71.71s.32-1.1.71-.71Z"/>
  <rect class="cls-1" x="170.31" y="120.59" width="1.07" height=".35"/>
  <path class="cls-1" d="M169.77,120.23c.23.12.23.24,0,.36v-.36Z"/>
  <path class="cls-1" d="M185.11,263.97c.23.12.23.24,0,.36v-.36Z"/>
</svg>