<?xml version="1.0" encoding="UTF-8"?>
<svg id="Layer_1" data-name="Layer 1" xmlns="http://www.w3.org/2000/svg" viewBox="0 0 300 300">
  <defs>
    <style>
      .cls-1 {
        fill: #e0d4c4;
      }
    </style>
  </defs>
  <path class="cls-1" d="M48.42,98.79c1.83-3.12,3.01-12.07,4.21-16.24,4.51-15.65,11.34-29.32,17.52-44.11.7-1.67,1.82-7.01,2.41-7.86.68-.97,2.76.78,1.19-2.32,2.03-.21,2.16-5.28,2.43-5.44.29-.18,1.11.1,1.46-.19,1.12-.93,4.83-11.24,7.97-14.24.15-.14,2.85-2.24,3.02-2.33.34-.18,5.37-1.05,5.99-1.06,4.39-.08,8.52,1.97,12.55,3.08,5.9,1.62,12.02,2.95,17.6,5.44l-.31,1.75,1.43-1.14c5.63,3.59,9.75,5.66,10,13.05.24,6.95-8.25,16.09-11.93,21.87-2.24,3.51-3.72,6.13-6.24,9.6-1.11,1.53-2.13,5.88-3.12,7.54-.68,1.15-1.96,1.31-2.16,1.62-.37.56-4.44,10.27-5.09,11.7-3.22,7.1-5.41,13.81-8.31,21.11-1.15,2.88-2.08,5.17-3.4,7.81-1.55,3.12-1.12,6.34-1.87,8.11-.06.14-1.52.65-1.93,2.23-.9,3.52-.58,8.64-1.49,12.44-.28,1.15-1.37,1.85-1.59,3.03-.32,1.8-.19,3.98-.54,6.36-1.05,7.14-.11,14.34-.05,21.54,3.13.29,5.71-2.53,7.79-4.58,18.04-17.7,31.98-38.78,49.99-56.27,6.48-6.29,16.37-15.31,23.43-20.05,2.18-1.46,4.87-1.42,6.05-3.75l.85,1.14c.09-.63.3-1.35.84-1.74,2.95-2.13,7.98-3.51,11.57-3.9,3.26-.36,4.3,2.21,4.56,2.17.71-.1,1.61-1.15,2.81-.98,1.28.18,1.9,1.75,2.29,1.95,2.82,1.5,5.04,2.03,7.73,3.66,2.55,1.55,4.24.49,4.68.66.34.13,5.15,2.65,6.24,3.24,5.52,2.97,10.55,6.64,13.99,11.93l-1.16.57,1.17.63c.04,2.03.71,5.32.31,8.32-.75,5.57-2.63,9.08-5.15,13.86-12.26,23.29-25.82,52.63-35.17,77.72-6.17,16.53-10.77,34.04-14.71,51.24l3.27-2.49c0-3.22,6.39-7.86,6.98-9.17.2-.45-.48-1.26-.22-1.62.34-.46,1.45-.33,2.08-.96,1.65-1.64,2.77-4.57,4.03-6.06,7.17-8.49,15.77-20.13,23.66-27.15.39-.35,1.37-.23,1.56-.45.33-.37-.05-1.67.19-2.41.26-.78,1.24-.83,1.65-1.39,2.31-3.21,5.68-6.23,8.61-9.11,1-.99.38-2.91,3.48-2.55l-.56-1.66,3.14-1.8.3,1.16.83-1.14c2.14.47,3.82,2.33,5.56,3.1,3.9,1.72,8.19,2.64,11.67,5.61,2.34,2,3.09,4.09,2.71,7.16-.25,2-2.6,3.09-3.89,4.49-.83.9-1.06,3.91-3.62,1.51-1.55,1.71-2.17,4-3.56,5.96-1.04,1.46-2.72,2.75-3.73,4.04-7.75,9.94-15.46,20.7-23.02,31.13-.68.94-.94,2.64-1.94,3.54s-2.25.75-2.33.84c-.22.25.6,1.18.44,1.61-.05.15-1.75,1.82-2.1,2.32-1.83,2.66-5.99,9.51-8.39,11.62-1.9,1.67-2.39,1.77-3.96,4.16-3.21,4.9-7.04,8.43-10.25,13.22-1.26,1.87-1.3,1.2-2.81,2.5-2.83,2.43-6.38,6.26-9.73,8.18-.75.43-.96.48-1.78.16l.58,1.72c-2.35.46-4.11,1.09-6.55.93-2.67-.18-9.38-2.06-11.93-2.89-6-1.95-14.93-7.7-18.19-13.19-1.5-2.52-5.05-11.62-5.15-14.23-.18-4.92-2.07-8.43-2.54-12.94-.33-3.21-.15-9.35-.02-12.7.06-1.69,1.35-7.84,1.08-8.64-.17-.5-1.36.2-1.06-1.13-.05-.57.9-.09,1.06-.56.24-.74-.09-6.16.25-7.94.6-3.17,2.27-7.46,3.31-10.53l-1.2-.61c1.78-3.77,1.36-7.25,3.01-11.09l1.05.2c-1.27-4.31,1.45-9.17,2.63-12.96,4.92-15.83,11.51-32.18,16.94-48.73.59-1.8-.1-3.42,1.17-4.86l-2.86,2c-1.04.57-1.51,3.29-1.91,3.62-.33.27-1.27-.01-1.46.2-.3.34.08,1.41-.26,2.06-.31.62-6.31,6.72-7.52,8.02-10.73,11.48-22.69,24.92-35.48,34.24l.46,1.01c-5.8,2.89-16.1,11.84-22.55,10.92-.93-.13-2.02-1.18-3.16-1.46-9.77-2.42-17.04-5.24-24.66-12.21-5.6-5.12-12.35-18.3-13.38-25.83-2.6-19.03-1.96-36.6,2.2-55.43l.57-.29c-.21-.06-.41-.3-.57-.29ZM87.87,10.09v.58c.37-.19.37-.38,0-.58ZM128.48,18.74h-1.15v.56h1.15v-.56ZM126.17,21.04h-1.15v.56h1.15v-.56ZM181.18,75.75v.58c.37-.19.37-.38,0-.58ZM99.39,87.27v.58c.37-.19.37-.38,0-.58ZM221.5,87.85v.58c.37-.19.37-.38,0-.58ZM93.63,88.43v.58c.37-.19.37-.38,0-.58ZM211.71,90.15v.58c.37-.19.37-.38,0-.58ZM95.94,91.88v.58c.37-.19.37-.38,0-.58ZM154.69,98.79v.58c.37-.19.37-.38,0-.58ZM228.7,107.44h-1.72v.56h1.72v-.56ZM79.81,112.62v.58c.37-.19.37-.38,0-.58ZM225.53,112.62v.58c.37-.19.37-.38,0-.58ZM178.88,117.22v.58c.37-.19.37-.38,0-.58ZM220.35,117.8v.58c.37-.19.37-.38,0-.58ZM220.35,120.68v.58c.37-.19.37-.38,0-.58ZM219.48,124.13v-1.15s-1.15.87-1.15.87l1.15.28ZM156.42,129.32v.58c.37-.19.37-.38,0-.58ZM156.42,131.62v.58c.37-.19.37-.38,0-.58ZM122.72,137.96v-1.15s-1.15.87-1.15.87l1.15.28ZM86.15,148.9v.58c.37-.19.37-.38,0-.58ZM147.78,167.33v.58c.37-.19.37-.38,0-.58ZM98.82,171.94v.58c.37-.19.37-.38,0-.58ZM106.88,172.52v.58c.37-.19.37-.38,0-.58ZM108.89,180.01h-1.15v.56h1.15v-.56ZM232.44,183.46v.58c.37-.19.37-.38,0-.58ZM242.81,185.77v.58c.37-.19.37-.38,0-.58ZM84.99,190.95v.58c.37-.19.37-.38,0-.58ZM136.26,207.08v.58c.37-.19.37-.38,0-.58ZM197.31,229.54v.58c.37-.19.37-.38,0-.58ZM181.76,246.24v.58c.37-.19.37-.38,0-.58ZM173.7,250.85v.58c.37-.19.37-.38,0-.58ZM170.82,253.16v.58c.37-.19.37-.38,0-.58ZM137.11,270.43v-1.15h-.56v1.15h.56ZM139.14,272.16v.58c.37-.19.37-.38,0-.58ZM175.13,272.17h-1.15v.56h1.15v-.56ZM183.49,280.23v.58c.37-.19.37-.38,0-.58ZM185.79,280.23v.58c.37-.19.37-.38,0-.58ZM182.91,284.83v.58c.37-.19.37-.38,0-.58Z"/>
</svg>