<svg width="212" height="290" viewBox="0 0 212 290" fill="none" xmlns="http://www.w3.org/2000/svg">
<path d="M4.42124 93.7903C6.25124 90.6703 7.43125 81.7203 8.63125 77.5503C13.1412 61.9003 19.9712 48.2303 26.1512 33.4403C26.8512 31.7703 27.9712 26.4303 28.5612 25.5803C29.2412 24.6103 31.3212 26.3603 29.7512 23.2603C31.7812 23.0503 31.9112 17.9803 32.1812 17.8203C32.4712 17.6403 33.2912 17.9203 33.6412 17.6303C34.7612 16.7003 38.4712 6.39032 41.6112 3.39032C41.7612 3.25032 44.4612 1.15032 44.6312 1.06032C44.9712 0.880321 50.0013 0.0103212 50.6213 0.000321152C55.0112 -0.0796788 59.1412 1.97032 63.1712 3.08032C69.0712 4.70032 75.1912 6.03032 80.7712 8.52032L80.4612 10.2703L81.8912 9.13032C87.5212 12.7203 91.6412 14.7903 91.8912 22.1803C92.1312 29.1303 83.6412 38.2703 79.9612 44.0503C77.7212 47.5603 76.2412 50.1803 73.7212 53.6503C72.6112 55.1803 71.5912 59.5303 70.6012 61.1903C69.9212 62.3403 68.6412 62.5003 68.4412 62.8103C68.0712 63.3703 64.0012 73.0803 63.3512 74.5103C60.1312 81.6103 57.9412 88.3203 55.0412 95.6203C53.8912 98.5003 52.9612 100.79 51.6412 103.43C50.0912 106.55 50.5212 109.77 49.7712 111.54C49.7112 111.68 48.2512 112.19 47.8412 113.77C46.9412 117.29 47.2612 122.41 46.3512 126.21C46.0712 127.36 44.9813 128.06 44.7612 129.24C44.4412 131.04 44.5712 133.22 44.2212 135.6C43.1712 142.74 44.1112 149.94 44.1712 157.14C47.3012 157.43 49.8812 154.61 51.9612 152.56C70.0013 134.86 83.9412 113.78 101.951 96.2903C108.431 90.0003 118.321 80.9803 125.381 76.2403C127.561 74.7803 130.251 74.8203 131.431 72.4903L132.281 73.6303C132.371 73.0003 132.581 72.2803 133.121 71.8903C136.071 69.7603 141.101 68.3803 144.691 67.9903C147.951 67.6303 148.991 70.2003 149.251 70.1603C149.961 70.0603 150.861 69.0103 152.061 69.1803C153.341 69.3603 153.961 70.9303 154.351 71.1303C157.171 72.6303 159.391 73.1603 162.081 74.7903C164.631 76.3403 166.321 75.2803 166.761 75.4503C167.101 75.5803 171.911 78.1003 173.001 78.6903C178.521 81.6603 183.551 85.3303 186.991 90.6203L185.831 91.1903L187.001 91.8203C187.041 93.8503 187.711 97.1403 187.311 100.14C186.561 105.71 184.681 109.22 182.161 114C169.901 137.29 156.341 166.63 146.991 191.72C140.821 208.25 136.221 225.76 132.281 242.96L135.551 240.47C135.551 237.25 141.941 232.61 142.531 231.3C142.731 230.85 142.051 230.04 142.311 229.68C142.651 229.22 143.761 229.35 144.391 228.72C146.041 227.08 147.161 224.15 148.421 222.66C155.591 214.17 164.191 202.53 172.081 195.51C172.471 195.16 173.451 195.28 173.641 195.06C173.971 194.69 173.591 193.39 173.831 192.65C174.091 191.87 175.071 191.82 175.481 191.26C177.791 188.05 181.161 185.03 184.091 182.15C185.091 181.16 184.471 179.24 187.571 179.6L187.011 177.94L190.151 176.14L190.451 177.3L191.281 176.16C193.421 176.63 195.101 178.49 196.841 179.26C200.741 180.98 205.031 181.9 208.511 184.87C210.851 186.87 211.601 188.96 211.221 192.03C210.971 194.03 208.621 195.12 207.331 196.52C206.501 197.42 206.271 200.43 203.711 198.03C202.161 199.74 201.541 202.03 200.151 203.99C199.111 205.45 197.431 206.74 196.421 208.03C188.671 217.97 180.961 228.73 173.401 239.16C172.721 240.1 172.461 241.8 171.461 242.7C170.461 243.6 169.211 243.45 169.131 243.54C168.911 243.79 169.731 244.72 169.571 245.15C169.521 245.3 167.821 246.97 167.471 247.47C165.641 250.13 161.481 256.98 159.081 259.09C157.181 260.76 156.691 260.86 155.121 263.25C151.911 268.15 148.081 271.68 144.871 276.47C143.611 278.34 143.571 277.67 142.061 278.97C139.231 281.4 135.681 285.23 132.331 287.15C131.581 287.58 131.371 287.63 130.551 287.31L131.131 289.03C128.781 289.49 127.021 290.12 124.581 289.96C121.911 289.78 115.201 287.9 112.651 287.07C106.651 285.12 97.7213 279.37 94.4613 273.88C92.9613 271.36 89.4112 262.26 89.3112 259.65C89.1312 254.73 87.2412 251.22 86.7712 246.71C86.4412 243.5 86.6212 237.36 86.7512 234.01C86.8112 232.32 88.1012 226.17 87.8312 225.37C87.6612 224.87 86.4712 225.57 86.7712 224.24C86.7212 223.67 87.6712 224.15 87.8312 223.68C88.0712 222.94 87.7412 217.52 88.0812 215.74C88.6812 212.57 90.3512 208.28 91.3912 205.21L90.1912 204.6C91.9712 200.83 91.5512 197.35 93.2012 193.51L94.2512 193.71C92.9812 189.4 95.7012 184.54 96.8812 180.75C101.801 164.92 108.391 148.57 113.821 132.02C114.411 130.22 113.721 128.6 114.991 127.16L112.131 129.16C111.091 129.73 110.621 132.45 110.221 132.78C109.891 133.05 108.951 132.77 108.761 132.98C108.461 133.32 108.841 134.39 108.501 135.04C108.191 135.66 102.191 141.76 100.981 143.06C90.2512 154.54 78.2912 167.98 65.5012 177.3L65.9612 178.31C60.1612 181.2 49.8613 190.15 43.4113 189.23C42.4813 189.1 41.3912 188.05 40.2512 187.77C30.4812 185.35 23.2112 182.53 15.5912 175.56C9.99125 170.44 3.24125 157.26 2.21125 149.73C-0.388755 130.7 0.251246 113.13 4.41125 94.3003L4.98125 94.0103C4.77125 93.9503 4.57125 93.7103 4.41125 93.7203L4.42124 93.7903ZM43.8713 5.09032V5.67032C44.2412 5.48032 44.2412 5.29032 43.8713 5.09032ZM84.4812 13.7403H83.3312V14.3003H84.4812V13.7403ZM82.1712 16.0403H81.0212V16.6003H82.1712V16.0403ZM137.181 70.7503V71.3303C137.551 71.1403 137.551 70.9503 137.181 70.7503ZM55.3912 82.2703V82.8503C55.7612 82.6603 55.7612 82.4703 55.3912 82.2703ZM177.501 82.8503V83.4303C177.871 83.2403 177.871 83.0503 177.501 82.8503ZM49.6312 83.4303V84.0103C50.0012 83.8203 50.0012 83.6303 49.6312 83.4303ZM167.711 85.1503V85.7303C168.081 85.5403 168.081 85.3503 167.711 85.1503ZM51.9412 86.8803V87.4603C52.3112 87.2703 52.3112 87.0803 51.9412 86.8803ZM110.691 93.7903V94.3703C111.061 94.1803 111.061 93.9903 110.691 93.7903ZM184.701 102.44H182.981V103H184.701V102.44ZM35.8112 107.62V108.2C36.1812 108.01 36.1812 107.82 35.8112 107.62ZM181.531 107.62V108.2C181.901 108.01 181.901 107.82 181.531 107.62ZM134.881 112.22V112.8C135.251 112.61 135.251 112.42 134.881 112.22ZM176.351 112.8V113.38C176.721 113.19 176.721 113 176.351 112.8ZM176.351 115.68V116.26C176.721 116.07 176.721 115.88 176.351 115.68ZM175.481 119.13V117.98L174.331 118.85L175.481 119.13ZM112.421 124.32V124.9C112.791 124.71 112.791 124.52 112.421 124.32ZM112.421 126.62V127.2C112.791 127.01 112.791 126.82 112.421 126.62ZM78.7212 132.96V131.81L77.5712 132.68L78.7212 132.96ZM42.1512 143.9V144.48C42.5212 144.29 42.5212 144.1 42.1512 143.9ZM103.781 162.33V162.91C104.151 162.72 104.151 162.53 103.781 162.33ZM54.8212 166.94V167.52C55.1912 167.33 55.1912 167.14 54.8212 166.94ZM62.8812 167.52V168.1C63.2512 167.91 63.2512 167.72 62.8812 167.52ZM64.8912 175.01H63.7412V175.57H64.8912V175.01ZM188.441 178.46V179.04C188.811 178.85 188.811 178.66 188.441 178.46ZM198.811 180.77V181.35C199.181 181.16 199.181 180.97 198.811 180.77ZM40.9912 185.95V186.53C41.3612 186.34 41.3612 186.15 40.9912 185.95ZM92.2612 202.08V202.66C92.6312 202.47 92.6312 202.28 92.2612 202.08ZM153.311 224.54V225.12C153.681 224.93 153.681 224.74 153.311 224.54ZM137.761 241.24V241.82C138.131 241.63 138.131 241.44 137.761 241.24ZM129.701 245.85V246.43C130.071 246.24 130.071 246.05 129.701 245.85ZM126.821 248.16V248.74C127.191 248.55 127.191 248.36 126.821 248.16ZM93.1112 265.43V264.28H92.5512V265.43H93.1112ZM95.1412 267.16V267.74C95.5112 267.55 95.5112 267.36 95.1412 267.16ZM131.131 267.17H129.981V267.73H131.131V267.17ZM139.491 275.23V275.81C139.861 275.62 139.861 275.43 139.491 275.23ZM141.791 275.23V275.81C142.161 275.62 142.161 275.43 141.791 275.23ZM138.911 279.83V280.41C139.281 280.22 139.281 280.03 138.911 279.83Z" fill="#DFD4C3"/>
</svg>
