<svg width="218" height="254" viewBox="0 0 218 254" fill="none" xmlns="http://www.w3.org/2000/svg">
<path d="M189.449 224.77C183.899 213.63 177.389 178.4 158.819 191.38C157.079 192.6 155.359 194.2 153.649 196.04C146.339 203.96 139.389 216.45 132.839 223.4C131.369 224.96 130.779 226.28 129.459 223.76C123.229 180.91 130.559 137.23 135.739 95.87C136.299 91.39 137.589 87.97 138.109 84.68C138.209 84.05 135.399 72.81 134.649 72.32C129.129 70.79 120.319 65.32 114.779 65.85C110.689 66.24 93.7889 85.72 90.4989 90.07C74.1889 111.63 63.0089 142.75 46.8389 161.41C41.9389 167.06 39.1089 169.15 31.9189 170.46C23.8989 163.82 22.1889 155.99 21.3389 145.88C18.3489 110.29 33.4889 56.47 45.8089 22.38C46.6489 20.04 48.8589 18.25 49.6989 15.5C50.4189 13.15 49.3089 9.78 49.4589 9.52C49.5889 9.29 52.5189 8.52 53.7489 6.33C54.6689 4.7 55.3189 2.36 55.8989 0H31.0689C22.7189 17.68 16.4389 36.37 11.4689 55.98C4.01894 85.39 -6.93107 139.34 5.94893 167.29C21.9889 202.1 51.0789 189.51 68.1689 163.73C82.7489 141.73 94.1989 111.05 112.119 91.68C113.109 90.61 113.159 88.89 115.329 89.4C113.019 107.27 109.059 125.03 107.459 142.95C105.529 164.53 102.259 217.14 114.319 234.64C121.149 244.55 132.359 242.51 139.849 234.42L153.649 215.68L162.239 204.02L164.309 203.4C171.979 221.59 179.319 246.53 200.569 252.63C206.099 254.21 217.359 255.49 217.329 247.4C203.849 246.44 194.999 235.91 189.449 224.77ZM44.3289 14.4H45.3089V16.39H44.3289V14.4ZM38.8189 15.4C39.4689 15.73 39.4689 16.07 38.8189 16.4V15.4ZM7.81893 112.4V111.4C8.46893 111.73 8.46893 112.07 7.81893 112.4ZM10.8189 124.4V123.4C11.4689 123.73 11.4689 124.07 10.8189 124.4ZM26.8189 62.4C27.4689 62.73 27.4689 63.07 26.8189 63.4V62.4ZM22.8189 87.4C23.4689 87.73 23.4689 88.07 22.8189 88.4V87.4ZM17.8189 116.4C18.4689 116.73 18.4689 117.07 17.8189 117.4V116.4ZM15.3089 106.4L13.3489 104.91L16.3189 101.4L15.3189 106.4H15.3089ZM18.3089 131.39H17.3289V129.4H18.3089V131.39ZM20.8189 95.4C21.4689 95.73 21.4689 96.07 20.8189 96.4V95.4ZM89.3089 103.39H87.3189V102.41H89.3089V103.39ZM90.8189 108.4V107.4C91.4689 107.73 91.4689 108.07 90.8189 108.4ZM93.3289 93.4V91.41H95.3189L93.3289 93.4ZM97.3089 103.39H96.3289V101.4H97.3089V103.39ZM129.819 115.4C130.469 115.73 130.469 116.07 129.819 116.4V115.4ZM127.819 126.4C128.469 126.73 128.469 127.07 127.819 127.4V126.4ZM126.819 144.4C127.469 144.73 127.469 145.07 126.819 145.4V144.4Z" fill="#DFD4C3"/>
</svg>
