<?xml version="1.0" encoding="UTF-8"?>
<svg id="Layer_1" data-name="Layer 1" xmlns="http://www.w3.org/2000/svg" viewBox="0 0 158.72 282.14">
  <defs>
    <style>
      .cls-1 {
        fill: #dfd4c3;
      }
    </style>
  </defs>
  <path class="cls-1" d="M137.91,260.45c-1.47,1.56-2.06,2.88-3.38.36-6.23-42.85,1.1-86.53,6.28-127.89.56-4.48,1.85-7.9,2.37-11.19.1-.63-2.71-11.87-3.46-12.36-5.52-1.53-14.33-7-19.87-6.47-4.09.39-20.99,19.87-24.28,24.22-16.31,21.56-27.49,52.68-43.66,71.34-4.9,5.65-7.73,7.74-14.92,9.05-8.02-6.64-9.73-14.47-10.58-24.58-2.99-35.59,12.15-89.41,24.47-123.5.84-2.34,3.05-4.13,3.89-6.88.72-2.35-.39-5.72-.24-5.98.13-.23,3.06-1,4.29-3.19,1.88-3.34,2.65-9.73,4.05-12.94,2.76-6.36,7.38-13.24,10.38-19.66.13-.97-3.89-4.8-4.21-4.97-1-.49-9.51-3.29-10.2-3.34-5.8-.42-7.08,6.49-9.42,10.23-15.4,24.57-25.56,51.46-32.88,80.33-7.45,29.41-18.4,83.36-5.52,111.31,16.04,34.81,45.13,22.22,62.22-3.56,14.58-22,26.03-52.68,43.95-72.05.99-1.07,1.04-2.79,3.21-2.28-2.31,17.87-6.27,35.63-7.87,53.55-1.93,21.58-5.2,74.19,6.86,91.69,6.83,9.91,18.04,7.87,25.53-.22l13.8-18.74v-19.64c-7.31,7.92-14.26,20.41-20.81,27.36ZM65.38,21.45c.16.34-.86,3.84-1,3.99-.13.14-.66-.05-.98,0,.26-1.52.53-4.27,1.98-3.99ZM12.89,149.45v-1c.65.33.65.67,0,1ZM15.89,161.45v-1c.65.33.65.67,0,1ZM50.88,12.47c.55.64,2.01,1.3,1.02,1.96-.48-.59-2.01-1.26-1.02-1.96ZM49.4,51.45h.98v1.99h-.98v-1.99ZM43.89,52.45c.65.33.65.67,0,1v-1ZM31.89,99.45c.65.33.65.67,0,1v-1ZM27.89,124.45c.65.33.65.67,0,1v-1ZM22.89,153.45c.65.33.65.67,0,1v-1ZM20.38,143.45h0l-1.96-1.49,2.97-3.51-1,5ZM23.38,168.44h-.98v-1.99h.98v1.99ZM25.89,132.45c.65.33.65.67,0,1v-1ZM94.38,140.44h-1.99v-.98h1.99v.98ZM95.89,145.45v-1c.65.33.65.67,0,1ZM98.4,130.45v-1.99h1.99l-1.99,1.99ZM102.38,140.44h-.98v-1.99h.98v1.99ZM134.89,152.45c.65.33.65.67,0,1v-1ZM132.89,163.45c.65.33.65.67,0,1v-1ZM131.89,181.45c.65.33.65.67,0,1v-1Z"/>
</svg>