<?xml version="1.0" encoding="UTF-8"?>
<svg id="Layer_1" data-name="Layer 1" xmlns="http://www.w3.org/2000/svg" viewBox="0 0 300 300">
  <defs>
    <style>
      .cls-1 {
        fill: #e0d4c4;
      }
    </style>
  </defs>
  <path class="cls-1" d="M105.32,9.16c.32.17,4.34,4,4.21,4.97-3,6.42-7.62,13.3-10.38,19.66-1.4,3.21-2.17,9.6-4.05,12.94-1.23,2.19-4.16,2.96-4.29,3.19-.15.26.96,3.63.24,5.98-.84,2.75-3.05,4.54-3.89,6.88-12.32,34.09-27.46,87.91-24.47,123.5.85,10.11,2.56,17.94,10.58,24.58,7.19-1.31,10.02-3.4,14.92-9.05,16.17-18.66,27.35-49.78,43.66-71.34,3.29-4.35,20.19-23.83,24.28-24.22,5.54-.53,14.35,4.94,19.87,6.47.75.49,3.56,11.73,3.46,12.36-.52,3.29-1.81,6.71-2.37,11.19-5.18,41.36-12.51,85.04-6.28,127.89,1.32,2.52,1.91,1.2,3.38-.36,8.08-8.57,16.75-25.56,25.98-32.02,18.57-12.98,25.08,22.25,30.63,33.39s14.4,21.67,27.88,22.63c.03,8.09-11.23,6.81-16.76,5.23-21.25-6.1-28.59-31.04-36.26-49.23l-2.07.62-22.39,30.4c-7.49,8.09-18.7,10.13-25.53.22-12.06-17.5-8.79-70.11-6.86-91.69,1.6-17.92,5.56-35.68,7.87-53.55-2.17-.51-2.22,1.21-3.21,2.28-17.92,19.37-29.37,50.05-43.95,72.05-17.09,25.78-46.18,38.37-62.22,3.56-12.88-27.95-1.93-81.9,5.52-111.31,7.32-28.87,17.48-55.76,32.88-80.33,2.34-3.74,3.62-10.65,9.42-10.23.7.05,9.36,2.9,10.23,3.35ZM87.16,15.82c-.99.7.54,1.37,1.02,1.96.99-.66-.47-1.32-1.02-1.96ZM100.66,28.79c.14-.15,1.16-3.65,1-3.99-1.45-.28-1.72,2.47-1.98,3.99.32-.05.85.14.98,0ZM86.66,56.79v-1.99h-.98v1.99h.98ZM80.17,55.8v1c.65-.33.65-.67,0-1ZM68.17,102.8v1c.65-.33.65-.67,0-1ZM64.17,127.8v1c.65-.33.65-.67,0-1ZM136.67,131.81h-1.99s0,1.99,0,1.99l1.99-1.99ZM62.17,135.8v1c.65-.33.65-.67,0-1ZM56.66,146.8l1-5-2.97,3.51,1.96,1.49ZM138.66,143.79v-1.99h-.98v1.99h.98ZM130.66,142.81h-1.99v.98h1.99v-.98ZM132.17,147.8v1c.65-.33.65-.67,0-1ZM49.17,151.8v1c.65-.33.65-.67,0-1ZM171.17,155.8v1c.65-.33.65-.67,0-1ZM59.17,156.8v1c.65-.33.65-.67,0-1ZM52.17,163.8v1c.65-.33.65-.67,0-1ZM169.17,166.8v1c.65-.33.65-.67,0-1ZM59.66,171.79v-1.99h-.98v1.99h.98ZM168.17,184.8v1c.65-.33.65-.67,0-1Z"/>
</svg>