<svg width="154" height="276" viewBox="0 0 154 276" fill="none" xmlns="http://www.w3.org/2000/svg">
<path d="M132.839 258C131.369 259.56 130.779 260.88 129.459 258.36C123.229 215.51 130.559 171.83 135.739 130.47C136.299 125.99 137.589 122.57 138.109 119.28C138.209 118.65 135.399 107.41 134.649 106.92C129.129 105.39 120.319 99.9203 114.779 100.45C110.689 100.84 93.7889 120.32 90.4989 124.67C74.1889 146.23 63.0089 177.35 46.8389 196.01C41.9389 201.66 39.1089 203.75 31.9189 205.06C23.8989 198.42 22.1889 190.59 21.3389 180.48C18.3489 144.89 33.4889 91.0703 45.8089 56.9803C46.6489 54.6403 48.8589 52.8503 49.6989 50.1003C50.4189 47.7503 49.3089 44.3803 49.4589 44.1203C49.5889 43.8903 52.5189 43.1203 53.7489 40.9303C55.6289 37.5903 56.3989 31.2003 57.7989 27.9903C60.5589 21.6303 65.1789 14.7503 68.1789 8.33026C68.3089 7.36026 64.2889 3.53026 63.9689 3.36026C62.9689 2.87026 54.4589 0.0702571 53.7689 0.0202571C47.9689 -0.399743 46.6889 6.51026 44.3489 10.2503C28.9489 34.8203 18.7889 61.7103 11.4689 90.5803C4.01894 119.99 -6.93107 173.94 5.94893 201.89C21.9889 236.7 51.0789 224.11 68.1689 198.33C82.7489 176.33 94.1989 145.65 112.119 126.28C113.109 125.21 113.159 123.49 115.329 124C113.019 141.87 109.059 159.63 107.459 177.55C105.529 199.13 102.259 251.74 114.319 269.24C121.149 279.15 132.359 277.11 139.849 269.02L153.649 250.28V230.64C146.339 238.56 139.389 251.05 132.839 258ZM60.3089 19.0003C60.4689 19.3403 59.4489 22.8403 59.3089 22.9903C59.1789 23.1303 58.6489 22.9403 58.3289 22.9903C58.5889 21.4703 58.8589 18.7203 60.3089 19.0003ZM7.81893 147V146C8.46893 146.33 8.46893 146.67 7.81893 147ZM10.8189 159V158C11.4689 158.33 11.4689 158.67 10.8189 159ZM45.8089 10.0203C46.3589 10.6603 47.8189 11.3203 46.8289 11.9803C46.3489 11.3903 44.8189 10.7203 45.8089 10.0203ZM44.3289 49.0003H45.3089V50.9903H44.3289V49.0003ZM38.8189 50.0003C39.4689 50.3303 39.4689 50.6703 38.8189 51.0003V50.0003ZM26.8189 97.0003C27.4689 97.3303 27.4689 97.6703 26.8189 98.0003V97.0003ZM22.8189 122C23.4689 122.33 23.4689 122.67 22.8189 123V122ZM17.8189 151C18.4689 151.33 18.4689 151.67 17.8189 152V151ZM15.3089 141L13.3489 139.51L16.3189 136L15.3189 141H15.3089ZM18.3089 165.99H17.3289V164H18.3089V165.99ZM20.8189 130C21.4689 130.33 21.4689 130.67 20.8189 131V130ZM89.3089 137.99H87.3189V137.01H89.3089V137.99ZM90.8189 143V142C91.4689 142.33 91.4689 142.67 90.8189 143ZM93.3289 128V126.01H95.3189L93.3289 128ZM97.3089 137.99H96.3289V136H97.3089V137.99ZM129.819 150C130.469 150.33 130.469 150.67 129.819 151V150ZM127.819 161C128.469 161.33 128.469 161.67 127.819 162V161ZM126.819 179C127.469 179.33 127.469 179.67 126.819 180V179Z" fill="#DFD4C3"/>
</svg>
